<!-- Cleaned by SVG Sprite Color Stripper: colors removed -->
<svg width="0" height="0" class="hidden">
    <symbol xmlns="http://www.w3.org/2000/svg" xmlns:xlink="http://www.w3.org/1999/xlink" xml:space="preserve" overflow="hidden" viewBox="0 0 1105 889" id="biology-folder">
      <g transform="translate(-1475 -701)">
        <g>
          <path d="M1812.56 706C1843.1 706.005 1880.73 721.633 1902.36 743.345L1959.54 800.753C1962.66 803.86 1968.58 807.364 1975.21 810.128 1981.84 812.889 1988.5 814.638 1992.91 814.641L2461.93 814.641C2523.65 814.646 2574 865.087 2574 927.218L2574 1470.42C2574 1532.56 2523.65 1583 2461.93 1583L1596.07 1583C1534.35 1583 1484 1532.56 1484 1470.42L1484 818.576C1484 756.446 1534.35 706.004 1596.07 706L1812.56 706ZM1596.07 786.323C1578.28 786.328 1563.87 800.882 1563.87 818.576L1563.87 1470.42C1563.87 1488.12 1578.28 1502.67 1596.07 1502.68L2461.93 1502.68C2479.72 1502.67 2494.13 1488.12 2494.13 1470.42L2494.13 927.218C2494.13 909.523 2479.72 894.969 2461.93 894.965L1992.91 894.965C1962.37 894.962 1924.74 879.333 1903.11 857.619L1845.93 800.174C1842.81 797.066 1836.89 793.562 1830.26 790.799 1823.63 788.038 1816.97 786.327 1812.56 786.323L1596.07 786.323Z" stroke-width="7.7231" stroke-linecap="butt" stroke-linejoin="miter" stroke-miterlimit="8" stroke-opacity="1" fill-rule="evenodd" fill-opacity="1"/>
          <path d="M2182.57 1099.07C2198.32 1083.64 2223.92 1083.64 2239.69 1099.07 2255.44 1114.5 2255.44 1139.57 2239.69 1155.02L2199.15 1194.7C2166.86 1226.35 2122.28 1242.93 2076.68 1240.31L1978.57 1234.66C1956.01 1233.35 1933.94 1241.56 1917.95 1257.22L1877.43 1296.93C1861.68 1312.36 1836.08 1312.36 1820.31 1296.93 1804.56 1281.5 1804.56 1256.43 1820.31 1240.99L1860.85 1201.3C1893.14 1169.65 1937.72 1153.07 1983.32 1155.69L2081.43 1161.34C2103.99 1162.65 2126.06 1154.44 2142.05 1138.78L2182.57 1099.07ZM2203.46 1119.53 2162.92 1159.22C2140.97 1180.72 2110.69 1192 2079.69 1190.23L1981.59 1184.56C1944.41 1182.42 1908.07 1195.96 1881.74 1221.76L1841.2 1261.45C1836.97 1265.59 1836.97 1272.32 1841.2 1276.47 1845.44 1280.62 1852.31 1280.62 1856.54 1276.47L1897.08 1236.78C1919.03 1215.28 1949.32 1204 1980.31 1205.77L2078.42 1211.44C2115.59 1213.58 2151.93 1200.04 2178.26 1174.24L2218.8 1134.55C2223.03 1130.41 2223.03 1123.68 2218.8 1119.53 2214.56 1115.39 2207.69 1115.39 2203.46 1119.53Z" stroke-width="4.58333" stroke-linecap="butt" stroke-linejoin="round" stroke-miterlimit="10" stroke-opacity="1" fill-rule="evenodd" fill-opacity="1"/>
          <path d="M1990.89 1226.15C1990.39 1218.21 1996.64 1211.39 2004.81 1210.93 2013 1210.45 2020.02 1216.52 2020.49 1224.46L2021.86 1246.81C2023.68 1277.06 2012.11 1306.61 1990.06 1328.04L1949.35 1367.61C1945.1 1371.74 1945.1 1378.45 1949.35 1382.58 1953.6 1386.71 1960.51 1386.71 1964.76 1382.58L2005.46 1343.01C2031.93 1317.32 2045.81 1281.84 2043.61 1245.56L2042.41 1225.76C2041.93 1217.81 2048.16 1210.99 2056.35 1210.52 2064.52 1210.06 2071.54 1216.12 2072.02 1224.07L2073.22 1243.87C2075.91 1288.38 2058.9 1331.88 2026.45 1363.4L1985.74 1402.97C1969.9 1418.34 1944.19 1418.34 1928.37 1402.97 1912.54 1387.58 1912.54 1362.59 1928.37 1347.22L1969.09 1307.67C1985.15 1292.06 1993.58 1270.52 1992.23 1248.5L1990.89 1226.15Z" stroke-width="4.58333" stroke-linecap="butt" stroke-linejoin="round" stroke-miterlimit="10" stroke-opacity="1" fill-rule="evenodd" fill-opacity="1"/>
          <path d="M2068.37 1166.78C2068.84 1174.74 2062.65 1181.58 2054.52 1182.06 2046.4 1182.53 2039.42 1176.44 2038.95 1168.47L2037.81 1149.7C2036 1119.36 2047.5 1089.71 2069.41 1068.22L2109.86 1028.53C2114.08 1024.39 2114.08 1017.66 2109.86 1013.52 2105.63 1009.37 2098.77 1009.37 2094.55 1013.52L2054.1 1053.21C2027.81 1078.98 2014.01 1114.56 2016.19 1150.95L2017.35 1170.19C2017.83 1178.15 2011.64 1184.99 2003.5 1185.48 1995.38 1185.94 1988.41 1179.85 1987.93 1171.89L1986.78 1152.65C1984.1 1108.01 2001 1064.37 2033.25 1032.75L2073.7 993.065C2089.44 977.645 2114.99 977.645 2130.71 993.065 2146.43 1008.51 2146.43 1033.56 2130.71 1048.98L2090.24 1088.65C2074.29 1104.31 2065.92 1125.91 2067.25 1148L2068.37 1166.78Z" stroke-width="4.58333" stroke-linecap="butt" stroke-linejoin="round" stroke-miterlimit="10" stroke-opacity="1" fill-rule="evenodd" fill-opacity="1"/>
          <path d="M2192.15 1106.93C2197.95 1112.55 2197.95 1121.66 2192.15 1127.28 2186.38 1132.91 2176.96 1132.91 2171.18 1127.28L2101.85 1060.05C2096.05 1054.45 2096.05 1045.32 2101.85 1039.72 2107.64 1034.09 2117.04 1034.09 2122.84 1039.72L2192.15 1106.93Z" stroke-width="4.58333" stroke-linecap="butt" stroke-linejoin="round" stroke-miterlimit="10" stroke-opacity="1" fill-rule="evenodd" fill-opacity="1"/>
          <path d="M1998.21 1295.69C2003.93 1301.37 2003.93 1310.58 1998.21 1316.25 1992.47 1321.92 1983.17 1321.92 1977.43 1316.25L1908.79 1248.31C1903.07 1242.63 1903.07 1233.42 1908.79 1227.74 1914.53 1222.09 1923.83 1222.09 1929.57 1227.74L1998.21 1295.69Z" stroke-width="4.58333" stroke-linecap="butt" stroke-linejoin="round" stroke-miterlimit="10" stroke-opacity="1" fill-rule="evenodd" fill-opacity="1"/>
          <path d="M2150.21 1146.94C2155.93 1152.57 2155.93 1161.68 2150.21 1167.3 2144.47 1172.9 2135.17 1172.9 2129.43 1167.3L2060.79 1100.06C2055.07 1094.44 2055.07 1085.32 2060.79 1079.7 2066.53 1074.1 2075.83 1074.1 2081.57 1079.7L2150.21 1146.94Z" stroke-width="4.58333" stroke-linecap="butt" stroke-linejoin="round" stroke-miterlimit="10" stroke-opacity="1" fill-rule="evenodd" fill-opacity="1"/>
          <path d="M1957.2 1335.95C1962.93 1341.55 1962.93 1350.68 1957.2 1356.28 1951.46 1361.91 1942.16 1361.91 1936.42 1356.28L1867.8 1289.07C1862.07 1283.45 1862.07 1274.34 1867.8 1268.72 1873.52 1263.1 1882.84 1263.1 1888.56 1268.72L1957.2 1335.95Z" stroke-width="4.58333" stroke-linecap="butt" stroke-linejoin="round" stroke-miterlimit="10" stroke-opacity="1" fill-rule="evenodd" fill-opacity="1"/>
        </g>
      </g>
    </symbol>
    <symbol xmlns="http://www.w3.org/2000/svg" xmlns:xlink="http://www.w3.org/1999/xlink" xml:space="preserve" overflow="hidden" viewBox="0 0 1105 889" id="chemistry-folder">
      <g transform="translate(-1475 -701)">
        <g>
          <path d="M1812.56 706C1843.1 706.005 1880.73 721.633 1902.36 743.345L1959.54 800.753C1962.66 803.86 1968.58 807.364 1975.21 810.128 1981.84 812.889 1988.5 814.638 1992.91 814.641L2461.93 814.641C2523.65 814.646 2574 865.087 2574 927.218L2574 1470.42C2574 1532.56 2523.65 1583 2461.93 1583L1596.07 1583C1534.35 1583 1484 1532.56 1484 1470.42L1484 818.576C1484 756.446 1534.35 706.004 1596.07 706L1812.56 706ZM1596.07 786.323C1578.28 786.328 1563.87 800.882 1563.87 818.576L1563.87 1470.42C1563.87 1488.12 1578.28 1502.67 1596.07 1502.68L2461.93 1502.68C2479.72 1502.67 2494.13 1488.12 2494.13 1470.42L2494.13 927.218C2494.13 909.523 2479.72 894.969 2461.93 894.965L1992.91 894.965C1962.37 894.962 1924.74 879.333 1903.11 857.619L1845.93 800.174C1842.81 797.066 1836.89 793.562 1830.26 790.799 1823.63 788.038 1816.97 786.327 1812.56 786.323L1596.07 786.323Z" stroke-width="7.7231" stroke-linecap="butt" stroke-linejoin="miter" stroke-miterlimit="8" stroke-opacity="1" fill-rule="evenodd" fill-opacity="1"/>
          <path d="M1973.71 1126.43 1853.87 1343.47C1845.14 1359.29 1845.41 1379.54 1854.54 1395.1 1861.77 1407.42 1873.34 1414.5 1886.26 1414.5L2172.73 1414.5C2185.65 1414.5 2197.22 1407.42 2204.47 1395.08 2213.6 1379.54 2213.85 1359.27 2205.13 1343.47L2085.28 1126.43C2083.57 1123.32 2082.61 1119.39 2082.61 1115.38L2082.61 1013.36 2101.39 1013.36C2109.89 1013.36 2116.77 1006.45 2116.77 997.928 2116.77 989.404 2109.89 982.5 2101.39 982.5L1955.29 982.5C1946.79 982.5 1939.91 989.404 1939.91 997.928 1939.91 1006.45 1946.79 1013.36 1955.29 1013.36L1976.36 1013.36 1976.36 1115.36C1976.38 1119.39 1975.43 1123.32 1973.7 1126.43ZM2007.14 1115.36 2007.14 1013.36 2051.87 1013.36 2051.87 1115.36C2051.87 1124.65 2054.12 1133.64 2058.39 1141.36L2110.68 1236.03C2078.44 1242.99 2054.74 1253.81 2031.84 1264.4 1999.81 1279.21 1969.32 1293.27 1914.92 1296.63L1932.99 1263.92 1989.82 1263.92C1998.31 1263.92 2005.2 1257.01 2005.2 1248.49 2005.2 1239.96 1998.31 1233.06 1989.82 1233.06L1949.98 1233.06 1967.02 1202.2 2005.2 1202.2C2013.69 1202.2 2020.57 1195.3 2020.57 1186.77 2020.57 1178.25 2013.69 1171.35 2005.2 1171.35L1984.07 1171.35 2000.62 1141.38C2004.89 1133.66 2007.14 1124.66 2007.14 1115.36ZM2177.96 1379.42C2177.22 1380.69 2175.22 1383.64 2172.74 1383.64L1886.26 1383.64C1883.78 1383.64 1881.76 1380.69 1881.03 1379.42 1878.09 1374.4 1876.74 1365.71 1880.76 1358.42L1897.49 1328.14C1969.88 1326.92 2007.95 1309.43 2044.68 1292.46 2069.18 1281.14 2092.57 1270.43 2126.31 1264.4L2178.23 1358.42C2182.23 1365.71 2180.91 1374.4 2177.96 1379.42Z" stroke-width="3.4061" stroke-linecap="butt" stroke-linejoin="miter" stroke-miterlimit="8" stroke-opacity="1" fill-rule="evenodd" fill-opacity="1"/>
        </g>
      </g>
    </symbol>
    <symbol xmlns="http://www.w3.org/2000/svg" xmlns:xlink="http://www.w3.org/1999/xlink" xml:space="preserve" overflow="hidden" viewBox="0 0 1105 889" id="coding-folder">
      <g transform="translate(-1475 -701)">
        <g>
          <path d="M1812.56 706C1843.1 706.005 1880.73 721.633 1902.36 743.345L1959.54 800.753C1962.66 803.86 1968.58 807.364 1975.21 810.128 1981.84 812.889 1988.5 814.638 1992.91 814.641L2461.93 814.641C2523.65 814.646 2574 865.087 2574 927.218L2574 1470.42C2574 1532.56 2523.65 1583 2461.93 1583L1596.07 1583C1534.35 1583 1484 1532.56 1484 1470.42L1484 818.576C1484 756.446 1534.35 706.004 1596.07 706L1812.56 706ZM1596.07 786.323C1578.28 786.328 1563.87 800.882 1563.87 818.576L1563.87 1470.42C1563.87 1488.12 1578.28 1502.67 1596.07 1502.68L2461.93 1502.68C2479.72 1502.67 2494.13 1488.12 2494.13 1470.42L2494.13 927.218C2494.13 909.523 2479.72 894.969 2461.93 894.965L1992.91 894.965C1962.37 894.962 1924.74 879.333 1903.11 857.619L1845.93 800.174C1842.81 797.066 1836.89 793.562 1830.26 790.799 1823.63 788.038 1816.97 786.327 1812.56 786.323L1596.07 786.323Z" stroke-width="7.7231" stroke-linecap="butt" stroke-linejoin="miter" stroke-miterlimit="8" stroke-opacity="1" fill-rule="evenodd" fill-opacity="1"/>
          <path d="M2114.43 1089.3C2121.67 1082.23 2133.42 1082.23 2140.66 1089.3L2239.57 1185.72C2246.81 1192.78 2246.81 1204.22 2239.57 1211.28L2140.66 1307.71C2133.42 1314.77 2121.67 1314.77 2114.43 1307.71 2107.19 1300.64 2107.19 1289.2 2114.43 1282.14L2200.23 1198.5 2114.43 1114.86C2107.19 1107.8 2107.19 1096.36 2114.43 1089.3Z" fill-rule="evenodd" fill-opacity="1"/>
          <path d="M1944.57 1089.3C1937.33 1082.23 1925.58 1082.23 1918.34 1089.3L1819.43 1185.72C1812.19 1192.78 1812.19 1204.22 1819.43 1211.28L1918.34 1307.71C1925.58 1314.77 1937.33 1314.77 1944.57 1307.71 1951.81 1300.64 1951.81 1289.2 1944.57 1282.14L1858.77 1198.5 1944.57 1114.86C1951.81 1107.8 1951.81 1096.36 1944.57 1089.3Z" fill-rule="evenodd" fill-opacity="1"/>
          <path d="M2058.55 1048.45C2068.55 1050.66 2074.81 1060.34 2072.53 1070.07L2010.66 1334.94C2008.39 1344.67 1998.45 1350.76 1988.45 1348.55 1978.46 1346.34 1972.19 1336.66 1974.47 1326.93L2036.34 1062.06C2038.61 1052.34 2048.55 1046.24 2058.55 1048.45Z" fill-rule="evenodd" fill-opacity="1"/>
        </g>
      </g>
    </symbol>
    <symbol xmlns="http://www.w3.org/2000/svg" xmlns:xlink="http://www.w3.org/1999/xlink" xml:space="preserve" overflow="hidden" viewBox="0 0 1105 889" id="cooking-folder">
      <g transform="translate(-1475 -701)">
        <g>
          <path d="M1812.56 706C1843.1 706.005 1880.73 721.633 1902.36 743.345L1959.54 800.753C1962.66 803.86 1968.58 807.364 1975.21 810.128 1981.84 812.889 1988.5 814.638 1992.91 814.641L2461.93 814.641C2523.65 814.646 2574 865.087 2574 927.218L2574 1470.42C2574 1532.56 2523.65 1583 2461.93 1583L1596.07 1583C1534.35 1583 1484 1532.56 1484 1470.42L1484 818.576C1484 756.446 1534.35 706.004 1596.07 706L1812.56 706ZM1596.07 786.323C1578.28 786.328 1563.87 800.882 1563.87 818.576L1563.87 1470.42C1563.87 1488.12 1578.28 1502.67 1596.07 1502.68L2461.93 1502.68C2479.72 1502.67 2494.13 1488.12 2494.13 1470.42L2494.13 927.218C2494.13 909.523 2479.72 894.969 2461.93 894.965L1992.91 894.965C1962.37 894.962 1924.74 879.333 1903.11 857.619L1845.93 800.174C1842.81 797.066 1836.89 793.562 1830.26 790.799 1823.63 788.038 1816.97 786.327 1812.56 786.323L1596.07 786.323Z" stroke-width="7.7231" stroke-linecap="butt" stroke-linejoin="miter" stroke-miterlimit="8" stroke-opacity="1" fill-rule="evenodd" fill-opacity="1"/>
          <path d="M2190 998.123 2190 1385.56C2190 1398.98 2179.06 1410 2165.62 1410L2144.34 1410C2130.92 1410 2119.96 1399.03 2119.96 1385.56L2119.96 1283.62 2089.26 1283.62C2082.95 1283.62 2078.04 1278.66 2078.17 1271.79 2076.1 1183.06 2085.6 1123.37 2102.37 1080.58 2119.65 1036.52 2144.39 1010.36 2172.21 989.244 2179.59 983.659 2189.98 989.207 2189.98 998.106 2189.99 998.112 2190 998.117 2190 998.123ZM1990.14 1092.35C1990.14 1107 1967.93 1107 1967.93 1092.35L1967.93 998.123C1967.93 983.475 1990.14 983.475 1990.14 998.123L1990.14 1092.35ZM1940.18 1092.35C1940.18 1107 1917.97 1107 1917.97 1092.35L1917.97 998.123C1917.97 983.475 1940.18 983.475 1940.18 998.123L1940.18 1092.35ZM2017.89 998.123C2016.78 1000.28 2017.89 1056.12 2017.89 1085.12 2017.89 1098.58 2013.73 1111.07 2006.63 1121.36 1988.27 1147.98 1969.44 1140.62 1969.44 1155.38L1969.44 1372.3C1969.44 1376.55 1967.72 1380.41 1964.93 1383.2L1964.91 1383.18C1958.86 1389.24 1949.2 1389.22 1943.18 1383.2L1943.19 1383.18C1940.4 1380.38 1938.66 1376.53 1938.66 1372.3 1938.67 1299.99 1938.68 1227.69 1938.68 1155.38 1938.68 1150.45 1935.49 1146.28 1931.07 1144.79 1907.3 1136.22 1890.23 1111.5 1890.23 1085.1 1890.22 1056.11 1890.22 1027.12 1890.21 998.126 1890.21 983.477 1868 983.477 1868 998.126L1868 1085.12C1868 1118.34 1887.25 1148.31 1916.47 1162.65L1916.47 1372.31C1916.47 1382.69 1920.69 1392.1 1927.5 1398.93L1927.52 1398.91C1942.26 1413.69 1965.91 1413.67 1980.61 1398.93L1980.6 1398.91C1987.41 1392.08 1991.65 1382.67 1991.65 1372.31L1991.65 1162.67C2020.87 1148.31 2040.12 1118.36 2040.12 1085.14 2040.11 1056.14 2040.11 1027.13 2040.1 998.131 2040.1 983.482 2017.89 983.482 2017.89 998.131 2017.89 998.128 2017.89 998.126 2017.89 998.123ZM2167.79 1283.62 2142.17 1283.62 2142.17 1385.54 2144.34 1387.72C2147.52 1387.72 2165.73 1388.47 2167.15 1387.07L2167.79 1385.56 2167.79 1283.62ZM2167.79 1261.36 2167.79 1021.89C2110.94 1075.05 2098.72 1159.51 2100.12 1261.36L2167.79 1261.36Z" stroke-width="13.75" stroke-linecap="butt" stroke-linejoin="miter" stroke-miterlimit="8" stroke-opacity="1" fill-rule="evenodd" fill-opacity="1"/>
        </g>
      </g>
    </symbol>
    <symbol xmlns="http://www.w3.org/2000/svg" viewBox="0 0 30 24" id="folder">
      <path d="M9.40039 0.900391C10.1907 0.900521 11.164 1.2961 11.7236 1.8457L13.2031 3.29883C13.2837 3.3775 13.4368 3.46618 13.6084 3.53613C13.78 3.60604 13.9522 3.65032 14.0664 3.65039H26.2002C27.797 3.6505 29.0996 4.92731 29.0996 6.5V20.25C29.0996 21.8227 27.797 23.0995 26.2002 23.0996H3.7998C2.20298 23.0995 0.900391 21.8227 0.900391 20.25V3.75C0.900391 2.17731 2.20298 0.900495 3.7998 0.900391H9.40039ZM14.0664 9.34961C13.9521 9.34967 13.7799 9.39317 13.6084 9.46289C13.4367 9.5327 13.2837 9.62207 13.2031 9.70117L12.6562 10.2383C12.0965 10.7878 11.1232 11.1836 10.333 11.1836H2.9668V20.25C2.9668 20.6979 3.33937 21.0663 3.7998 21.0664H26.2002C26.6606 21.0663 27.0332 20.6979 27.0332 20.25V9.34961H14.0664ZM3.7998 2.93359C3.33937 2.9337 2.9668 3.30211 2.9668 3.75V9.15039H10.333C10.4473 9.15039 10.6204 9.10689 10.792 9.03711C10.9635 8.96732 11.1158 8.87788 11.1963 8.79883L11.7432 8.26172C12.3028 7.71208 13.2761 7.31649 14.0664 7.31641H27.0332V6.5C27.0332 6.05211 26.6606 5.6837 26.2002 5.68359H14.0664C13.2761 5.68351 12.3028 5.28792 11.7432 4.73828L10.2637 3.28418C10.183 3.20552 10.03 3.11681 9.8584 3.04688C9.68688 2.977 9.51455 2.93369 9.40039 2.93359H3.7998Z" stroke-width="0.2"/>
    </symbol>
    <symbol xmlns="http://www.w3.org/2000/svg" xmlns:xlink="http://www.w3.org/1999/xlink" xml:space="preserve" overflow="hidden" viewBox="0 0 1105 889" id="geography-folder">
      <g transform="translate(-1475 -701)">
        <g>
          <path d="M1812.56 706C1843.1 706.005 1880.73 721.633 1902.36 743.345L1959.54 800.753C1962.66 803.86 1968.58 807.364 1975.21 810.128 1981.84 812.889 1988.5 814.638 1992.91 814.641L2461.93 814.641C2523.65 814.646 2574 865.087 2574 927.218L2574 1470.42C2574 1532.56 2523.65 1583 2461.93 1583L1596.07 1583C1534.35 1583 1484 1532.56 1484 1470.42L1484 818.576C1484 756.446 1534.35 706.004 1596.07 706L1812.56 706ZM1596.07 786.323C1578.28 786.328 1563.87 800.882 1563.87 818.576L1563.87 1470.42C1563.87 1488.12 1578.28 1502.67 1596.07 1502.68L2461.93 1502.68C2479.72 1502.67 2494.13 1488.12 2494.13 1470.42L2494.13 927.218C2494.13 909.523 2479.72 894.969 2461.93 894.965L1992.91 894.965C1962.37 894.962 1924.74 879.333 1903.11 857.619L1845.93 800.174C1842.81 797.066 1836.89 793.562 1830.26 790.799 1823.63 788.038 1816.97 786.327 1812.56 786.323L1596.07 786.323Z" stroke-width="7.7231" stroke-linecap="butt" stroke-linejoin="miter" stroke-miterlimit="8" stroke-opacity="1" fill-rule="evenodd" fill-opacity="1"/>
          <path d="M2007 1366C2000.93 1366 1996 1360.98 1996 1354.81L1996 1296.19C1996 1290.02 2000.93 1285 2007 1285 2013.07 1285 2018 1290.02 2018 1296.19L2018 1354.81C2018 1360.98 2013.07 1366 2007 1366Z" stroke-width="13.75" stroke-linecap="butt" stroke-linejoin="miter" stroke-miterlimit="8" stroke-opacity="1" fill-rule="evenodd" fill-opacity="1"/>
          <path d="M2088.13 1067C2085.94 1067 2083.71 1066.35 2081.78 1065.01 2076.73 1061.49 2075.48 1054.53 2078.99 1049.47L2119.71 990.798C2123.22 985.736 2130.17 984.47 2135.22 988.006 2140.27 991.525 2141.52 998.486 2138.01 1003.55L2097.29 1062.22C2095.14 1065.34 2091.66 1067 2088.13 1067Z" stroke-width="13.75" stroke-linecap="butt" stroke-linejoin="miter" stroke-miterlimit="8" stroke-opacity="1" fill-rule="evenodd" fill-opacity="1"/>
          <path d="M2029.12 1309C1998.52 1309 1969.02 1300.73 1943.13 1285.01L1938.25 1292C1934.73 1297.07 1927.79 1298.3 1922.75 1294.76 1917.73 1291.22 1916.48 1284.26 1920.01 1279.2L1931.06 1263.34C1932.75 1260.92 1935.32 1259.24 1938.24 1258.74 1941.17 1258.26 1944.13 1258.91 1946.54 1260.6 1970.82 1277.65 1999.36 1286.66 2029.1 1286.66 2108.86 1286.66 2173.75 1221.53 2173.75 1141.46 2173.75 1093.92 2150.55 1049.4 2111.7 1022.35 2106.66 1018.83 2105.39 1011.89 2108.9 1006.8 2112.4 1001.74 2119.34 1000.47 2124.38 1003.99 2169.22 1035.21 2196 1086.61 2196 1141.47 2196 1233.84 2121.12 1309 2029.11 1309Z" stroke-width="13.75" stroke-linecap="butt" stroke-linejoin="miter" stroke-miterlimit="8" stroke-opacity="1" fill-rule="evenodd" fill-opacity="1"/>
          <path d="M2051.5 1366C2045.16 1366 2040 1360.98 2040 1354.81L2040 1296.19C2040 1290.02 2045.16 1285 2051.5 1285 2057.84 1285 2063 1290.02 2063 1296.19L2063 1354.81C2063 1360.98 2057.84 1366 2051.5 1366Z" stroke-width="13.75" stroke-linecap="butt" stroke-linejoin="miter" stroke-miterlimit="8" stroke-opacity="1" fill-rule="evenodd" fill-opacity="1"/>
          <path d="M2154.89 1411C2148.77 1411 2143.79 1405.99 2143.79 1399.83L2143.79 1377.5C2143.79 1371.34 2138.81 1366.33 2132.68 1366.33L1925.33 1366.33C1919.2 1366.33 1914.22 1371.34 1914.22 1377.5L1914.22 1399.83C1914.22 1405.99 1909.24 1411 1903.11 1411 1896.98 1411 1892 1405.99 1892 1399.83L1892 1377.5C1892 1359.02 1906.94 1344 1925.32 1344L2132.68 1344C2151.06 1344 2166 1359.02 2166 1377.5L2166 1399.83C2166 1405.99 2161.02 1411 2154.89 1411Z" stroke-width="13.75" stroke-linecap="butt" stroke-linejoin="miter" stroke-miterlimit="8" stroke-opacity="1" fill-rule="evenodd" fill-opacity="1"/>
          <path d="M2206.88 1411 1851.12 1411C1844.98 1411 1840 1405.84 1840 1399.5 1840 1393.16 1844.98 1388 1851.12 1388L2206.88 1388C2213.02 1388 2218 1393.16 2218 1399.5 2218 1405.84 2213.02 1411 2206.88 1411Z" stroke-width="13.75" stroke-linecap="butt" stroke-linejoin="miter" stroke-miterlimit="8" stroke-opacity="1" fill-rule="evenodd" fill-opacity="1"/>
          <path d="M2029 1257C1965.59 1257 1914 1205.18 1914 1141.5 1914 1077.81 1965.58 1026 2029 1026 2092.42 1026 2144 1077.81 2144 1141.5 2144 1205.19 2092.42 1257 2029 1257ZM2029 1048.36C1977.86 1048.36 1936.26 1090.14 1936.26 1141.5 1936.26 1192.86 1977.86 1234.64 2029 1234.64 2080.14 1234.64 2121.74 1192.86 2121.74 1141.5 2121.74 1090.14 2080.14 1048.36 2029 1048.36Z" stroke-width="13.75" stroke-linecap="butt" stroke-linejoin="miter" stroke-miterlimit="8" stroke-opacity="1" fill-rule="evenodd" fill-opacity="1"/>
          <path d="M2025.1 1138C2009.88 1138 1999.24 1125.8 1993.85 1119.64 1993.39 1119.1 1992.85 1118.5 1992.33 1117.9 1982.89 1120.49 1966.66 1122.78 1952.84 1108.91 1948.42 1104.46 1943.27 1098.66 1937.55 1091.68 1933.62 1086.93 1934.31 1079.87 1939.07 1075.94 1943.83 1072.01 1950.86 1072.7 1954.78 1077.47 1960.08 1083.91 1964.74 1089.18 1968.67 1093.11 1975.02 1099.5 1982.16 1097.83 1990.15 1095.16 1999.49 1092.07 2005.94 1099.48 2010.66 1104.9 2020.14 1115.76 2024.12 1118.11 2032.35 1112.89 2039.51 1108.35 2043.66 1101.1 2043.71 1077.58 2043.73 1069.09 2040.22 1057.54 2033.54 1044.17 2030.79 1038.65 2033.02 1031.93 2038.52 1029.17 2044.05 1026.43 2050.74 1028.65 2053.49 1034.16 2061.82 1050.87 2066.04 1065.49 2066 1077.62 2065.96 1098.61 2063.3 1119.69 2044.29 1131.76 2037.26 1136.23 2030.85 1137.96 2025.1 1137.96Z" stroke-width="13.75" stroke-linecap="butt" stroke-linejoin="miter" stroke-miterlimit="8" stroke-opacity="1" fill-rule="evenodd" fill-opacity="1"/>
          <path d="M2071.58 1245.98C2071.28 1245.98 2070.97 1245.96 2070.65 1245.95 2064.52 1245.45 2059.95 1240.09 2060.45 1234 2061.42 1222.37 2059.51 1213.32 2055.09 1208.56 2052 1205.24 2048.42 1204.74 2046.54 1204.74 2044.35 1204.74 2041.2 1205.24 2037.87 1205.77 2027.86 1207.38 2014.14 1209.59 2000.41 1202.78 1991.43 1198.31 1986.65 1193.49 1982.81 1189.62 1979.41 1186.18 1976.72 1183.49 1970.9 1180.72 1961.71 1176.38 1954.9 1177.45 1948.12 1184.32 1943.81 1188.69 1936.75 1188.77 1932.35 1184.49 1927.95 1180.2 1927.87 1173.19 1932.18 1168.83 1945.59 1155.2 1962.75 1152.32 1980.47 1160.71 1989.85 1165.14 1994.54 1169.88 1998.69 1174.05 2002.05 1177.45 2004.7 1180.13 2010.39 1182.95 2017.66 1186.57 2026.11 1185.2 2034.32 1183.91 2038.58 1183.23 2042.59 1182.58 2046.56 1182.58 2055.94 1182.58 2065.04 1186.57 2071.48 1193.55 2077.63 1200.18 2084.58 1212.9 2082.68 1235.83 2082.2 1241.61 2077.33 1246 2071.6 1246Z" stroke-width="13.75" stroke-linecap="butt" stroke-linejoin="miter" stroke-miterlimit="8" stroke-opacity="1" fill-rule="evenodd" fill-opacity="1"/>
          <path d="M2118.02 1199.98C2114.87 1199.98 2111.76 1198.66 2109.55 1196.08 2087.47 1170.19 2080.09 1143.27 2088.19 1118.19 2092.64 1104.39 2099.89 1091.78 2109.72 1080.73 2113.8 1076.15 2120.82 1075.72 2125.42 1079.82 2130.02 1083.91 2125.58 1086.68 2126.33 1095.55 2127.09 1104.43 2133.46 1122.22 2129.96 1133.06 2124.28 1150.63 2109.44 1161.65 2126.46 1181.61 2130.45 1186.29 2129.91 1193.33 2125.24 1197.33 2123.14 1199.11 2120.57 1200 2118.03 1200 2118.03 1199.99 2118.02 1199.99 2118.02 1199.98Z" stroke-width="13.75" stroke-linecap="butt" stroke-linejoin="miter" stroke-miterlimit="8" stroke-opacity="1" fill-rule="evenodd" fill-opacity="1"/>
        </g>
      </g>
    </symbol>
    <symbol xmlns="http://www.w3.org/2000/svg" xmlns:xlink="http://www.w3.org/1999/xlink" xml:space="preserve" overflow="hidden" viewBox="0 0 1105 889" id="history-folder">
      <g transform="translate(-1475 -701)">
        <g>
          <path d="M1812.56 706C1843.1 706.005 1880.73 721.633 1902.36 743.345L1959.54 800.753C1962.66 803.86 1968.58 807.364 1975.21 810.128 1981.84 812.889 1988.5 814.638 1992.91 814.641L2461.93 814.641C2523.65 814.646 2574 865.087 2574 927.218L2574 1470.42C2574 1532.56 2523.65 1583 2461.93 1583L1596.07 1583C1534.35 1583 1484 1532.56 1484 1470.42L1484 818.576C1484 756.446 1534.35 706.004 1596.07 706L1812.56 706ZM1596.07 786.323C1578.28 786.328 1563.87 800.882 1563.87 818.576L1563.87 1470.42C1563.87 1488.12 1578.28 1502.67 1596.07 1502.68L2461.93 1502.68C2479.72 1502.67 2494.13 1488.12 2494.13 1470.42L2494.13 927.218C2494.13 909.523 2479.72 894.969 2461.93 894.965L1992.91 894.965C1962.37 894.962 1924.74 879.333 1903.11 857.619L1845.93 800.174C1842.81 797.066 1836.89 793.562 1830.26 790.799 1823.63 788.038 1816.97 786.327 1812.56 786.323L1596.07 786.323Z" stroke-width="7.7231" stroke-linecap="butt" stroke-linejoin="miter" stroke-miterlimit="8" stroke-opacity="1" fill-rule="evenodd" fill-opacity="1"/>
          <path d="M2106.99 1081.51 1952.03 1081.51C1950.56 1091.28 1945.97 1100.05 1939.29 1106.72 1933.95 1112.09 1927.24 1116.13 1919.76 1118.28L1919.76 1134.73C1929.45 1136.71 1938.12 1141.56 1944.88 1148.32 1953.85 1157.32 1959.41 1169.73 1959.41 1183.42L1959.41 1328.07 1980 1328.07 1980 1183.42C1980 1169.75 1985.58 1157.33 1994.53 1148.32 2003.5 1139.32 2015.87 1133.74 2029.5 1133.74 2043.13 1133.74 2055.5 1139.32 2064.47 1148.32 2073.44 1157.32 2079.01 1169.73 2079.01 1183.42L2079.01 1328.07 2099.6 1328.07 2099.6 1183.42C2099.6 1169.75 2105.18 1157.33 2114.13 1148.32 2120.87 1141.56 2129.55 1136.71 2139.24 1134.73L2139.24 1118.28C2131.77 1116.14 2125.06 1112.11 2119.71 1106.72 2113.06 1100.05 2108.46 1091.28 2106.97 1081.51ZM1919.76 1155.2 1919.76 1328.05 1939.69 1328.05 1939.69 1183.4C1939.69 1175.2 1936.34 1167.73 1930.94 1162.3 1927.81 1159.15 1924 1156.71 1919.76 1155.2ZM2119.33 1328.05 2139.26 1328.05 2139.26 1155.2C2135.02 1156.71 2131.21 1159.15 2128.08 1162.29 2122.66 1167.73 2119.33 1175.18 2119.33 1183.4ZM1950.69 1061.73 2108.31 1061.73C2110.48 1054.36 2114.45 1047.79 2119.71 1042.51 2127.89 1034.3 2139.23 1029.2 2151.7 1029.2 2157.15 1029.2 2161.56 1033.63 2161.56 1039.09 2161.56 1044.56 2157.15 1048.98 2151.7 1048.98 2144.64 1048.98 2138.25 1051.84 2133.63 1056.48 2129 1061.13 2126.15 1067.53 2126.15 1074.62 2126.15 1081.7 2129 1088.1 2133.63 1092.75 2137.82 1096.95 2143.45 1099.69 2149.72 1100.18L2149.84 1100.2C2150.44 1100.25 2151.06 1100.26 2151.68 1100.26 2164.54 1100.26 2176.19 1095.03 2184.62 1086.59 2193.04 1078.15 2198.25 1066.46 2198.25 1053.56 2198.25 1040.66 2193.04 1028.97 2184.62 1020.51 2176.21 1012.06 2164.56 1006.83 2151.7 1006.83L1907.27 1006.83C1894.42 1006.83 1882.76 1012.06 1874.35 1020.51 1865.92 1028.95 1860.72 1040.64 1860.72 1053.56 1860.72 1066.46 1865.93 1078.15 1874.35 1086.59 1882.76 1095.05 1894.42 1100.26 1907.27 1100.26 1907.89 1100.26 1908.51 1100.23 1909.12 1100.2L1909.24 1100.18C1915.51 1099.71 1921.14 1096.95 1925.33 1092.75 1929.96 1088.1 1932.81 1081.7 1932.81 1074.62 1932.81 1067.53 1929.96 1061.13 1925.33 1056.48 1920.7 1051.84 1914.31 1048.98 1907.26 1048.98 1901.81 1048.98 1897.4 1044.56 1897.4 1039.09 1897.4 1033.63 1901.81 1029.2 1907.26 1029.2 1919.75 1029.2 1931.06 1034.28 1939.24 1042.51 1944.51 1047.79 1948.48 1054.36 1950.64 1061.73ZM1900.03 1119.62C1884.62 1117.94 1870.81 1110.96 1860.41 1100.53 1848.41 1088.51 1841 1071.87 1841 1053.5 1841 1035.14 1848.41 1018.5 1860.41 1006.48 1872.4 994.45 1888.98 987 1907.29 987L2151.71 987C2170.02 987 2186.6 994.434 2198.59 1006.48 2210.59 1018.52 2218 1035.14 2218 1053.5 2218 1071.85 2210.59 1088.51 2198.59 1100.53 2188.19 1110.96 2174.38 1117.94 2158.97 1119.62L2158.97 1328.05 2172.07 1328.05C2177.51 1328.05 2181.92 1332.47 2181.92 1337.94L2181.92 1399.11C2181.92 1404.58 2177.51 1409 2172.07 1409L1886.93 1409C1881.48 1409 1877.08 1404.58 1877.08 1399.11L1877.08 1337.94C1877.08 1332.47 1881.48 1328.05 1886.93 1328.05L1900.03 1328.05ZM2059.27 1328.05 2059.27 1183.4C2059.27 1175.19 2055.92 1167.72 2050.52 1162.29 2045.11 1156.86 2037.68 1153.51 2029.5 1153.51 2021.32 1153.51 2013.87 1156.88 2008.46 1162.29 2003.06 1167.72 1999.71 1175.17 1999.71 1183.4L1999.71 1328.05 2059.29 1328.05ZM2162.19 1347.83 1896.77 1347.83 1896.77 1389.22 2162.19 1389.22Z" stroke-width="13.75" stroke-linecap="butt" stroke-linejoin="miter" stroke-miterlimit="8" stroke-opacity="1" fill-rule="evenodd" fill-opacity="1"/>
        </g>
      </g>
    </symbol>
    <symbol xmlns="http://www.w3.org/2000/svg" xmlns:xlink="http://www.w3.org/1999/xlink" xml:space="preserve" overflow="hidden" viewBox="0 0 1105 889" id="language-folder">
      <g transform="translate(-1475 -701)">
        <g>
          <path d="M1812.56 706C1843.1 706.005 1880.73 721.633 1902.36 743.345L1959.54 800.753C1962.66 803.86 1968.58 807.364 1975.21 810.128 1981.84 812.889 1988.5 814.638 1992.91 814.641L2461.93 814.641C2523.65 814.646 2574 865.087 2574 927.218L2574 1470.42C2574 1532.56 2523.65 1583 2461.93 1583L1596.07 1583C1534.35 1583 1484 1532.56 1484 1470.42L1484 818.576C1484 756.446 1534.35 706.004 1596.07 706L1812.56 706ZM1596.07 786.323C1578.28 786.328 1563.87 800.882 1563.87 818.576L1563.87 1470.42C1563.87 1488.12 1578.28 1502.67 1596.07 1502.68L2461.93 1502.68C2479.72 1502.67 2494.13 1488.12 2494.13 1470.42L2494.13 927.218C2494.13 909.523 2479.72 894.969 2461.93 894.965L1992.91 894.965C1962.37 894.962 1924.74 879.333 1903.11 857.619L1845.93 800.174C1842.81 797.066 1836.89 793.562 1830.26 790.799 1823.63 788.038 1816.97 786.327 1812.56 786.323L1596.07 786.323Z" stroke-width="7.7231" stroke-linecap="butt" stroke-linejoin="miter" stroke-miterlimit="8" stroke-opacity="1" fill-rule="evenodd" fill-opacity="1"/>
          <path d="M2198.43 1152.82 2075.57 1152.82 2075.57 1029.68C2075.57 1004.22 2054.9 983.5 2029.5 983.5L1860.57 983.5C1835.17 983.5 1814.5 1004.22 1814.5 1029.68L1814.5 1199C1814.5 1224.46 1835.17 1245.18 1860.57 1245.18L1983.43 1245.18 1983.43 1368.32C1983.43 1393.78 2004.1 1414.5 2029.5 1414.5L2198.43 1414.5C2223.83 1414.5 2244.5 1393.78 2244.5 1368.32L2244.5 1199C2244.5 1173.54 2223.83 1152.82 2198.43 1152.82ZM1845.21 1199 1845.21 1029.68C1845.21 1021.19 1852.11 1014.29 1860.57 1014.29L2029.5 1014.29C2037.97 1014.29 2044.86 1021.19 2044.86 1029.68L2044.86 1199C2044.86 1207.49 2037.97 1214.39 2029.5 1214.39L1860.57 1214.39C1852.11 1214.39 1845.21 1207.49 1845.21 1199ZM2213.79 1368.32C2213.79 1376.81 2206.89 1383.71 2198.43 1383.71L2029.5 1383.71C2021.03 1383.71 2014.14 1376.81 2014.14 1368.32L2014.14 1245.18 2029.5 1245.18C2054.9 1245.18 2075.57 1224.46 2075.57 1199L2075.57 1183.61 2198.43 1183.61C2206.89 1183.61 2213.79 1190.51 2213.79 1199ZM2128.08 1223.73C2125.66 1218.07 2120.11 1214.4 2113.97 1214.4 2107.82 1214.4 2102.26 1218.05 2099.86 1223.73L2053.79 1331.48C2050.45 1339.29 2054.05 1348.35 2061.85 1351.68 2069.64 1355.03 2078.68 1351.41 2082 1343.6L2091.18 1322.15 2136.75 1322.15 2145.93 1343.6C2148.42 1349.43 2154.09 1352.93 2160.04 1352.93 2162.05 1352.93 2164.11 1352.53 2166.08 1351.66 2173.88 1348.31 2177.49 1339.27 2174.15 1331.46L2128.08 1223.71ZM2104.35 1291.36 2113.97 1268.86 2123.58 1291.36ZM1995.22 1073.69C1998.14 1077.19 1999.34 1081.82 1998.54 1086.31 1995.2 1104.57 1986.5 1131.41 1963.95 1155.61 1949.7 1170.89 1931.75 1182.9 1912.06 1190.28 1910.27 1190.94 1908.45 1191.27 1906.64 1191.27 1900.42 1191.27 1894.57 1187.46 1892.26 1181.28 1889.29 1173.31 1893.3 1164.44 1901.23 1161.46 1916.55 1155.71 1930.45 1146.42 1941.48 1134.56 1952.46 1122.77 1959.2 1110.17 1963.35 1098.89L1906.64 1098.89C1898.16 1098.89 1891.29 1092 1891.29 1083.5 1891.29 1074.99 1898.16 1068.1 1906.64 1068.1L1922 1068.1 1922 1052.71C1922 1044.21 1928.87 1037.32 1937.36 1037.32 1945.84 1037.32 1952.71 1044.21 1952.71 1052.71L1952.71 1068.1 1983.43 1068.1C1988 1068.1 1992.3 1070.14 1995.22 1073.63Z" stroke-width="4.58333" stroke-linecap="butt" stroke-linejoin="miter" stroke-miterlimit="8" stroke-opacity="1" fill-rule="evenodd" fill-opacity="1"/>
        </g>
      </g>
    </symbol>
    <symbol xmlns="http://www.w3.org/2000/svg" xmlns:xlink="http://www.w3.org/1999/xlink" xml:space="preserve" overflow="hidden" viewBox="0 0 1105 889" id="math-folder">
      <g transform="translate(-1475 -701)">
        <g>
          <path d="M1812.56 706C1843.1 706.005 1880.73 721.633 1902.36 743.345L1959.54 800.753C1962.66 803.86 1968.58 807.364 1975.21 810.128 1981.84 812.889 1988.5 814.638 1992.91 814.641L2461.93 814.641C2523.65 814.646 2574 865.087 2574 927.218L2574 1470.42C2574 1532.56 2523.65 1583 2461.93 1583L1596.07 1583C1534.35 1583 1484 1532.56 1484 1470.42L1484 818.576C1484 756.446 1534.35 706.004 1596.07 706L1812.56 706ZM1596.07 786.323C1578.28 786.328 1563.87 800.882 1563.87 818.576L1563.87 1470.42C1563.87 1488.12 1578.28 1502.67 1596.07 1502.68L2461.93 1502.68C2479.72 1502.67 2494.13 1488.12 2494.13 1470.42L2494.13 927.218C2494.13 909.523 2479.72 894.969 2461.93 894.965L1992.91 894.965C1962.37 894.962 1924.74 879.333 1903.11 857.619L1845.93 800.174C1842.81 797.066 1836.89 793.562 1830.26 790.799 1823.63 788.038 1816.97 786.327 1812.56 786.323L1596.07 786.323Z" stroke-width="7.7231" stroke-linecap="butt" stroke-linejoin="miter" stroke-miterlimit="8" stroke-opacity="1" fill-rule="evenodd" fill-opacity="1"/>
          <g>
            <g>
              <g>
                <path d="M378.635 31.2564C399.592 31.2597 418.63 39.8239 432.404 53.5971 446.189 67.3832 454.74 86.4201 454.743 107.363L454.743 378.635C454.74 399.592 446.176 418.63 432.404 432.404 418.616 446.189 399.579 454.74 378.635 454.743L107.363 454.743C86.4066 454.74 67.37 446.176 53.5971 432.404 39.8107 418.616 31.2597 399.579 31.2564 378.635L31.2564 107.363C31.2597 86.4066 39.8239 67.37 53.5971 53.5971 67.3832 39.8107 86.4201 31.2597 107.363 31.2564L378.635 31.2564ZM256.255 428.301 378.635 428.301C392.268 428.301 404.692 422.709 413.725 413.69 422.736 404.675 428.301 392.243 428.301 378.601L428.301 256.221 256.255 256.221 256.255 428.301ZM57.7329 378.635C57.7361 392.264 63.3275 404.661 72.3438 413.69L72.3102 413.69C81.3261 422.705 93.7542 428.301 107.397 428.301L229.779 428.301 229.779 256.221 57.7329 256.221 57.7329 378.635ZM189.878 350.5C197.179 350.5 203.099 356.418 203.099 363.719 203.098 371.023 197.179 376.941 189.878 376.941L105.126 376.941C97.8255 376.938 91.905 371.019 91.9046 363.719 91.9046 356.418 97.8251 350.5 105.126 350.5L189.878 350.5ZM380.909 321.853C388.206 321.859 394.128 327.776 394.128 335.074 394.128 342.371 388.203 348.288 380.909 348.295L296.156 348.295C288.855 348.295 282.902 342.375 282.901 335.074 282.901 327.756 288.857 321.853 296.156 321.853L380.909 321.853ZM189.878 293.207C197.179 293.208 203.099 299.16 203.099 306.462 203.091 313.757 197.174 319.682 189.878 319.683L105.126 319.683C97.83 319.681 91.9123 313.757 91.9046 306.462 91.9046 299.161 97.8251 293.209 105.126 293.207L189.878 293.207ZM256.255 229.779 428.301 229.779 428.301 107.363C428.298 93.7379 422.705 81.3383 413.69 72.3102 404.675 63.2959 392.275 57.7024 378.635 57.6989L256.221 57.6989 256.255 229.779ZM107.397 57.6989C93.767 57.6989 81.3411 63.2921 72.3102 72.3102 63.2931 81.3268 57.6989 93.7528 57.6989 107.397L57.7329 229.779 229.779 229.779 229.779 57.6989 107.397 57.6989ZM147.502 95.2948C154.82 95.2948 160.757 101.25 160.757 108.55L160.757 137.671 189.878 137.671C197.18 137.671 203.133 143.623 203.133 150.926 203.128 158.239 197.174 164.147 189.878 164.147L160.757 164.147 160.757 193.302C160.754 200.601 154.802 206.523 147.502 206.523 140.205 206.519 134.284 200.599 134.28 193.302L134.28 164.147 105.126 164.147C97.8283 164.145 91.9098 158.222 91.9046 150.926 91.9046 143.625 97.8251 137.673 105.126 137.671L134.28 137.671 134.28 108.55C134.28 101.25 140.203 95.2986 147.502 95.2948ZM361.212 109.906C366.347 106.521 373.331 107.091 377.858 111.601 383.006 116.771 383.009 125.145 377.858 130.314L357.245 150.892 377.858 171.537C383.002 176.696 382.996 185.052 377.858 190.216L377.858 190.25C372.689 195.401 364.316 195.396 359.143 190.25L338.532 169.605 317.92 190.25C312.75 195.398 304.376 195.4 299.207 190.25L299.207 190.216C294.062 185.047 294.061 176.706 299.207 171.537L319.785 150.892 299.207 130.314C294.046 125.153 294.057 116.769 299.207 111.601L301.275 109.906C306.412 106.516 313.393 107.089 317.92 111.601L338.532 132.212 359.143 111.601 361.212 109.906Z" stroke-width="6.94285" stroke-linecap="butt" stroke-linejoin="miter" stroke-miterlimit="4" stroke-opacity="1" fill-rule="nonzero" fill-opacity="1" transform="matrix(1 0 0 1.00206 1786 955)"/>
              </g>
            </g>
          </g>
        </g>
      </g>
    </symbol>
    <symbol xmlns="http://www.w3.org/2000/svg" xmlns:xlink="http://www.w3.org/1999/xlink" xml:space="preserve" overflow="hidden" viewBox="0 0 1105 889" id="physics-folder">
      <g transform="translate(-1475 -701)">
        <g>
          <path d="M1812.56 706C1843.1 706.005 1880.73 721.633 1902.36 743.345L1959.54 800.753C1962.66 803.86 1968.58 807.364 1975.21 810.128 1981.84 812.889 1988.5 814.638 1992.91 814.641L2461.93 814.641C2523.65 814.646 2574 865.087 2574 927.218L2574 1470.42C2574 1532.56 2523.65 1583 2461.93 1583L1596.07 1583C1534.35 1583 1484 1532.56 1484 1470.42L1484 818.576C1484 756.446 1534.35 706.004 1596.07 706L1812.56 706ZM1596.07 786.323C1578.28 786.328 1563.87 800.882 1563.87 818.576L1563.87 1470.42C1563.87 1488.12 1578.28 1502.67 1596.07 1502.68L2461.93 1502.68C2479.72 1502.67 2494.13 1488.12 2494.13 1470.42L2494.13 927.218C2494.13 909.523 2479.72 894.969 2461.93 894.965L1992.91 894.965C1962.37 894.962 1924.74 879.333 1903.11 857.619L1845.93 800.174C1842.81 797.066 1836.89 793.562 1830.26 790.799 1823.63 788.038 1816.97 786.327 1812.56 786.323L1596.07 786.323Z" stroke-width="7.7231" stroke-linecap="butt" stroke-linejoin="miter" stroke-miterlimit="8" stroke-opacity="1" fill-rule="evenodd" fill-opacity="1"/>
          <path d="M2221.24 1007.63C2246.14 1032.36 2245.4 1076.48 2223.99 1127.82 2213.35 1152.64 2200.19 1176.32 2184.72 1198.5 2200.19 1220.68 2213.36 1244.37 2224 1269.2 2245.4 1320.53 2246.16 1364.66 2221.24 1389.37 2196.31 1414.08 2151.89 1413.36 2100.18 1392.11 2075.19 1381.54 2051.34 1368.47 2029 1353.12 2006.66 1368.48 1982.8 1381.55 1957.8 1392.12 1906.09 1413.36 1861.65 1414.12 1836.76 1389.37 1811.87 1364.62 1812.6 1320.53 1833.99 1269.2 1844.64 1244.37 1857.8 1220.68 1873.28 1198.5 1857.81 1176.32 1844.64 1152.63 1834 1127.8 1812.6 1076.47 1811.84 1032.34 1836.76 1007.63 1861.69 982.917 1906.11 983.637 1957.82 1004.89 1982.81 1015.46 2006.66 1028.53 2029 1043.88 2051.34 1028.52 2075.2 1015.46 2100.2 1004.88 2151.91 983.637 2196.35 982.88 2221.24 1007.63ZM2029 1148.92C2001.42 1148.91 1979.06 1171.11 1979.06 1198.49 1979.05 1225.88 2001.41 1248.08 2028.99 1248.08 2056.57 1248.09 2078.93 1225.89 2078.93 1198.51 2078.93 1185.35 2073.67 1172.74 2064.3 1163.43 2054.95 1154.13 2042.24 1148.9 2029 1148.92ZM2046.72 1180.91C2036.91 1171.19 2021.02 1171.2 2011.23 1180.94 2001.44 1190.68 2001.46 1206.46 2011.27 1216.18 2021.08 1225.9 2036.97 1225.88 2046.76 1216.14 2051.46 1211.46 2054.1 1205.11 2054.09 1198.5 2054.09 1191.9 2051.43 1185.56 2046.72 1180.91ZM2169.3 1219.83C2152.31 1242.05 2133.81 1263.09 2113.91 1282.79 2094.06 1302.55 2072.87 1320.93 2050.48 1337.8 2069.16 1350.12 2088.95 1360.7 2109.6 1369.39 2151.85 1386.74 2186.55 1388.97 2203.68 1371.95 2220.81 1354.94 2218.58 1320.49 2201.11 1278.54 2192.35 1258.04 2181.7 1238.38 2169.3 1219.83ZM1888.7 1177.17C1922.78 1132.72 1962.75 1093.03 2007.52 1059.2 1988.84 1046.88 1969.05 1036.3 1948.4 1027.61 1906.15 1010.26 1871.45 1008.03 1854.32 1025.05 1837.19 1042.06 1839.42 1076.51 1856.89 1118.46 1865.65 1138.96 1876.3 1158.62 1888.7 1177.17ZM2007.52 1337.8C1985.14 1320.94 1963.95 1302.56 1944.1 1282.8 1924.2 1263.1 1905.69 1242.06 1888.7 1219.83 1876.29 1238.38 1865.64 1258.03 1856.88 1278.53 1839.41 1320.48 1837.17 1354.93 1854.31 1371.94 1871.44 1388.95 1906.13 1386.73 1948.39 1369.38 1969.04 1360.69 1988.83 1350.12 2007.52 1337.8ZM2050.48 1059.2C2072.86 1076.06 2094.05 1094.44 2113.9 1114.2 2133.8 1133.9 2152.31 1154.94 2169.3 1177.17 2181.71 1158.62 2192.36 1138.97 2201.12 1118.47 2218.59 1076.52 2220.83 1042.07 2203.69 1025.06 2186.56 1008.05 2151.87 1010.27 2109.61 1027.62 2088.96 1036.31 2069.17 1046.88 2050.48 1059.2ZM2154.4 1198.5C2136.78 1174.78 2117.38 1152.43 2096.35 1131.63 2075.4 1110.75 2052.89 1091.48 2029 1073.99 1981.23 1109.11 1938.97 1151.07 1903.6 1198.5 1921.22 1222.22 1940.62 1244.57 1961.65 1265.37 1982.6 1286.25 2005.11 1305.52 2029 1323.01 2052.89 1305.52 2075.4 1286.25 2096.35 1265.37 2117.38 1244.57 2136.78 1222.22 2154.4 1198.5Z" stroke-width="13.75" stroke-linecap="butt" stroke-linejoin="miter" stroke-miterlimit="8" stroke-opacity="1" fill-rule="evenodd" fill-opacity="1"/>
        </g>
      </g>
    </symbol>
    <symbol xmlns="http://www.w3.org/2000/svg" xmlns:xlink="http://www.w3.org/1999/xlink" xml:space="preserve" overflow="hidden" viewBox="0 0 1105 889" id="social-studies-folder">
      <g transform="translate(-1475 -701)">
        <g>
          <path d="M1812.56 706C1843.1 706.005 1880.73 721.633 1902.36 743.345L1959.54 800.753C1962.66 803.86 1968.58 807.364 1975.21 810.128 1981.84 812.889 1988.5 814.638 1992.91 814.641L2461.93 814.641C2523.65 814.646 2574 865.087 2574 927.218L2574 1470.42C2574 1532.56 2523.65 1583 2461.93 1583L1596.07 1583C1534.35 1583 1484 1532.56 1484 1470.42L1484 818.576C1484 756.446 1534.35 706.004 1596.07 706L1812.56 706ZM1596.07 786.323C1578.28 786.328 1563.87 800.882 1563.87 818.576L1563.87 1470.42C1563.87 1488.12 1578.28 1502.67 1596.07 1502.68L2461.93 1502.68C2479.72 1502.67 2494.13 1488.12 2494.13 1470.42L2494.13 927.218C2494.13 909.523 2479.72 894.969 2461.93 894.965L1992.91 894.965C1962.37 894.962 1924.74 879.333 1903.11 857.619L1845.93 800.174C1842.81 797.066 1836.89 793.562 1830.26 790.799 1823.63 788.038 1816.97 786.327 1812.56 786.323L1596.07 786.323Z" stroke-width="7.7231" stroke-linecap="butt" stroke-linejoin="miter" stroke-miterlimit="8" stroke-opacity="1" fill-rule="evenodd" fill-opacity="1"/>
          <path d="M2031.25 1057.5C1992.62 1057.5 1961.06 1087.74 1961.06 1124.58 1961.06 1161.42 1992.62 1191.56 2031.25 1191.56 2069.89 1191.56 2101.42 1161.42 2101.42 1124.58 2101.42 1087.74 2069.89 1057.5 2031.25 1057.5ZM2031.25 1081.64C2056.13 1081.64 2076.07 1100.73 2076.07 1124.58 2076.07 1148.42 2056.13 1167.43 2031.25 1167.43 2006.37 1167.43 1986.42 1148.42 1986.42 1124.58 1986.42 1100.73 2006.37 1081.64 2031.25 1081.64ZM1895.75 1125.73C1866.33 1125.73 1842.22 1148.76 1842.22 1176.79 1842.22 1204.81 1866.33 1227.81 1895.75 1227.81 1925.17 1227.81 1949.28 1204.81 1949.28 1176.79 1949.28 1148.76 1925.17 1125.73 1895.75 1125.73ZM2164.16 1125.83C2135.36 1126.53 2111.99 1149.2 2111.99 1176.79 2111.99 1204.81 2136.1 1227.82 2165.52 1227.82 2194.94 1227.82 2219.05 1204.81 2219.05 1176.79 2219.05 1148.76 2194.94 1125.83 2165.52 1125.83 2165.06 1125.83 2164.61 1125.82 2164.16 1125.83ZM1895.75 1149.87C1911.44 1149.87 1923.9 1161.77 1923.9 1176.79 1923.9 1191.8 1911.44 1203.68 1895.75 1203.68 1880.06 1203.68 1867.57 1191.8 1867.57 1176.79 1867.57 1161.77 1880.06 1149.87 1895.75 1149.87ZM2165.52 1149.87C2181.21 1149.87 2193.7 1161.77 2193.7 1176.79 2193.7 1191.8 2181.21 1203.68 2165.52 1203.68 2149.83 1203.68 2137.34 1191.8 2137.34 1176.79 2137.34 1161.77 2149.83 1149.87 2165.52 1149.87ZM2029 1201.18C1991.33 1201.18 1958.15 1219.55 1938.73 1247.4 1925.95 1239.35 1910.6 1234.67 1894.16 1234.67L1894.14 1234.67C1849.67 1234.67 1813.5 1269.17 1813.5 1311.56L1813.5 1328.48C1813.53 1335.14 1819.23 1340.53 1826.23 1340.5 1826.23 1340.5 1826.23 1340.5 1826.23 1340.5 1833.19 1340.47 1838.83 1335.11 1838.85 1328.48L1838.85 1311.56C1838.85 1282.1 1863.31 1258.83 1894.14 1258.83 1906.62 1258.83 1918.01 1262.62 1927.19 1269.13 1922.96 1280.2 1920.63 1292.14 1920.63 1304.6L1920.63 1328.48C1920.66 1335.14 1926.36 1340.53 1933.36 1340.5 1933.36 1340.5 1933.36 1340.5 1933.36 1340.5 1940.32 1340.47 1945.96 1335.11 1945.98 1328.48L1945.98 1304.6C1945.98 1292.9 1948.56 1281.83 1953.21 1271.89 1953.23 1271.86 1953.25 1271.83 1953.26 1271.79 1953.67 1271.16 1954.01 1270.49 1954.28 1269.79 1954.29 1269.77 1954.3 1269.74 1954.3 1269.72 1967.7 1243.3 1995.95 1225.32 2029 1225.32 2062.35 1225.32 2090.8 1243.62 2104.04 1270.43 2104.2 1270.79 2104.37 1271.14 2104.56 1271.49 2109.34 1281.54 2111.99 1292.74 2111.99 1304.6L2111.99 1328.48C2112.02 1335.14 2117.72 1340.53 2124.72 1340.5 2131.68 1340.47 2137.32 1335.11 2137.34 1328.48L2137.34 1304.6C2137.34 1292.16 2135.06 1280.23 2130.83 1269.18 2140.03 1262.64 2151.43 1258.81 2163.93 1258.81 2194.76 1258.81 2219.25 1282.1 2219.25 1311.56L2219.25 1328.48C2219.27 1335.11 2224.91 1340.47 2231.87 1340.5 2238.84 1340.47 2244.47 1335.11 2244.5 1328.48L2244.5 1311.56C2244.5 1269.17 2208.4 1234.67 2163.93 1234.67 2147.48 1234.67 2132.09 1239.35 2119.3 1247.42 2099.88 1219.55 2066.69 1201.18 2029 1201.18Z" stroke-width="9.16667" stroke-linecap="round" stroke-linejoin="round" stroke-miterlimit="10" stroke-opacity="1" fill-rule="evenodd" fill-opacity="1"/>
        </g>
      </g>
    </symbol>
</svg>