<!-- Cleaned by SVG Sprite Color Stripper: colors removed -->
<svg width="0" height="0" class="hidden">
    <symbol xmlns="http://www.w3.org/2000/svg" viewBox="0 0 286 231" id="biology-folder">
      <path fill-rule="evenodd" clip-rule="evenodd" d="M86.2093 0C94.2226 0.00131141 104.096 4.10024 109.772 9.7949L124.775 24.852C125.593 25.6669 127.147 26.5859 128.886 27.3109C130.626 28.035 132.373 28.4938 133.531 28.4945H256.594C272.789 28.4959 286 41.7256 286 58.0214V200.493C286 216.792 272.789 230.021 256.594 230.021H29.4055C13.2111 230.021 0 216.792 0 200.493V29.5266C0 13.2311 13.2111 0.00104913 29.4055 0H86.2093ZM29.4055 21.0673C24.7377 21.0686 20.9567 24.8858 20.9567 29.5266V200.493C20.9567 205.136 24.7377 208.952 29.4055 208.955H256.594C261.262 208.952 265.043 205.136 265.043 200.493V58.0214C265.043 53.3804 261.262 49.5631 256.594 49.5621H133.531C125.517 49.5613 115.644 45.4621 109.968 39.7669L94.9651 24.7001C94.1465 23.8849 92.5932 22.9659 90.8535 22.2412C89.1139 21.5171 87.3665 21.0683 86.2093 21.0673H29.4055Z"/>
      <path fill-rule="evenodd" clip-rule="evenodd" d="M183.295 103.095C187.427 99.0479 194.144 99.0479 198.282 103.095C202.415 107.142 202.415 113.717 198.282 117.77L187.645 128.177C179.172 136.478 167.475 140.827 155.511 140.14L129.768 138.658C123.848 138.314 118.058 140.467 113.862 144.575L103.23 154.99C99.0977 159.037 92.3807 159.037 88.2428 154.99C84.1103 150.943 84.1103 144.368 88.2428 140.318L98.8799 129.908C107.352 121.607 119.049 117.258 131.014 117.945L156.757 119.427C162.676 119.771 168.467 117.618 172.663 113.51L183.295 103.095ZM188.776 108.461L178.139 118.871C172.379 124.51 164.434 127.469 156.3 127.005L130.56 125.517C120.805 124.956 111.27 128.507 104.361 135.274L93.724 145.684C92.6141 146.77 92.6141 148.535 93.724 149.624C94.8366 150.712 96.6392 150.712 97.7491 149.624L108.386 139.214C114.145 133.575 122.093 130.616 130.224 131.08L155.967 132.568C165.72 133.129 175.255 129.578 182.164 122.811L192.801 112.401C193.911 111.315 193.911 109.55 192.801 108.461C191.688 107.375 189.886 107.375 188.776 108.461Z" stroke-width="2" stroke-miterlimit="10" stroke-linejoin="round"/>
      <path fill-rule="evenodd" clip-rule="evenodd" d="M133 136.426C132.869 134.343 134.509 132.555 136.653 132.434C138.802 132.308 140.644 133.9 140.767 135.983L141.127 141.845C141.604 149.779 138.568 157.529 132.783 163.15L122.101 173.528C120.986 174.612 120.986 176.371 122.101 177.455C123.216 178.538 125.029 178.538 126.144 177.455L136.823 167.076C143.769 160.338 147.411 151.032 146.833 141.517L146.519 136.324C146.393 134.239 148.027 132.45 150.176 132.327C152.32 132.206 154.162 133.795 154.288 135.88L154.603 141.074C155.308 152.748 150.845 164.157 142.331 172.424L131.649 182.803C127.493 186.834 120.747 186.834 116.596 182.803C112.443 178.766 112.443 172.212 116.596 168.18L127.28 157.807C131.494 153.713 133.706 148.063 133.352 142.288L133 136.426Z" stroke-width="2" stroke-miterlimit="10" stroke-linejoin="round"/>
      <path fill-rule="evenodd" clip-rule="evenodd" d="M153.33 120.854C153.453 122.942 151.829 124.736 149.696 124.862C147.566 124.985 145.734 123.388 145.611 121.297L145.312 116.374C144.837 108.417 147.854 100.64 153.603 95.0036L164.217 84.5937C165.324 83.5078 165.324 81.7427 164.217 80.6568C163.107 79.5683 161.307 79.5683 160.199 80.6568L149.586 91.0668C142.688 97.8258 139.067 107.158 139.639 116.702L139.943 121.748C140.069 123.836 138.445 125.63 136.309 125.759C134.179 125.879 132.35 124.282 132.224 122.194L131.922 117.148C131.219 105.44 135.653 93.9938 144.115 85.7005L154.729 75.2918C158.859 71.2474 165.563 71.2474 169.687 75.2918C173.812 79.3428 173.812 85.9129 169.687 89.9573L159.068 100.362C154.883 104.469 152.687 110.135 153.036 115.928L153.33 120.854Z" stroke-width="2" stroke-miterlimit="10" stroke-linejoin="round"/>
      <path fill-rule="evenodd" clip-rule="evenodd" d="M185.808 105.157C187.33 106.631 187.33 109.02 185.808 110.494C184.294 111.971 181.823 111.971 180.306 110.494L162.115 92.861C160.593 91.3922 160.593 88.9975 162.115 87.5287C163.634 86.0521 166.1 86.0521 167.622 87.5287L185.808 105.157Z" stroke-width="2" stroke-miterlimit="10" stroke-linejoin="round"/>
      <path fill-rule="evenodd" clip-rule="evenodd" d="M134.921 154.665C136.422 156.155 136.422 158.57 134.921 160.057C133.415 161.544 130.975 161.544 129.469 160.057L111.459 142.238C109.958 140.748 109.958 138.333 111.459 136.843C112.965 135.361 115.405 135.361 116.911 136.843L134.921 154.665Z" stroke-width="2" stroke-miterlimit="10" stroke-linejoin="round"/>
      <path fill-rule="evenodd" clip-rule="evenodd" d="M174.804 115.65C176.305 117.127 176.305 119.516 174.804 120.99C173.298 122.459 170.857 122.459 169.351 120.99L151.341 103.355C149.84 101.881 149.84 99.4886 151.341 98.0145C152.847 96.5458 155.288 96.5458 156.794 98.0145L174.804 115.65Z" stroke-width="2" stroke-miterlimit="10" stroke-linejoin="round"/>
      <path fill-rule="evenodd" clip-rule="evenodd" d="M124.161 165.224C125.664 166.693 125.664 169.088 124.161 170.557C122.655 172.033 120.214 172.033 118.708 170.557L100.704 152.929C99.2 151.455 99.2 149.065 100.704 147.591C102.204 146.117 104.65 146.117 106.151 147.591L124.161 165.224Z" stroke-width="2" stroke-miterlimit="10" stroke-linejoin="round"/>
    </symbol>
    <symbol xmlns="http://www.w3.org/2000/svg" viewBox="0 0 287 289" id="biology-link">
      <path fill-rule="evenodd" clip-rule="evenodd" d="M242.343 78.5909C252.547 68.3634 269.129 68.3634 279.347 78.5909C289.551 88.8185 289.551 105.438 279.347 115.679L253.083 141.989C232.164 162.968 203.285 173.963 173.743 172.224L110.182 168.478C95.5646 167.609 81.2656 173.055 70.9081 183.436L44.6572 209.759C34.4528 219.987 17.8705 219.987 7.65333 209.759C-2.55111 199.532 -2.55111 182.912 7.65333 172.672L33.917 146.361C54.8361 125.382 83.7147 114.387 113.257 116.126L176.818 119.872C191.435 120.741 205.734 115.295 216.092 104.914L242.343 78.5909ZM255.876 92.1552L229.613 118.466C215.39 132.72 195.772 140.199 175.695 139.023L112.134 135.264C88.0516 133.845 64.5048 142.82 47.4507 159.926L21.187 186.236C18.4445 188.985 18.4445 193.446 21.187 196.195C23.9294 198.944 28.3811 198.944 31.1236 196.195L57.3872 169.885C71.6097 155.63 91.2277 148.151 111.305 149.327L174.866 153.086C198.948 154.505 222.495 145.53 239.549 128.425L265.813 102.114C268.555 99.3657 268.555 94.9039 265.813 92.1552C263.071 89.4066 258.619 89.4066 255.876 92.1552Z"/>
      <path fill-rule="evenodd" clip-rule="evenodd" d="M118.384 162.7C118.065 157.42 122.096 152.881 127.364 152.574C132.645 152.255 137.173 156.295 137.479 161.575L138.36 176.443C139.533 196.566 132.071 216.228 117.849 230.483L91.5977 256.806C88.8552 259.555 88.8552 264.016 91.5977 266.765C94.3401 269.514 98.7918 269.514 101.534 266.765L127.785 240.442C144.852 223.349 153.807 199.749 152.391 175.612L151.613 162.444C151.306 157.151 155.324 152.613 160.605 152.306C165.873 151.999 170.402 156.026 170.708 161.319L171.486 174.487C173.22 204.096 162.251 233.04 141.319 254.006L115.068 280.329C104.851 290.557 88.2685 290.557 78.064 280.329C67.8596 270.089 67.8596 253.469 78.064 243.242L104.328 216.931C114.685 206.55 120.119 192.219 119.252 177.568L118.384 162.7Z"/>
      <path fill-rule="evenodd" clip-rule="evenodd" d="M168.475 123.234C168.782 128.514 164.764 133.053 159.483 133.372C154.215 133.679 149.686 129.639 149.38 124.359L148.641 111.907C147.467 91.7844 154.929 72.122 169.151 57.8673L195.402 31.5442C198.145 28.7955 198.145 24.3338 195.402 21.5851C192.66 18.8365 188.208 18.8365 185.466 21.5851L159.215 47.9083C142.148 65.0011 133.194 88.6011 134.609 112.738L135.362 125.497C135.668 130.777 131.65 135.315 126.369 135.635C121.101 135.942 116.573 131.902 116.267 126.622L115.514 113.863C113.78 84.2544 124.749 55.3104 145.681 34.344L171.932 8.02082C182.149 -2.20673 198.732 -2.20673 208.936 8.02082C219.14 18.2612 219.14 34.8809 208.936 45.1085L182.672 71.4188C172.315 81.7998 166.881 96.1311 167.748 110.782L168.475 123.234Z"/>
      <path fill-rule="evenodd" clip-rule="evenodd" d="M248.606 83.628C252.343 87.3739 252.343 93.4465 248.606 97.1923C244.881 100.938 238.81 100.938 235.085 97.1923L190.377 52.3829C186.639 48.6498 186.639 42.5644 190.377 38.8314C194.114 35.0855 200.173 35.0855 203.91 38.8314L248.606 83.628Z"/>
      <path fill-rule="evenodd" clip-rule="evenodd" d="M123.448 209.082C127.173 212.827 127.173 218.9 123.448 222.646C119.711 226.379 113.652 226.379 109.915 222.646L65.2064 177.837C61.4817 174.091 61.4817 168.018 65.2064 164.272C68.9437 160.539 75.0026 160.539 78.74 164.272L123.448 209.082Z"/>
      <path fill-rule="evenodd" clip-rule="evenodd" d="M221.794 110.514C225.518 114.259 225.518 120.332 221.794 124.078C218.056 127.811 211.997 127.811 208.26 124.078L163.552 79.2685C159.827 75.5227 159.827 69.4501 163.552 65.7042C167.289 61.9712 173.348 61.9712 177.085 65.7042L221.794 110.514Z"/>
      <path fill-rule="evenodd" clip-rule="evenodd" d="M96.6233 235.967C100.361 239.7 100.361 245.786 96.6233 249.519C92.886 253.265 86.8271 253.265 83.0897 249.519L38.3942 204.722C34.6568 200.976 34.6568 194.904 38.3942 191.158C42.1188 187.412 48.1905 187.412 51.9151 191.158L96.6233 235.967Z"/>
      <path d="M247.279 213.229C244.488 216.02 244.488 220.512 247.279 223.303C250.07 226.094 254.562 226.094 257.353 223.303L276.368 204.289C282.939 197.739 286.531 189 286.531 179.726C286.531 170.441 282.917 161.735 276.368 155.163C269.818 148.592 261.079 145 251.805 145C242.52 145 233.814 148.614 227.242 155.163L199.999 182.406C193.428 188.955 189.836 197.695 189.836 206.969C189.836 216.253 193.45 224.96 199.999 231.531C201.389 232.921 203.213 233.611 205.036 233.611C206.86 233.611 208.684 232.933 210.073 231.531C212.864 228.741 212.864 224.248 210.073 221.457C206.204 217.588 204.069 212.428 204.069 206.969C204.069 201.498 206.204 196.349 210.073 192.48L237.316 165.237C241.186 161.368 246.345 159.233 251.805 159.233C257.275 159.233 262.424 161.368 266.293 165.237C270.163 169.107 272.298 174.267 272.298 179.726C272.298 185.197 270.163 190.345 266.293 194.215L247.279 213.229Z"/>
      <path d="M182.252 220.277C185.043 217.486 185.043 212.994 182.252 210.203C179.461 207.411 174.969 207.412 172.177 210.203L153.163 229.217C146.592 235.766 143 244.506 143 253.78C143 263.064 146.614 271.771 153.163 278.343C159.713 284.914 168.452 288.506 177.726 288.506C187.011 288.506 195.717 284.892 202.289 278.343L229.532 251.1C236.103 244.551 239.695 235.811 239.695 226.537C239.695 217.252 236.081 208.546 229.532 201.974C226.741 199.183 222.248 199.183 219.457 201.974C216.666 204.765 216.666 209.257 219.457 212.049C223.327 215.918 225.462 221.078 225.462 226.537C225.462 232.008 223.327 237.156 219.457 241.026L192.215 268.268C188.345 272.138 183.185 274.273 177.726 274.273C172.255 274.273 167.107 272.138 163.237 268.268C159.368 264.399 157.233 259.239 157.233 253.78C157.233 248.309 159.368 243.161 163.237 239.291L182.252 220.277Z"/>
    </symbol>
    <symbol xmlns="http://www.w3.org/2000/svg" viewBox="0 0 287 230" id="chemistry-folder">
      <path fill-rule="evenodd" clip-rule="evenodd" d="M86.2284 0C94.2435 0.00131046 104.119 4.09728 109.796 9.78783L124.802 24.834C125.621 25.6483 127.175 26.5667 128.915 27.2911C130.655 28.0148 132.403 28.4732 133.56 28.474H256.651C272.849 28.4753 286.063 41.6955 286.063 57.9795V200.349C286.063 216.635 272.849 229.855 256.651 229.855H29.412C13.214 229.855 0 216.635 0 200.349V29.5053C0 13.2215 13.214 0.00104837 29.412 0H86.2284ZM29.412 21.052C24.7432 21.0533 20.9614 24.8678 20.9614 29.5053V200.349C20.9614 204.988 24.7432 208.801 29.412 208.804H256.651C261.32 208.801 265.102 204.988 265.102 200.349V57.9795C265.102 53.3418 261.32 49.5273 256.651 49.5263H133.56C125.545 49.5255 115.669 45.4292 109.993 39.7382L94.9862 24.6823C94.1674 23.8677 92.6137 22.9493 90.8737 22.2252C89.1337 21.5015 87.3858 21.0531 86.2284 21.052H29.412Z"/>
      <path fill-rule="evenodd" clip-rule="evenodd" d="M128.521 110.191L97.07 167.076C94.7788 171.222 94.8497 176.53 97.2458 180.608C99.1433 183.837 102.18 185.692 105.571 185.692H180.753C184.143 185.692 187.18 183.837 189.083 180.603C191.479 176.53 191.544 171.217 189.256 167.076L157.802 110.191C157.353 109.376 157.101 108.346 157.101 107.295V80.5567H162.03C164.261 80.5567 166.066 78.7456 166.066 76.5121C166.066 74.278 164.261 72.4685 162.03 72.4685H123.687C121.456 72.4685 119.651 74.278 119.651 76.5121C119.651 78.7456 121.456 80.5567 123.687 80.5567H129.217V107.29C129.222 108.346 128.973 109.376 128.519 110.191H128.521ZM137.295 107.29V80.5567H149.034V107.29C149.034 109.725 149.624 112.081 150.745 114.104L164.468 138.917C156.007 140.741 149.787 143.577 143.777 146.352C135.371 150.234 127.369 153.919 113.092 154.8L117.834 146.227H132.749C134.977 146.227 136.786 144.415 136.786 142.182C136.786 139.947 134.977 138.138 132.749 138.138H122.293L126.765 130.05H136.786C139.014 130.05 140.819 128.242 140.819 126.006C140.819 123.773 139.014 121.965 136.786 121.965H131.24L135.584 114.11C136.704 112.086 137.295 109.728 137.295 107.29ZM182.125 176.498C181.931 176.831 181.406 177.604 180.755 177.604H105.571C104.92 177.604 104.39 176.831 104.198 176.498C103.426 175.182 103.072 172.905 104.127 170.994L108.518 163.058C127.516 162.738 137.507 158.154 147.147 153.707C153.577 150.74 159.715 147.933 168.57 146.352L182.196 170.994C183.246 172.905 182.899 175.182 182.125 176.498Z" stroke-width="3.4061" stroke-miterlimit="8"/>
    </symbol>
    <symbol xmlns="http://www.w3.org/2000/svg" viewBox="0 0 265 288" id="chemistry-link">
      <path fill-rule="evenodd" clip-rule="evenodd" d="M84.2553 95.6193L4.24943 239.812C-1.57689 250.318 -1.39751 263.771 4.69861 274.111C9.52419 282.298 17.2498 287 25.8739 287H150.5L138.136 266.499H25.8755C24.22 266.499 22.8725 264.538 22.3848 263.693C20.4212 260.361 19.5229 254.583 22.2051 249.74L33.3702 229.624C81.7016 228.817 107.111 217.196 131.636 205.921C147.986 198.4 163.605 191.289 186.128 187.279L198.741 167.716L158.739 95.6197C157.596 93.5568 156.955 90.943 156.955 88.278V20.5H169.493C175.166 20.5 179.76 15.9133 179.76 10.25C179.76 4.58676 175.166 0 169.493 0H71.9563C66.2837 0 61.6895 4.58676 61.6895 10.25C61.6895 15.9133 66.2837 20.5 71.9563 20.5H86.0217V88.2649C86.0346 90.9427 85.4057 93.5565 84.2507 95.6193H84.2553ZM106.573 20.5V88.2649C106.573 94.4405 105.069 100.425 102.22 105.55L91.1704 125.46H105.275C110.947 125.46 115.541 130.047 115.541 135.71C115.541 141.373 110.947 145.96 105.275 145.96H79.7872L68.4167 166.46H95.0081C100.681 166.46 105.275 171.047 105.275 176.71C105.275 182.373 100.681 186.96 95.0081 186.96H57.0716L45.008 208.69C81.328 206.461 101.682 197.121 123.062 187.281C138.349 180.247 154.172 173.059 175.694 168.433L140.787 105.536C137.938 100.411 136.437 94.4405 136.437 88.2649V20.5H106.573Z"/>
      <path d="M225.279 212.229C222.488 215.02 222.488 219.512 225.279 222.303C228.07 225.094 232.562 225.094 235.353 222.303L254.368 203.289C260.939 196.739 264.531 188 264.531 178.726C264.531 169.441 260.917 160.735 254.368 154.163C247.818 147.592 239.079 144 229.805 144C220.52 144 211.814 147.614 205.242 154.163L177.999 181.406C171.428 187.955 167.836 196.695 167.836 205.969C167.836 215.253 171.45 223.96 177.999 230.531C179.389 231.921 181.213 232.611 183.036 232.611C184.86 232.611 186.684 231.933 188.073 230.531C190.864 227.741 190.864 223.248 188.073 220.457C184.204 216.588 182.069 211.428 182.069 205.969C182.069 200.498 184.204 195.349 188.073 191.48L215.316 164.237C219.186 160.368 224.345 158.233 229.805 158.233C235.275 158.233 240.424 160.368 244.293 164.237C248.163 168.107 250.298 173.267 250.298 178.726C250.298 184.197 248.163 189.345 244.293 193.215L225.279 212.229Z"/>
      <path d="M160.252 219.277C163.043 216.486 163.043 211.994 160.252 209.203C157.461 206.412 152.969 206.412 150.177 209.203L131.163 228.217C124.592 234.766 121 243.506 121 252.78C121 262.064 124.614 270.771 131.163 277.343C137.713 283.914 146.452 287.506 155.726 287.506C165.011 287.506 173.717 283.892 180.289 277.343L207.531 250.1C214.103 243.551 217.695 234.811 217.695 225.537C217.695 216.252 214.081 207.546 207.531 200.974C204.741 198.183 200.248 198.183 197.457 200.974C194.666 203.765 194.666 208.258 197.457 211.049C201.327 214.918 203.462 220.078 203.462 225.537C203.462 231.008 201.327 236.156 197.457 240.026L170.215 267.268C166.345 271.138 161.185 273.273 155.726 273.273C150.255 273.273 145.107 271.138 141.237 267.268C137.368 263.399 135.233 258.239 135.233 252.78C135.233 247.309 137.368 242.161 141.237 238.291L160.252 219.277Z"/>
    </symbol>
    <symbol xmlns="http://www.w3.org/2000/svg" viewBox="0 0 287 230" id="coding-folder">
      <path fill-rule="evenodd" clip-rule="evenodd" d="M86.6817 0C94.691 0.00131129 104.56 4.09987 110.232 9.79401L125.228 24.8497C126.047 25.6645 127.599 26.5835 129.338 27.3084C131.077 28.0325 132.823 28.4911 133.98 28.4919H256.984C273.17 28.4932 286.375 41.7218 286.375 58.0161V200.475C286.375 216.772 273.17 230 256.984 230H29.9055C13.7189 230 0.514252 216.772 0.514252 200.475V29.5239C0.514252 13.2298 13.7189 0.00104903 29.9055 0H86.6817ZM29.9055 21.0653C25.2399 21.0666 21.4608 24.8835 21.4608 29.5239V200.475C21.4608 205.117 25.2399 208.933 29.9055 208.935H256.984C261.649 208.933 265.429 205.117 265.429 200.475V58.0161C265.429 53.3755 261.649 49.5586 256.984 49.5575H133.98C125.97 49.5567 116.102 45.4579 110.429 39.7633L95.4332 24.6979C94.6149 23.8828 93.0624 22.9638 91.3236 22.2392C89.5848 21.5151 87.8382 21.0664 86.6817 21.0653H29.9055Z"/>
      <path d="M165.326 99.9863C167.516 97.8483 171.061 97.8485 173.251 99.9863L199.192 125.273L199.392 125.479C201.326 127.566 201.326 130.758 199.392 132.846L199.192 133.051L173.251 158.339L173.252 158.34C171.131 160.409 167.736 160.474 165.535 158.534L165.326 158.34C163.126 156.192 163.125 152.707 165.326 150.561L187.276 129.162L165.326 107.764C163.125 105.618 163.125 102.132 165.326 99.9863Z" stroke-width="1.5"/>
      <path d="M113.9 99.9863C116.09 97.8486 119.635 97.8488 121.825 99.9863C124.026 102.132 124.026 105.618 121.826 107.764L99.8747 129.162L121.826 150.561C123.958 152.64 124.024 155.975 122.026 158.135L121.826 158.34C119.636 160.475 116.089 160.475 113.899 158.34L87.9597 133.051C85.7591 130.905 85.7592 127.419 87.9597 125.273L113.9 99.9863Z" stroke-width="1.5"/>
      <path d="M144.639 93.209C145.332 90.2437 148.349 88.4137 151.356 89.0781C154.369 89.7441 156.289 92.6755 155.591 95.6514L139.366 165.115C138.673 168.084 135.655 169.911 132.648 169.246C129.638 168.58 127.716 165.649 128.414 162.673L144.639 93.209Z" stroke-width="1.5"/>
    </symbol>
    <symbol xmlns="http://www.w3.org/2000/svg" viewBox="0 0 291 266" id="coding-link">
      <path d="M170.396 1.97949C172.615 0.881601 175.186 0.747538 177.52 1.37207C179.853 1.99665 182.014 3.39771 183.39 5.45605C184.693 7.40582 185.251 9.89032 184.641 12.7246L184.503 13.2969L125.488 233.776C124.666 236.851 122.855 238.911 120.613 240.021C118.395 241.118 115.824 241.252 113.491 240.627C111.159 240.002 108.999 238.601 107.624 236.543C106.235 234.463 105.692 231.775 106.512 228.703L165.526 8.22363C166.346 5.14919 168.156 3.08879 170.396 1.97949ZM82.625 39.6084C85.0964 39.7693 87.3915 40.9415 89.1006 42.6514C90.8097 44.3614 91.9814 46.6581 92.1416 49.1309C92.3034 51.6291 91.4255 54.2293 89.1738 56.4805L24.7324 121.002L89.1865 185.522C91.4357 187.774 92.3118 190.376 92.1494 192.875C91.9887 195.348 90.8176 197.646 89.1094 199.356C87.4012 201.067 85.1067 202.241 82.6357 202.401C80.2947 202.553 77.8636 201.79 75.7158 199.836L75.291 199.43L3.87988 127.956C0.0409335 124.113 0.0389151 117.88 3.88086 114.047L75.2783 42.5742C77.5275 40.3226 80.1277 39.4458 82.625 39.6084ZM208.377 39.6025C210.874 39.4405 213.473 40.3188 215.722 42.5732L287.12 114.047C290.959 117.89 290.96 124.121 287.119 127.954L287.12 127.955L275.208 139.882L274.619 140.472L273.934 140L259.137 129.824L258.147 129.144L258.996 128.293L266.278 121.001L201.825 56.4805C199.576 54.2289 198.701 51.6268 198.863 49.1279C199.024 46.6547 200.195 44.3573 201.903 42.6465C203.612 40.9357 205.906 39.7629 208.377 39.6025Z" stroke-width="2"/>
      <path d="M249.279 190.229C246.488 193.02 246.488 197.512 249.279 200.303C252.07 203.094 256.562 203.094 259.353 200.303L278.368 181.289C284.939 174.739 288.531 166 288.531 156.726C288.531 147.441 284.917 138.735 278.368 132.163C271.818 125.592 263.079 122 253.805 122C244.52 122 235.814 125.614 229.242 132.163L201.999 159.406C195.428 165.955 191.836 174.695 191.836 183.969C191.836 193.253 195.45 201.96 201.999 208.531C203.389 209.921 205.213 210.611 207.036 210.611C208.86 210.611 210.684 209.933 212.073 208.531C214.864 205.741 214.864 201.248 212.073 198.457C208.204 194.588 206.069 189.428 206.069 183.969C206.069 178.498 208.204 173.349 212.073 169.48L239.316 142.237C243.186 138.368 248.345 136.233 253.805 136.233C259.275 136.233 264.424 138.368 268.293 142.237C272.163 146.107 274.298 151.267 274.298 156.726C274.298 162.197 272.163 167.345 268.293 171.215L249.279 190.229Z"/>
      <path d="M184.252 197.277C187.043 194.486 187.043 189.994 184.252 187.203C181.461 184.412 176.969 184.412 174.177 187.203L155.163 206.217C148.592 212.766 145 221.506 145 230.78C145 240.064 148.614 248.771 155.163 255.343C161.713 261.914 170.452 265.506 179.726 265.506C189.011 265.506 197.717 261.892 204.289 255.343L231.531 228.1C238.103 221.551 241.695 212.811 241.695 203.537C241.695 194.252 238.081 185.546 231.531 178.974C228.741 176.183 224.248 176.183 221.457 178.974C218.666 181.765 218.666 186.258 221.457 189.049C225.327 192.918 227.462 198.078 227.462 203.537C227.462 209.008 225.327 214.156 221.457 218.026L194.215 245.268C190.345 249.138 185.185 251.273 179.726 251.273C174.255 251.273 169.107 249.138 165.237 245.268C161.368 241.399 159.233 236.239 159.233 230.78C159.233 225.309 161.368 220.161 165.237 216.291L184.252 197.277Z"/>
    </symbol>
    <symbol xmlns="http://www.w3.org/2000/svg" viewBox="0 0 286 230" id="cooking-folder">
      <path fill-rule="evenodd" clip-rule="evenodd" d="M86.1674 0C94.1768 0.00131129 104.045 4.09987 109.718 9.79401L124.714 24.8497C125.532 25.6645 127.085 26.5835 128.824 27.3084C130.562 28.0325 132.309 28.4911 133.466 28.4919H256.47C272.656 28.4932 285.861 41.7218 285.861 58.0161V200.475C285.861 216.772 272.656 230 256.47 230H29.3912C13.2047 230 0 216.772 0 200.475V29.5239C0 13.2298 13.2047 0.00104903 29.3912 0H86.1674ZM29.3912 21.0653C24.7256 21.0666 20.9465 24.8835 20.9465 29.5239V200.475C20.9465 205.117 24.7256 208.933 29.3912 208.935H256.47C261.135 208.933 264.914 205.117 264.914 200.475V58.0161C264.914 53.3755 261.135 49.5586 256.47 49.5575H133.466C125.456 49.5567 115.587 45.4579 109.915 39.7633L94.9189 24.6979C94.1007 23.8828 92.5481 22.9638 90.8094 22.2392C89.0706 21.5151 87.324 21.0664 86.1674 21.0653H29.3912Z"/>
      <path fill-rule="evenodd" clip-rule="evenodd" d="M185.154 76.6115V178.22C185.154 181.739 182.285 184.629 178.76 184.629L170.569 184.635C167.05 184.635 164.175 181.758 164.175 178.225V151.491L158.734 151.485C157.079 151.485 155.792 150.185 155.826 148.383C155.283 125.113 157.774 109.458 162.172 98.2365C166.704 86.6814 173.192 79.8208 180.488 74.2829C182.424 72.8182 185.149 74.2732 185.149 76.6071C185.151 76.6086 185.154 76.6115 185.154 76.6115ZM132.739 101.323C132.739 105.165 126.914 105.165 126.914 101.323V76.6115C126.914 72.77 132.739 72.77 132.739 76.6115V101.323ZM119.637 101.323C119.637 105.165 113.812 105.165 113.812 101.323V76.6115C113.812 72.77 119.637 72.77 119.637 76.6115V101.323ZM140.017 76.6115C140.017 76.6115 140.017 91.8217 140.017 99.4271C140.017 102.957 138.926 106.233 137.064 108.931C132.249 115.913 127.31 113.982 127.31 117.853V174.742C127.31 175.857 126.859 176.869 126.128 177.601L126.122 177.596C124.536 179.185 122.002 179.18 120.424 177.601L120.426 177.596C119.694 176.861 119.238 175.852 119.238 174.742C119.241 155.778 119.243 136.817 119.243 117.853C119.243 116.56 118.407 115.467 117.248 115.076C111.014 112.829 106.537 106.345 106.537 99.4219C106.534 91.819 106.534 84.2162 106.532 76.6123C106.532 72.7705 100.707 72.7705 100.707 76.6123V99.4271C100.707 108.139 105.755 115.999 113.419 119.76V174.745C113.419 177.467 114.525 179.935 116.311 181.726L116.317 181.721C120.182 185.597 126.385 185.592 130.24 181.726L130.237 181.721C132.023 179.93 133.135 177.462 133.135 174.745V119.765C140.798 115.999 145.847 108.145 145.847 99.4324C145.844 91.8269 145.844 84.2188 145.842 76.6136C145.842 72.7718 140.017 72.7718 140.017 76.6136V76.6115ZM179.329 151.485L170 151.491V178.22L170.569 178.792C171.403 178.792 178.789 178.983 179.161 178.616L179.329 178.22V151.485ZM179.329 145.647V82.8446C164.42 96.7862 161.215 118.936 161.582 145.647H179.329Z" stroke-width="5" stroke-miterlimit="8"/>
    </symbol>
    <symbol xmlns="http://www.w3.org/2000/svg" viewBox="0 0 268 292" id="cooking-link">
      <path d="M228.279 214.225C225.488 217.016 225.488 221.508 228.279 224.299C231.07 227.091 235.562 227.09 238.354 224.299L257.368 205.285C263.939 198.736 267.531 189.996 267.531 180.722C267.531 171.438 263.917 162.731 257.368 156.159C250.818 149.588 242.079 145.996 232.805 145.996C223.52 145.996 214.814 149.61 208.242 156.159L181 183.402C174.428 189.951 170.836 198.691 170.836 207.965C170.836 217.25 174.45 225.956 181 232.528C182.389 233.918 184.213 234.607 186.037 234.607C187.86 234.607 189.684 233.929 191.074 232.528C193.865 229.737 193.865 225.245 191.074 222.453C187.204 218.584 185.069 213.424 185.069 207.965C185.069 202.494 187.204 197.346 191.074 193.476L218.316 166.234C222.186 162.364 227.345 160.229 232.805 160.229C238.276 160.229 243.424 162.364 247.293 166.234C251.163 170.103 253.298 175.263 253.298 180.722C253.298 186.193 251.163 191.341 247.293 195.211L228.279 214.225Z"/>
      <path d="M163.252 221.273C166.043 218.482 166.043 213.99 163.252 211.199C160.461 208.408 155.969 208.408 153.178 211.199L134.163 230.213C127.592 236.763 124 245.502 124 254.776C124 264.061 127.614 272.767 134.163 279.339C140.713 285.911 149.452 289.502 158.726 289.502C168.011 289.502 176.717 285.888 183.289 279.339L210.532 252.096C217.103 245.547 220.695 236.807 220.695 227.533C220.695 218.249 217.081 209.542 210.532 202.971C207.741 200.18 203.248 200.18 200.457 202.971C197.666 205.762 197.666 210.254 200.457 213.045C204.327 216.915 206.462 222.074 206.462 227.533C206.462 233.004 204.327 238.153 200.457 242.022L173.215 269.265C169.345 273.134 164.186 275.269 158.726 275.269C153.255 275.269 148.107 273.134 144.238 269.265C140.368 265.395 138.233 260.236 138.233 254.776C138.233 249.305 140.368 244.157 144.238 240.288L163.252 221.273Z"/>
      <path d="M9.51758 2.09473C11.6078 2.09473 13.7323 2.7844 15.3477 4.20801C16.982 5.64847 18.0361 7.78983 18.0361 10.5488L18.0488 69.5625V69.5635C18.049 87.0725 29.3608 103.453 45.0303 109.12C48.4096 110.263 50.8534 113.465 50.8535 117.244L50.8408 264.428C50.8408 267.019 51.9005 269.379 53.6162 271.103L53.999 271.487C57.7046 274.806 63.3294 274.691 66.9014 271.103L67.3057 270.695C68.7825 269.03 69.6768 266.831 69.6768 264.428V117.244C69.6768 114.475 70.5817 112.629 72.2021 111.203C73.7236 109.865 75.8732 108.917 78.1738 107.819C82.8367 105.595 88.9551 102.423 95.0283 93.5947V93.5938C99.7272 86.7733 102.481 78.4969 102.481 69.5742V10.5518H102.479C102.479 7.79287 103.533 5.65136 105.167 4.21094C106.782 2.78732 108.907 2.09766 110.997 2.09766C113.087 2.09771 115.212 2.78727 116.827 4.21094C118.461 5.65136 119.515 7.79291 119.515 10.5518L119.527 69.5879V69.5889C119.527 92.3002 106.516 112.795 86.7109 122.806V264.432C86.7109 271.384 84.0097 277.725 79.625 282.469L79.6523 282.496L78.9512 283.201C68.8443 293.357 52.7181 293.601 42.3115 283.887L42.2852 283.914L41.5762 283.201C36.7858 278.388 33.8164 271.751 33.8164 264.432V122.794C14.0113 112.794 1.00014 92.2872 1 69.5762V10.5488C1.00005 7.78983 2.05409 5.64847 3.68848 4.20801C5.30372 2.78452 7.42753 2.09483 9.51758 2.09473ZM43.3496 2.09277C45.4399 2.09278 47.5643 2.78332 49.1797 4.20703C50.8139 5.64753 51.8672 7.78896 51.8672 10.5479V74.4814C51.8672 77.2404 50.8139 79.3818 49.1797 80.8223C47.5643 82.246 45.4399 82.9355 43.3496 82.9355C41.2593 82.9355 39.1349 82.246 37.5195 80.8223C35.8853 79.3818 34.8311 77.2404 34.8311 74.4814V10.5479C34.8311 7.78893 35.8853 5.64753 37.5195 4.20703C39.1349 2.78331 41.2593 2.09277 43.3496 2.09277ZM77.1699 2.09277C79.2601 2.09282 81.3847 2.78336 83 4.20703C84.6342 5.64753 85.6875 7.78902 85.6875 10.5479V74.4814C85.6875 77.2403 84.6342 79.3818 83 80.8223C81.3847 82.2459 79.2601 82.9355 77.1699 82.9355C75.0796 82.9355 72.9552 82.246 71.3398 80.8223C69.7055 79.3818 68.6514 77.2404 68.6514 74.4814V10.5479C68.6514 7.78888 69.7056 5.64753 71.3398 4.20703C72.9552 2.78331 75.0796 2.09277 77.1699 2.09277ZM221 159.365L220.601 159.665L205.564 170.952L203.964 172.153V29.0117C167.432 64.6688 159.294 120.526 160.138 188.151H191.661L189.762 189.889L173.255 204.996L172.968 205.259H151.794C146.951 205.259 143.213 201.423 143.288 196.256C141.889 135.979 148.322 95.3321 159.74 66.127H159.741C171.52 36.0279 188.408 18.1362 207.353 3.72656L207.354 3.72559C212.931 -0.505207 220.689 3.55094 220.979 10.1523L221 10.1758V159.365Z" stroke-width="2"/>
    </symbol>
    <symbol xmlns="http://www.w3.org/2000/svg" viewBox="0 0 285 224" id="default-folder">
      <path d="M85.9067 0C93.8941 0.00131176 103.731 3.99288 109.387 9.53859L124.339 24.2013C125.154 24.9951 126.701 25.89 128.436 26.5958C130.17 27.3012 131.91 27.748 133.064 27.7487H255.697C271.835 27.7498 285 40.6334 285 56.5026V195.246C285 211.116 271.835 223.999 255.697 224H29.3034C13.1648 223.999 0 211.116 0 195.246V28.7538C0 12.8847 13.1648 0.00104941 29.3034 0H85.9067ZM133.064 85.2564C131.909 85.257 130.169 85.696 128.436 86.3995C126.7 87.1039 125.154 88.0057 124.339 88.8038L118.812 94.2237C113.155 99.7684 103.319 103.762 95.3322 103.762H20.8845V195.246C20.8845 199.766 24.6499 203.483 29.3034 203.484H255.697C260.35 203.483 264.116 199.766 264.116 195.246V85.2564H133.064ZM29.3034 20.5159C24.6499 20.517 20.8845 24.2344 20.8845 28.7538V83.2462H95.3322C96.4874 83.2462 98.2369 82.8073 99.9712 82.1032C101.704 81.3989 103.244 80.4964 104.057 79.6988L109.585 74.2791C115.24 68.733 125.077 64.7413 133.064 64.7405H264.116V56.5026C264.116 51.9832 260.35 48.2657 255.697 48.2646H133.064C125.077 48.2638 115.24 44.2721 109.585 38.726L94.6318 24.0535C93.8162 23.2598 92.2699 22.3647 90.5356 21.659C88.8021 20.9539 87.0604 20.5169 85.9067 20.5159H29.3034Z"/>
    </symbol>
    <symbol xmlns="http://www.w3.org/2000/svg" viewBox="0 0 281 227" id="geography-folder">
      <path fill-rule="evenodd" clip-rule="evenodd" d="M84.7022 0.00012207C92.5753 0.00141106 102.276 4.03027 107.852 9.62759L122.593 24.4273C123.398 25.2282 124.924 26.1316 126.633 26.8441C128.342 27.5559 130.059 28.0068 131.196 28.0076H252.109C268.02 28.0089 281 41.0125 281 57.0297V197.066C281 213.086 268.02 226.089 252.109 226.089H28.8914C12.9801 226.089 0 213.086 0 197.066V29.022C0 13.005 12.9801 0.00115326 28.8914 0.00012207H84.7022ZM28.8914 20.7072C24.3052 20.7085 20.5903 24.4605 20.5903 29.022V197.066C20.5903 201.629 24.3052 205.38 28.8914 205.383H252.109C256.695 205.38 260.41 201.629 260.41 197.066V57.0297C260.41 52.468 256.695 48.716 252.109 48.715H131.196C123.323 48.7142 113.622 44.6851 108.046 39.0872L93.3049 24.278C92.5006 23.4768 90.9744 22.5734 89.2652 21.8612C87.556 21.1494 85.8391 20.7083 84.7022 20.7072H28.8914Z"/>
      <path fill-rule="evenodd" clip-rule="evenodd" d="M135 167C133.345 167 132 166.07 132 164.928V154.072C132 152.93 133.345 152 135 152C136.655 152 138 152.93 138 154.072V164.928C138 166.07 136.655 167 135 167Z" stroke-width="4" stroke-miterlimit="8"/>
      <path fill-rule="evenodd" clip-rule="evenodd" d="M155.744 93.0654C155.179 93.0654 154.604 92.8979 154.107 92.5524C152.805 91.645 152.482 89.8507 153.387 88.5462L163.885 73.4207C164.79 72.1157 166.581 71.7893 167.883 72.7009C169.185 73.6081 169.507 75.4026 168.603 76.7081L158.105 91.8331C157.551 92.6375 156.654 93.0654 155.744 93.0654Z" stroke-width="4" stroke-miterlimit="8"/>
      <path fill-rule="evenodd" clip-rule="evenodd" d="M140.531 155.453C132.642 155.453 125.037 153.321 118.363 149.268L117.105 151.07C116.197 152.377 114.408 152.694 113.109 151.782C111.815 150.869 111.493 149.075 112.403 147.77L115.251 143.682C115.687 143.058 116.349 142.625 117.102 142.496C117.858 142.372 118.621 142.539 119.242 142.975C125.501 147.371 132.859 149.693 140.526 149.693C161.088 149.693 177.816 132.903 177.816 112.261C177.816 100.005 171.835 88.5282 161.82 81.5548C160.521 80.6473 160.193 78.8582 161.098 77.546C162 76.2415 163.789 75.9141 165.089 76.8216C176.648 84.87 183.552 98.1209 183.552 112.264C183.552 136.076 164.248 155.453 140.528 155.453H140.531Z" stroke-width="4" stroke-miterlimit="8"/>
      <path fill-rule="evenodd" clip-rule="evenodd" d="M148 167C146.346 167 145 165.946 145 164.651V152.349C145 151.054 146.346 150 148 150C149.654 150 151 151.054 151 152.349V164.651C151 165.946 149.654 167 148 167Z" stroke-width="4" stroke-miterlimit="8"/>
      <path fill-rule="evenodd" clip-rule="evenodd" d="M171.773 179.272C170.195 179.272 168.911 177.981 168.911 176.393V170.636C168.911 169.048 167.627 167.757 166.047 167.757H112.592C111.012 167.757 109.728 169.048 109.728 170.636V176.393C109.728 177.981 108.444 179.272 106.864 179.272C105.284 179.272 104 177.981 104 176.393V170.636C104 165.872 107.851 162 112.59 162H166.047C170.785 162 174.637 165.872 174.637 170.636V176.393C174.637 177.981 173.353 179.272 171.773 179.272Z" stroke-width="4" stroke-miterlimit="8"/>
      <path fill-rule="evenodd" clip-rule="evenodd" d="M186.357 181.748H94.6429C93.06 181.748 91.7762 180.418 91.7762 178.783C91.7762 177.149 93.06 175.819 94.6429 175.819H186.357C187.94 175.819 189.224 177.149 189.224 178.783C189.224 180.418 187.94 181.748 186.357 181.748Z" stroke-width="4" stroke-miterlimit="8"/>
      <path fill-rule="evenodd" clip-rule="evenodd" d="M140.5 142.047C124.153 142.047 110.853 128.688 110.853 112.271C110.853 95.8521 124.15 82.4956 140.5 82.4956C156.85 82.4956 170.147 95.8521 170.147 112.271C170.147 128.69 156.85 142.047 140.5 142.047ZM140.5 88.26C127.316 88.26 116.592 99.0308 116.592 112.271C116.592 125.512 127.316 136.283 140.5 136.283C153.684 136.283 164.408 125.512 164.408 112.271C164.408 99.0308 153.684 88.26 140.5 88.26Z" stroke-width="4" stroke-miterlimit="8"/>
      <path fill-rule="evenodd" clip-rule="evenodd" d="M139.228 112.359C135.304 112.359 132.561 109.213 131.172 107.625C131.053 107.486 130.914 107.332 130.78 107.177C128.346 107.845 124.162 108.435 120.599 104.859C119.46 103.712 118.132 102.217 116.658 100.417C115.645 99.1929 115.822 97.3728 117.05 96.3596C118.277 95.3465 120.089 95.5244 121.1 96.7541C122.466 98.4143 123.667 99.7729 124.68 100.786C126.317 102.433 128.158 102.003 130.218 101.315C132.626 100.518 134.289 102.428 135.505 103.825C137.949 106.625 138.975 107.231 141.097 105.885C142.943 104.715 144.013 102.846 144.026 96.7824C144.031 94.5937 143.126 91.6162 141.404 88.1694C140.695 86.7464 141.27 85.014 142.688 84.3024C144.113 83.5961 145.838 84.1684 146.547 85.5888C148.694 89.8966 149.782 93.6656 149.772 96.7927C149.762 102.204 149.076 107.638 144.175 110.75C142.363 111.902 140.71 112.348 139.228 112.348V112.359Z" stroke-width="4" stroke-miterlimit="8"/>
      <path fill-rule="evenodd" clip-rule="evenodd" d="M151.757 137.197C151.68 137.197 151.6 137.192 151.518 137.189C149.937 137.06 148.759 135.679 148.888 134.109C149.138 131.11 148.646 128.777 147.506 127.55C146.71 126.694 145.787 126.566 145.302 126.566C144.738 126.566 143.925 126.694 143.067 126.831C140.486 127.246 136.949 127.816 133.41 126.06C131.095 124.908 129.863 123.665 128.873 122.668C127.996 121.781 127.303 121.087 125.802 120.373C123.433 119.254 121.677 119.53 119.93 121.301C118.818 122.428 116.998 122.448 115.864 121.345C114.73 120.239 114.709 118.432 115.82 117.308C119.277 113.794 123.701 113.052 128.269 115.215C130.688 116.357 131.897 117.579 132.966 118.654C133.833 119.53 134.516 120.221 135.983 120.948C137.857 121.881 140.035 121.528 142.152 121.196C143.25 121.02 144.284 120.853 145.307 120.853C147.725 120.853 150.071 121.881 151.732 123.681C153.317 125.39 155.109 128.669 154.619 134.58C154.495 136.071 153.24 137.202 151.763 137.202L151.757 137.197Z" stroke-width="4" stroke-miterlimit="8"/>
      <path d="M162.513 127.704C161.701 127.704 162.076 125.745 161.507 125.08C155.814 118.406 153.912 111.466 156 105C157.147 101.442 157.839 99.8101 160.374 96.9614" stroke-width="8" stroke-miterlimit="8"/>
    </symbol>
    <symbol xmlns="http://www.w3.org/2000/svg" viewBox="0 0 274 290" id="geography-link">
      <path d="M114.721 202.403C119.421 202.403 123.237 206.227 123.237 210.929V250.368C123.237 255.071 119.421 258.894 114.721 258.894C110.022 258.894 106.207 255.071 106.207 250.368V210.929L106.217 210.491C106.446 205.991 110.169 202.403 114.721 202.403Z" stroke-width="2"/>
      <path d="M190.303 4.66309C192.983 0.800278 198.29 -0.168684 202.152 2.53125H202.153C206.014 5.21804 206.964 10.5325 204.283 14.3965H204.282L176.828 53.9346C175.178 56.3259 172.521 57.5879 169.832 57.5879C168.157 57.5879 166.454 57.0902 164.979 56.0674L164.978 56.0664C161.117 53.3795 160.168 48.0652 162.849 44.2012L190.303 4.66309Z" stroke-width="2"/>
      <path d="M182.817 15.35C185.498 11.4859 190.805 10.5166 194.668 13.2045H194.667C225.222 34.4284 243.468 69.3704 243.468 106.665C243.468 122.227 240.333 137.072 234.664 150.6L234.478 151.045L234.014 151.176L214.915 156.556C207.195 169.725 196.52 180.954 183.806 189.323L184.075 206.089L184.085 206.697L183.551 206.985C167.531 215.639 149.215 220.554 129.778 220.56L129.779 220.561H129.771L129.771 220.56C129.765 220.56 129.759 220.56 129.753 220.56V220.561C129.751 220.561 129.749 220.56 129.747 220.56L129.745 220.561L129.744 220.56C109.215 220.558 89.4058 215.109 71.9609 204.729L69.2021 208.679L69.2031 208.68C66.5068 212.546 61.198 213.484 57.3389 210.785L57.3369 210.784C53.4929 208.084 52.5425 202.771 55.2383 198.906L62.7031 188.218V188.217C63.9918 186.374 65.9641 185.092 68.2002 184.706L68.207 184.705C70.4363 184.338 72.7063 184.832 74.5547 186.127C90.7808 197.499 109.856 203.508 129.742 203.508C149.087 203.508 167.122 197.79 182.252 187.953L182.289 187.928C195.043 179.627 205.73 168.398 213.394 155.201C221.685 140.922 226.437 124.339 226.437 106.663C226.436 75.4479 211.409 46.1839 186.169 28.0697L184.959 27.2152C181.1 24.5297 180.136 19.2289 182.816 15.351L182.817 15.35Z" stroke-width="2"/>
      <path d="M144.784 202.403C149.483 202.403 153.299 206.227 153.299 210.929V230.986L153.094 231.255L138.064 250.973L136.269 253.329V210.929L136.28 210.491C136.508 205.991 140.231 202.403 144.784 202.403Z" stroke-width="2"/>
      <path d="M139.736 241.841V258.894H59.6119C56.02 258.894 53.0974 261.819 53.0973 265.42V280.473C53.0973 285.176 49.2812 289 44.5817 289C39.8823 289 36.067 285.176 36.067 280.473V265.42L36.0748 264.813C36.3974 252.086 46.824 241.841 59.6119 241.841H139.736Z" stroke-width="2"/>
      <path d="M147.379 271.947L147.663 272.198L164.663 287.251L166.638 289H9.51465C4.81528 289 1 285.176 1 280.473C1.00015 275.77 4.81537 271.947 9.51465 271.947H147.379Z" stroke-width="2"/>
      <path d="M129.753 27.9001C173.13 27.9001 208.407 63.2337 208.407 106.675C208.407 150.112 173.13 185.449 129.753 185.449C86.3782 185.449 51.0985 150.102 51.0984 106.675C51.0984 63.237 86.3751 27.9002 129.753 27.9001ZM129.753 44.9548C95.7742 44.9549 68.1296 72.642 68.1296 106.675C68.1297 140.709 95.7764 168.394 129.753 168.394C163.729 168.394 191.376 140.707 191.376 106.675C191.376 72.6398 163.729 44.9548 129.753 44.9548Z" stroke-width="2"/>
      <path d="M135.809 30.3283C139.887 28.3069 144.81 29.8272 147.025 33.7521L147.231 34.1398L147.752 35.1974C153.056 46.0854 155.788 55.7308 155.764 63.8527C155.739 77.994 153.973 92.7229 140.671 101.16L140.67 101.159C136.187 104.01 132.017 105.281 128.199 105.466V105.52H127.21C116.435 105.52 108.986 96.9053 105.404 92.8098L105.398 92.8029C105.203 92.5762 105.001 92.3501 104.787 92.1096C98.3287 93.7849 87.5703 95.0285 78.2738 86.0793L77.8177 85.631C74.8079 82.6039 71.317 78.6776 67.4476 73.9592L67.1771 73.6144C64.4871 69.9984 65.0924 64.8543 68.6088 61.9514C72.243 58.9514 77.6082 59.479 80.601 63.1154H80.6019C84.1612 67.4432 87.2819 70.9662 89.8929 73.5812L89.8939 73.5822C91.8434 75.5404 93.8634 76.2356 96.0238 76.2639C98.2481 76.2928 100.653 75.6166 103.348 74.7189L103.35 74.718C106.842 73.5615 109.812 74.389 112.273 75.9543C114.685 77.4891 116.659 79.7657 118.232 81.5705C119.823 83.3918 121.157 84.826 122.349 85.9074C123.543 86.9908 124.549 87.6783 125.475 88.051C127.201 88.7458 128.902 88.4471 131.56 86.7648C133.802 85.3416 135.553 83.5256 136.776 80.1691C138.021 76.7509 138.729 71.7092 138.747 63.8244C138.759 58.3371 136.474 50.7268 132.002 41.7687C129.903 37.5638 131.604 32.4346 135.806 30.3303L135.809 30.3283Z" stroke-width="2"/>
      <path d="M75.3534 116.114C81.1033 115.14 87.1916 116.122 93.3212 119.043C98.9963 121.745 102.208 124.628 104.808 127.222L105.891 128.314L105.892 128.315C108.14 130.603 109.837 132.326 113.516 134.168H113.517C118.086 136.456 123.437 135.618 129.054 134.727C131.905 134.266 134.693 133.811 137.468 133.811C144.076 133.811 150.478 136.641 155.012 141.585L155.421 142.04C159.653 146.874 164.083 155.729 162.825 171.07V171.071C162.456 175.516 158.741 178.9 154.351 178.9H153.932L153.907 178.874C153.819 178.87 153.734 178.865 153.654 178.861H153.642L153.632 178.86C148.946 178.476 145.458 174.353 145.841 169.665V169.664C146.486 161.835 145.168 156.056 142.482 153.139L142.481 153.138C140.654 151.154 138.549 150.865 137.456 150.865C136.078 150.865 134.041 151.185 131.767 151.554H131.766C125.037 152.642 115.475 154.219 105.897 149.429H105.896C99.6838 146.318 96.3718 142.948 93.7587 140.292L93.7577 140.291C91.4885 137.982 89.7713 136.252 86.0135 134.448L85.4579 134.192C82.7125 132.969 80.3941 132.568 78.3046 132.9C76.0833 133.253 73.9757 134.459 71.7889 136.691C68.4966 140.058 63.1039 140.115 59.7411 136.818C56.38 133.523 56.3205 128.123 59.6132 124.767L60.0507 124.327C64.5962 119.827 69.7813 117.058 75.3534 116.114Z" stroke-width="2"/>
      <path d="M183.6 64.9529C186.721 61.4436 192.099 61.1147 195.62 64.2546C199.139 67.3812 199.451 72.7797 196.316 76.2908L196.317 76.2917C191.171 82.087 187.372 88.6781 185.048 95.8679C181.364 107.275 185.042 119.764 196.419 133.109V133.11C199.467 136.689 199.058 142.073 195.48 145.131L195.479 145.133C193.879 146.494 191.907 147.177 189.959 147.177H188.982L188.98 147.105C186.915 146.869 184.934 145.886 183.474 144.179L183.473 144.178C168.406 126.515 163.243 107.974 168.854 90.6111C171.904 81.1563 176.872 72.5179 183.6 64.9529Z" stroke-width="2"/>
      <path d="M234.279 213.229C231.488 216.02 231.488 220.512 234.279 223.303C237.07 226.094 241.562 226.094 244.353 223.303L263.368 204.289C269.939 197.739 273.531 189 273.531 179.726C273.531 170.441 269.917 161.735 263.368 155.163C256.818 148.592 248.079 145 238.805 145C229.52 145 220.814 148.614 214.242 155.163L186.999 182.406C180.428 188.955 176.836 197.695 176.836 206.969C176.836 216.253 180.45 224.96 186.999 231.531C188.389 232.921 190.213 233.611 192.036 233.611C193.86 233.611 195.684 232.933 197.073 231.531C199.864 228.741 199.864 224.248 197.073 221.457C193.204 217.588 191.069 212.428 191.069 206.969C191.069 201.498 193.204 196.349 197.073 192.48L224.316 165.237C228.186 161.368 233.345 159.233 238.805 159.233C244.275 159.233 249.424 161.368 253.293 165.237C257.163 169.107 259.298 174.267 259.298 179.726C259.298 185.197 257.163 190.345 253.293 194.215L234.279 213.229Z"/>
      <path d="M169.252 220.277C172.043 217.486 172.043 212.994 169.252 210.203C166.461 207.412 161.969 207.412 159.177 210.203L140.163 229.217C133.592 235.766 130 244.506 130 253.78C130 263.064 133.614 271.771 140.163 278.343C146.713 284.914 155.452 288.506 164.726 288.506C174.011 288.506 182.717 284.892 189.289 278.343L216.532 251.1C223.103 244.551 226.695 235.811 226.695 226.537C226.695 217.252 223.081 208.546 216.532 201.974C213.741 199.183 209.248 199.183 206.457 201.974C203.666 204.765 203.666 209.258 206.457 212.049C210.327 215.918 212.462 221.078 212.462 226.537C212.462 232.008 210.327 237.156 206.457 241.026L179.215 268.268C175.345 272.138 170.185 274.273 164.726 274.273C159.255 274.273 154.107 272.138 150.237 268.268C146.368 264.399 144.233 259.239 144.233 253.78C144.233 248.309 146.368 243.161 150.237 239.291L169.252 220.277Z"/>
    </symbol>
    <symbol xmlns="http://www.w3.org/2000/svg" viewBox="0 0 288 231" id="history-folder">
      <path fill-rule="evenodd" clip-rule="evenodd" d="M86.542 0C94.5862 0.00131699 104.498 4.11769 110.195 9.83659L125.256 24.9577C126.078 25.7761 127.637 26.6991 129.384 27.4271C131.13 28.1543 132.884 28.615 134.046 28.6158H257.585C273.842 28.6171 287.104 41.9032 287.104 58.2684V201.347C287.104 217.714 273.842 231 257.585 231H29.519C13.2621 231 0 217.714 0 201.347V29.6523C0 13.2874 13.2621 0.00105359 29.519 0H86.542ZM29.519 21.1569C24.8331 21.1582 21.0376 24.9917 21.0376 29.6523V201.347C21.0376 206.009 24.8331 209.841 29.519 209.844H257.585C262.271 209.841 266.066 206.009 266.066 201.347V58.2684C266.066 53.6075 262.271 49.7741 257.585 49.773H134.046C126.002 49.7722 116.09 45.6556 110.393 39.9361L95.3316 24.8052C94.5098 23.9866 92.9505 23.0637 91.2042 22.3359C89.4578 21.6086 87.7036 21.158 86.542 21.1569H29.519Z"/>
      <path fill-rule="evenodd" clip-rule="evenodd" d="M164.094 98.9086H123.278C122.891 101.482 121.682 103.792 119.922 105.549C118.516 106.963 116.749 108.027 114.778 108.594V112.927C117.331 113.448 119.614 114.726 121.395 116.506C123.758 118.877 125.222 122.146 125.222 125.752V163.852H130.645V125.752C130.645 122.151 132.115 118.879 134.473 116.506C136.835 114.136 140.093 112.666 143.684 112.666C147.274 112.666 150.532 114.136 152.895 116.506C155.257 118.877 156.724 122.146 156.724 125.752V163.852H162.148V125.752C162.148 122.151 163.618 118.879 165.975 116.506C167.75 114.726 170.037 113.448 172.589 112.927V108.594C170.621 108.03 168.854 106.969 167.445 105.549C165.693 103.792 164.481 101.482 164.089 98.9086H164.094ZM114.778 118.318V163.847H120.028V125.746C120.028 123.586 119.145 121.619 117.723 120.189C116.899 119.359 115.895 118.716 114.778 118.318ZM167.345 163.847H172.594V118.318C171.477 118.716 170.474 119.359 169.649 120.186C168.222 121.619 167.345 123.581 167.345 125.746V163.847ZM122.925 93.6986H164.442C165.014 91.7574 166.059 90.0269 167.445 88.6361C169.599 86.4736 172.586 85.1303 175.871 85.1303C177.306 85.1303 178.468 86.2971 178.468 87.7353C178.468 89.1761 177.306 90.3403 175.871 90.3403C174.011 90.3403 172.328 91.0936 171.111 92.3158C169.892 93.5406 169.141 95.2263 169.141 97.0938C169.141 98.9587 169.892 100.644 171.111 101.869C172.215 102.975 173.698 103.697 175.349 103.826L175.381 103.832C175.539 103.845 175.702 103.847 175.866 103.847C179.253 103.847 182.321 102.47 184.542 100.247C186.76 98.0236 188.132 94.9445 188.132 91.5467C188.132 88.1488 186.76 85.0697 184.542 82.8414C182.327 80.6156 179.258 79.2381 175.871 79.2381H111.488C108.104 79.2381 105.033 80.6156 102.817 82.8414C100.597 85.0644 99.2273 88.1436 99.2273 91.5467C99.2273 94.9445 100.6 98.0236 102.817 100.247C105.033 102.475 108.104 103.847 111.488 103.847C111.652 103.847 111.815 103.839 111.976 103.832L112.007 103.826C113.659 103.702 115.142 102.975 116.245 101.869C117.465 100.644 118.216 98.9587 118.216 97.0938C118.216 95.2263 117.465 93.5406 116.245 92.3158C115.026 91.0936 113.343 90.3403 111.486 90.3403C110.05 90.3403 108.889 89.1761 108.889 87.7353C108.889 86.2971 110.05 85.1303 111.486 85.1303C114.776 85.1303 117.755 86.4684 119.909 88.6361C121.297 90.0269 122.343 91.7574 122.912 93.6986H122.925ZM109.581 108.947C105.523 108.504 101.885 106.666 99.1456 103.918C95.9849 100.752 94.0331 96.3695 94.0331 91.5309C94.0331 86.6949 95.9849 82.3119 99.1456 79.1459C102.304 75.9772 106.671 74.0149 111.494 74.0149H175.873C180.696 74.0149 185.063 75.973 188.222 79.1459C191.382 82.3172 193.334 86.6949 193.334 91.5309C193.334 96.3642 191.382 100.752 188.222 103.918C185.482 106.666 181.845 108.504 177.786 108.947V163.847H181.236C182.669 163.847 183.831 165.011 183.831 166.452V182.564C183.831 184.005 182.669 185.169 181.236 185.169H106.131C104.695 185.169 103.536 184.005 103.536 182.564V166.452C103.536 165.011 104.695 163.847 106.131 163.847H109.581V108.947ZM151.525 163.847V125.746C151.525 123.584 150.643 121.616 149.22 120.186C147.795 118.756 145.838 117.873 143.684 117.873C141.529 117.873 139.567 118.761 138.142 120.186C136.719 121.616 135.837 123.578 135.837 125.746V163.847H151.53H151.525ZM178.634 169.057H108.723V179.959H178.634V169.057Z" stroke-width="4" stroke-miterlimit="8"/>
    </symbol>
    <symbol xmlns="http://www.w3.org/2000/svg" viewBox="0 0 275 293" id="history-link">
      <path d="M235.279 215.229C232.488 218.02 232.488 222.512 235.279 225.303C238.07 228.094 242.562 228.094 245.353 225.303L264.368 206.289C270.939 199.739 274.531 191 274.531 181.726C274.531 172.441 270.917 163.735 264.368 157.163C257.818 150.592 249.079 147 239.805 147C230.52 147 221.814 150.614 215.242 157.163L187.999 184.406C181.428 190.955 177.836 199.695 177.836 208.969C177.836 218.253 181.45 226.96 187.999 233.531C189.389 234.921 191.213 235.611 193.036 235.611C194.86 235.611 196.684 234.933 198.073 233.531C200.864 230.741 200.864 226.248 198.073 223.457C194.204 219.588 192.069 214.428 192.069 208.969C192.069 203.498 194.204 198.349 198.073 194.48L225.316 167.237C229.186 163.368 234.345 161.233 239.805 161.233C245.275 161.233 250.424 163.368 254.293 167.237C258.163 171.107 260.298 176.267 260.298 181.726C260.298 187.197 258.163 192.345 254.293 196.215L235.279 215.229Z"/>
      <path d="M170.252 222.277C173.043 219.486 173.043 214.994 170.252 212.203C167.461 209.411 162.969 209.412 160.177 212.203L141.163 231.217C134.592 237.766 131 246.506 131 255.78C131 265.064 134.614 273.771 141.163 280.343C147.713 286.914 156.452 290.506 165.726 290.506C175.011 290.506 183.717 286.892 190.289 280.343L217.532 253.1C224.103 246.551 227.695 237.811 227.695 228.537C227.695 219.252 224.081 210.546 217.532 203.974C214.741 201.183 210.248 201.183 207.457 203.974C204.666 206.765 204.666 211.257 207.457 214.049C211.327 217.918 213.462 223.078 213.462 228.537C213.462 234.008 211.327 239.156 207.457 243.026L180.215 270.268C176.345 274.138 171.185 276.273 165.726 276.273C160.255 276.273 155.107 274.138 151.237 270.268C147.368 266.399 145.233 261.239 145.233 255.78C145.233 250.309 147.368 245.161 151.237 241.291L170.252 222.277Z"/>
      <path d="M214.812 1.75C227.636 1.75007 239.253 6.94682 247.65 15.3623C256.058 23.7777 261.25 35.3935 261.25 48.2295C261.25 61.0524 256.057 72.6899 247.649 81.0947L247.65 81.0957C240.622 88.1304 231.358 92.921 221.011 94.3018V164.627L220.598 164.999L207.158 177.098L205.072 178.976V119.253C203.025 120.208 201.17 121.512 199.583 123.101C196.115 126.572 193.983 131.326 193.983 136.572V186.124L193.788 186.431L181.555 205.671L179.324 209.179L179.25 205.022L178.034 136.606V136.585C178.034 126.937 181.983 118.183 188.306 111.83L188.308 111.828C192.836 107.295 198.611 103.984 205.062 102.466V93.21C200.12 91.6401 195.689 88.8962 192.113 85.3066C187.637 80.8257 184.476 75.0162 183.259 68.5273H79.7471C78.5398 75.0165 75.3773 80.8258 70.8896 85.3066L70.8906 85.3076C67.3151 88.8864 62.883 91.6288 57.9424 93.208V102.466C64.1807 103.934 69.7771 107.08 74.2441 111.385L74.6953 111.827L74.6963 111.828C81.0334 118.171 84.9707 126.927 84.9707 136.585V233.709H96.5049V136.585C96.5049 126.937 100.453 118.183 106.776 111.83L106.778 111.828C113.115 105.485 121.863 101.545 131.502 101.545C141.141 101.545 149.889 105.485 156.226 111.828C162.563 118.171 166.5 126.927 166.5 136.585V218.688L165.917 219.057L153.045 227.188V234.945H151.808V236.195H144.811L139.142 248.906L138.812 249.647H42.2686V275.298H150.324L150.607 275.456L158.273 279.723L187.395 277.255L188.014 279.64L162.514 291.14L162.269 291.25H34.3125C29.9072 291.25 26.343 287.681 26.3428 283.274V241.671C26.3428 237.264 29.9067 233.695 34.3125 233.695H41.9883V94.3018C31.6416 92.9208 22.3776 88.1302 15.3496 81.0957V81.0947C6.94185 72.6903 1.75004 61.0642 1.75 48.2295C1.75 35.3942 6.94165 23.7671 15.3496 15.3623L16.1465 14.584C24.4732 6.63839 35.7631 1.75008 48.1875 1.75H214.812ZM57.9414 233.698H69.0293V136.573C69.0293 131.34 66.888 126.574 63.4297 123.102L63.0479 122.729C61.5481 121.308 59.8264 120.132 57.9414 119.253V233.698ZM131.499 117.493C126.271 117.493 121.509 119.637 118.039 123.1C114.581 126.573 112.44 131.327 112.44 136.57V233.695H150.545V136.57C150.545 131.337 148.404 126.571 144.945 123.098V123.099C141.477 119.627 136.728 117.493 131.499 117.493ZM48.1787 17.7383C39.758 17.7383 32.1294 21.1537 26.6172 26.6709L26.6162 26.6719C21.0947 32.1875 17.6924 39.8235 17.6924 48.2656C17.6925 56.4317 20.8958 63.8524 26.1074 69.3242L26.6172 69.8477L26.6182 69.8486C32.1289 75.3754 39.757 78.7812 48.1787 78.7812C48.5457 78.7812 48.9187 78.7612 49.3145 78.7393L49.3389 78.7363L49.3799 78.7305L49.4219 78.7275C53.3843 78.4306 56.9476 76.6916 59.6025 74.0342C62.5311 71.1029 64.3339 67.0592 64.334 62.5869C64.334 58.2543 62.6424 54.3234 59.874 51.417L59.6025 51.1396C56.674 48.2084 52.6341 46.4043 48.167 46.4043C43.7616 46.4042 40.1973 42.8348 40.1973 38.4277C40.1974 34.0208 43.7613 30.4523 48.167 30.4521C57.0257 30.4521 65.0544 34.0475 70.8564 39.8662C74.3738 43.3868 77.0786 47.7224 78.6631 52.5742H184.307C185.891 47.7223 188.596 43.3865 192.113 39.8662C197.914 34.0597 205.954 30.4522 214.803 30.4521C219.208 30.4521 222.772 34.0207 222.772 38.4277C222.772 42.8348 219.209 46.4043 214.803 46.4043C210.336 46.4043 206.296 48.2083 203.367 51.1396C200.439 54.0709 198.636 58.1148 198.636 62.5869C198.636 67.0591 200.439 71.103 203.367 74.0342C205.937 76.6068 209.362 78.3104 213.181 78.6943L213.551 78.7275L213.592 78.7305L213.631 78.7363L213.658 78.7402C214.018 78.7695 214.397 78.7812 214.792 78.7812C223.212 78.7811 230.841 75.3648 236.365 69.8467C241.876 64.3299 245.289 56.6944 245.289 48.2656C245.289 39.8365 241.876 32.2001 236.363 26.6709V26.6699C230.851 21.1536 223.223 17.7383 214.803 17.7383H48.1787Z" stroke-width="2.5"/>
    </symbol>
    <symbol xmlns="http://www.w3.org/2000/svg" viewBox="0 0 270 217" id="languages-folder">
      <path fill-rule="evenodd" clip-rule="evenodd" d="M81.2971 0C88.8537 0.00123717 98.1647 3.86814 103.517 9.24043L117.665 23.4452C118.437 24.2139 119.902 25.0809 121.542 25.7649C123.183 26.448 124.831 26.8808 125.922 26.8815H241.974C257.245 26.8828 269.704 39.3636 269.704 54.737V189.144C269.704 204.519 257.245 217 241.974 217H27.73C12.4583 217 0 204.519 0 189.144V27.8552C0 12.4821 12.4583 0.000989738 27.73 0H81.2971ZM27.73 19.8747C23.3281 19.8759 19.7626 23.4771 19.7626 27.8552V189.144C19.7626 193.523 23.3281 197.124 27.73 197.126H241.974C246.375 197.124 249.941 193.523 249.941 189.144V54.737C249.941 50.3586 246.375 46.7574 241.974 46.7565H125.922C118.365 46.7557 109.054 42.8886 103.702 37.5158L89.554 23.3019C88.782 22.5329 87.3171 21.6659 85.6766 20.9822C84.0362 20.299 82.3883 19.8757 81.2971 19.8747H27.73Z"/>
      <path fill-rule="evenodd" clip-rule="evenodd" d="M155.876 125.796C154.355 125.796 152.979 126.699 152.385 128.104L140.986 154.765C140.159 156.698 141.05 158.939 142.98 159.763C144.908 160.592 147.144 159.697 147.966 157.764L150.237 152.457H161.513L163.784 157.764C164.4 159.207 165.803 160.073 167.276 160.073C167.773 160.073 168.283 159.974 168.77 159.758C170.7 158.93 171.593 156.693 170.767 154.76C170.767 154.76 160.5 130.5 159.368 128.099C158.235 125.698 155.876 125.796 155.876 125.796ZM155.876 139.271L153.496 144.838H158.254L155.876 139.271Z"/>
      <path fill-rule="evenodd" clip-rule="evenodd" d="M146.375 110.559H176.775C183.059 110.559 188.174 115.685 188.174 121.985V163.881C188.174 170.18 183.059 175.307 176.775 175.307H134.975C128.691 175.307 123.576 170.18 123.576 163.881V133.412H93.1764C86.8915 133.412 81.7771 128.285 81.7771 121.985V80.0895C81.7771 73.7898 86.8915 68.663 93.1764 68.663H134.975C141.26 68.663 146.375 73.7898 146.375 80.0895V110.559ZM89.3758 80.0895V121.985C89.3758 124.086 91.0831 125.793 93.1764 125.793H134.975C137.071 125.793 138.776 124.086 138.776 121.985V80.0895C138.776 77.9888 137.071 76.2815 134.975 76.2815H93.1764C91.0831 76.2815 89.3758 77.9888 89.3758 80.0895ZM176.775 167.689C178.868 167.689 180.575 165.981 180.575 163.881V121.985C180.575 119.884 178.868 118.177 176.775 118.177H146.375V121.985C146.375 128.285 141.26 133.412 134.975 133.412H131.175V163.881C131.175 165.981 132.88 167.689 134.975 167.689H176.775ZM127.315 94.1017C127.513 92.9907 127.216 91.8451 126.493 90.9791V90.9642C125.771 90.1007 124.707 89.5959 123.576 89.5959H115.975V85.7879C115.975 83.6847 114.275 81.9799 112.177 81.9799C110.076 81.9799 108.376 83.6847 108.376 85.7879V89.5959H104.576C102.477 89.5959 100.778 91.3007 100.778 93.4064C100.778 95.5096 102.477 97.2144 104.576 97.2144H118.608C117.581 100.005 115.913 103.123 113.196 106.04C110.467 108.975 107.028 111.274 103.237 112.696C101.275 113.434 100.283 115.629 101.018 117.601C101.589 119.13 103.037 120.072 104.576 120.072C105.024 120.072 105.474 119.991 105.917 119.827C110.789 118.001 115.23 115.03 118.756 111.249C124.336 105.261 126.488 98.6199 127.315 94.1017Z"/>
      <path fill-rule="evenodd" clip-rule="evenodd" d="M155.876 125.796C154.355 125.796 152.979 126.699 152.385 128.104L140.986 154.765C140.159 156.698 141.05 158.939 142.98 159.763C144.908 160.592 147.144 159.697 147.966 157.764L150.237 152.457H161.513L163.784 157.764C164.4 159.207 165.803 160.073 167.276 160.073C167.773 160.073 168.283 159.974 168.77 159.758C170.7 158.93 171.593 156.693 170.767 154.76C170.767 154.76 160.5 130.5 159.368 128.099C158.235 125.698 155.876 125.796 155.876 125.796ZM155.876 139.271L153.496 144.838H158.254L155.876 139.271Z" stroke-width="4" stroke-miterlimit="8"/>
      <path fill-rule="evenodd" clip-rule="evenodd" d="M146.375 110.559H176.775C183.059 110.559 188.174 115.685 188.174 121.985V163.881C188.174 170.18 183.059 175.307 176.775 175.307H134.975C128.691 175.307 123.576 170.18 123.576 163.881V133.412H93.1764C86.8915 133.412 81.7771 128.285 81.7771 121.985V80.0895C81.7771 73.7898 86.8915 68.663 93.1764 68.663H134.975C141.26 68.663 146.375 73.7898 146.375 80.0895V110.559ZM89.3758 80.0895V121.985C89.3758 124.086 91.0831 125.793 93.1764 125.793H134.975C137.071 125.793 138.776 124.086 138.776 121.985V80.0895C138.776 77.9888 137.071 76.2815 134.975 76.2815H93.1764C91.0831 76.2815 89.3758 77.9888 89.3758 80.0895ZM176.775 167.689C178.868 167.689 180.575 165.981 180.575 163.881V121.985C180.575 119.884 178.868 118.177 176.775 118.177H146.375V121.985C146.375 128.285 141.26 133.412 134.975 133.412H131.175V163.881C131.175 165.981 132.88 167.689 134.975 167.689H176.775ZM127.315 94.1017C127.513 92.9907 127.216 91.8451 126.493 90.9791V90.9642C125.771 90.1007 124.707 89.5959 123.576 89.5959H115.975V85.7879C115.975 83.6847 114.275 81.9799 112.177 81.9799C110.076 81.9799 108.376 83.6847 108.376 85.7879V89.5959H104.576C102.477 89.5959 100.778 91.3007 100.778 93.4064C100.778 95.5096 102.477 97.2144 104.576 97.2144H118.608C117.581 100.005 115.913 103.123 113.196 106.04C110.467 108.975 107.028 111.274 103.237 112.696C101.275 113.434 100.283 115.629 101.018 117.601C101.589 119.13 103.037 120.072 104.576 120.072C105.024 120.072 105.474 119.991 105.917 119.827C110.789 118.001 115.23 115.03 118.756 111.249C124.336 105.261 126.488 98.6199 127.315 94.1017Z" stroke-width="4" stroke-miterlimit="8"/>
    </symbol>
    <symbol xmlns="http://www.w3.org/2000/svg" viewBox="0 0 287 288" id="languages-link">
      <path fill-rule="evenodd" clip-rule="evenodd" d="M256.25 112.75H174.25V30.75C174.25 13.799 160.451 0 143.5 0H30.75C13.799 0 0 13.799 0 30.75V143.5C0 160.451 13.799 174.25 30.75 174.25H112.75V256.25C112.75 273.201 126.549 287 143.5 287H177L155.5 266.5H143.5C137.85 266.5 133.25 261.9 133.25 256.25V174.25H143.5C160.451 174.25 174.25 160.451 174.25 143.5V133.25H256.25C261.9 133.25 266.5 137.85 266.5 143.5V157.5L286.5 180V143.5C286.5 126.549 273.201 112.75 256.25 112.75ZM20.5 30.75V143.5C20.5 149.15 25.0995 153.75 30.75 153.75H143.5C149.15 153.75 153.75 149.15 153.75 143.5V30.75C153.75 25.0995 149.15 20.5 143.5 20.5H30.75C25.0995 20.5 20.5 25.0995 20.5 30.75Z"/>
      <path fill-rule="evenodd" clip-rule="evenodd" d="M122.835 68.4585C123.373 65.4731 122.566 62.3854 120.618 60.0535L120.617 60.0145C118.669 57.6955 115.799 56.3373 112.75 56.3373H92.2499V46.0873C92.2499 40.4241 87.6632 35.8373 81.9999 35.8373C76.3367 35.8373 71.7499 40.4241 71.7499 46.0873V56.3373H61.4999C55.8367 56.3373 51.2499 60.9241 51.2499 66.5873C51.2499 72.2506 55.8367 76.8373 61.4999 76.8373H99.3478C96.5805 84.3456 92.0833 92.7378 84.7545 100.592C77.3873 108.484 68.1111 114.672 57.8867 118.504C52.5952 120.489 49.9174 126.396 51.9033 131.7C53.441 135.813 57.3488 138.35 61.4999 138.35C62.7044 138.35 63.9216 138.132 65.1132 137.696C78.2601 132.776 90.24 124.781 99.7467 114.608C114.802 98.4909 120.606 80.6175 122.835 68.4585Z"/>
      <path d="M209.294 159.966C207.679 156.199 203.976 153.752 199.876 153.752C195.776 153.752 192.061 156.186 190.459 159.966L170.5 211L213.5 168L209.294 159.953V159.966Z"/>
      <path d="M247.279 212.229C244.488 215.02 244.488 219.512 247.279 222.303C250.07 225.094 254.562 225.094 257.353 222.303L276.368 203.289C282.939 196.739 286.531 188 286.531 178.726C286.531 169.441 282.917 160.735 276.368 154.163C269.818 147.592 261.079 144 251.805 144C242.52 144 233.814 147.614 227.242 154.163L199.999 181.406C193.428 187.955 189.836 196.695 189.836 205.969C189.836 215.253 193.45 223.96 199.999 230.531C201.389 231.921 203.213 232.611 205.036 232.611C206.86 232.611 208.684 231.933 210.073 230.531C212.864 227.741 212.864 223.248 210.073 220.457C206.204 216.588 204.069 211.428 204.069 205.969C204.069 200.498 206.204 195.349 210.073 191.48L237.316 164.237C241.186 160.368 246.345 158.233 251.805 158.233C257.275 158.233 262.424 160.368 266.293 164.237C270.163 168.107 272.298 173.267 272.298 178.726C272.298 184.197 270.163 189.345 266.293 193.215L247.279 212.229Z"/>
      <path d="M182.252 219.277C185.043 216.486 185.043 211.994 182.252 209.203C179.461 206.411 174.969 206.412 172.177 209.203L153.163 228.217C146.592 234.766 143 243.506 143 252.78C143 262.064 146.614 270.771 153.163 277.343C159.713 283.914 168.452 287.506 177.726 287.506C187.011 287.506 195.717 283.892 202.289 277.343L229.532 250.1C236.103 243.551 239.695 234.811 239.695 225.537C239.695 216.252 236.081 207.546 229.532 200.974C226.741 198.183 222.248 198.183 219.457 200.974C216.666 203.765 216.666 208.257 219.457 211.049C223.327 214.918 225.462 220.078 225.462 225.537C225.462 231.008 223.327 236.156 219.457 240.026L192.215 267.268C188.345 271.138 183.185 273.273 177.726 273.273C172.255 273.273 167.107 271.138 163.237 267.268C159.368 263.399 157.233 258.239 157.233 252.78C157.233 247.309 159.368 242.161 163.237 238.291L182.252 219.277Z"/>
    </symbol>
    <symbol xmlns="http://www.w3.org/2000/svg" viewBox="0 0 287 288" id="default-link">
      <path d="M114.504 267.534C88.3552 293.696 45.7594 293.697 19.6111 267.535C-6.53737 241.372 -6.53695 198.753 19.6118 172.59L72.3305 119.843C98.4793 93.6796 141.075 93.6793 167.223 119.842C168.285 120.876 169.132 122.11 169.713 123.474C170.294 124.838 170.598 126.303 170.609 127.786C170.619 129.268 170.334 130.738 169.772 132.109C169.21 133.481 168.381 134.727 167.333 135.776C166.285 136.824 165.04 137.654 163.669 138.216C162.298 138.779 160.829 139.063 159.347 139.053C157.866 139.043 156.401 138.738 155.038 138.157C153.675 137.575 152.441 136.729 151.408 135.666C133.748 117.996 105.806 117.997 88.1459 135.667L35.4271 188.414C17.7667 206.084 17.7665 234.041 35.4267 251.711C53.087 269.38 81.028 269.38 98.6887 251.71L148.771 201.6C149.805 200.537 151.039 199.691 152.402 199.109C153.765 198.528 155.229 198.223 156.711 198.213C158.193 198.203 159.662 198.487 161.032 199.05C162.403 199.613 163.649 200.442 164.696 201.49C165.744 202.539 166.573 203.785 167.135 205.156C167.698 206.528 167.982 207.998 167.972 209.48C167.962 210.962 167.657 212.428 167.076 213.792C166.495 215.156 165.649 216.39 164.587 217.424L114.504 267.534ZM214.67 167.314C188.521 193.477 145.925 193.477 119.777 167.315C118.715 166.281 117.869 165.046 117.288 163.683C116.707 162.319 116.403 160.853 116.393 159.371C116.383 157.889 116.667 156.419 117.229 155.048C117.792 153.676 118.621 152.43 119.668 151.382C120.716 150.334 121.961 149.504 123.332 148.942C124.703 148.379 126.172 148.095 127.653 148.105C129.135 148.115 130.599 148.419 131.962 149C133.325 149.582 134.559 150.428 135.592 151.49C153.253 169.16 181.194 169.16 198.854 151.489L251.573 98.7424C269.233 81.0722 269.234 53.116 251.573 35.4461C233.913 17.7762 205.972 17.7762 188.311 35.4464L138.229 85.5565C137.196 86.6197 135.962 87.4668 134.598 88.0486C133.235 88.6305 131.77 88.9354 130.288 88.9458C128.806 88.9562 127.337 88.672 125.966 88.1094C124.595 87.5468 123.349 86.717 122.301 85.6685C121.253 84.6201 120.424 83.3737 119.862 82.0018C119.3 80.6299 119.015 79.1599 119.026 77.6771C119.036 76.1944 119.341 74.7284 119.923 73.3646C120.504 72.0007 121.351 70.7661 122.413 69.7324L172.496 19.6225C198.645 -6.54053 241.241 -6.54088 267.389 19.6218C293.537 45.7842 293.537 88.4033 267.388 114.566L214.67 167.314Z"/>
    </symbol>
    <symbol xmlns="http://www.w3.org/2000/svg" viewBox="0 0 281 227" id="math-folder">
      <path fill-rule="evenodd" clip-rule="evenodd" d="M84.7022 0C92.5753 0.00128899 102.276 4.03015 107.852 9.62746L122.593 24.4271C123.398 25.2281 124.924 26.1315 126.633 26.844C128.342 27.5558 130.059 28.0067 131.196 28.0074H252.109C268.02 28.0087 281 41.0123 281 57.0296V197.066C281 213.086 268.02 226.089 252.109 226.089H28.8914C12.9801 226.089 0 213.086 0 197.066V29.0219C0 13.0049 12.9801 0.00103119 28.8914 0H84.7022ZM28.8914 20.7071C24.3052 20.7084 20.5903 24.4604 20.5903 29.0219V197.066C20.5903 201.629 24.3052 205.38 28.8914 205.383H252.109C256.695 205.38 260.41 201.629 260.41 197.066V57.0296C260.41 52.4679 256.695 48.7159 252.109 48.7148H131.196C123.323 48.7141 113.622 44.6849 108.046 39.0871L93.3049 24.2779C92.5006 23.4767 90.9744 22.5733 89.2652 21.861C87.556 21.1492 85.8391 20.7082 84.7022 20.7071H28.8914Z"/>
      <path d="M175.466 72.2662C180.869 72.2671 185.777 74.4795 189.328 78.0375C192.882 81.5988 195.086 86.5166 195.087 91.9268V162.004C195.086 167.418 192.878 172.336 189.328 175.894C185.773 179.455 180.866 181.664 175.466 181.665H105.533C100.13 181.664 95.2229 179.452 91.6723 175.894C88.1182 172.333 85.9137 167.415 85.9129 162.004V91.9268C85.9137 86.5131 88.1216 81.5954 91.6723 78.0375C95.2263 74.4761 100.134 72.2671 105.533 72.2662H175.466ZM143.917 174.834H175.466C178.981 174.834 182.184 173.39 184.513 171.06C186.836 168.731 188.27 165.52 188.27 161.995V130.381H143.917V174.834ZM92.7385 162.004C92.7393 165.525 94.1807 168.728 96.5051 171.06H96.4965C98.8207 173.389 102.025 174.834 105.542 174.834H137.092V130.381H92.7385V162.004ZM126.805 154.736C128.687 154.736 130.214 156.265 130.214 158.151C130.213 160.038 128.687 161.567 126.805 161.567H104.956C103.074 161.566 101.548 160.037 101.548 158.151C101.548 156.265 103.074 154.736 104.956 154.736H126.805ZM176.053 147.336C177.934 147.337 179.461 148.866 179.461 150.751C179.461 152.636 177.933 154.165 176.053 154.167H154.204C152.321 154.167 150.787 152.637 150.786 150.751C150.786 148.861 152.322 147.336 154.204 147.336H176.053ZM126.805 139.936C128.687 139.936 130.214 141.474 130.214 143.36C130.212 145.244 128.686 146.775 126.805 146.775H104.956C103.075 146.775 101.55 145.244 101.548 143.36C101.548 141.474 103.074 139.936 104.956 139.936H126.805ZM143.917 123.55H188.27V91.9268C188.269 88.407 186.828 85.2039 184.504 82.8716C182.18 80.543 178.983 79.098 175.466 79.0971H143.908L143.917 123.55ZM105.542 79.0971C102.028 79.0971 98.8246 80.542 96.4965 82.8716C94.1719 85.2009 92.7297 88.4109 92.7297 91.9356L92.7385 123.55H137.092V79.0971H105.542ZM115.881 88.8092C117.767 88.8092 119.298 90.3476 119.298 92.2334V99.7562H126.805C128.688 99.7562 130.222 101.294 130.222 103.18C130.221 105.07 128.686 106.596 126.805 106.596H119.298V114.127C119.297 116.013 117.763 117.543 115.881 117.543C114 117.542 112.473 116.012 112.472 114.127V106.596H104.956C103.075 106.595 101.549 105.065 101.548 103.18C101.548 101.294 103.074 99.7568 104.956 99.7562H112.472V92.2334C112.472 90.3476 113.999 88.8102 115.881 88.8092ZM170.975 92.5837C172.299 91.7093 174.099 91.8565 175.266 93.0216C176.593 94.3572 176.594 96.5204 175.266 97.8557L169.952 103.172L175.266 108.505C176.592 109.838 176.591 111.996 175.266 113.33V113.339C173.934 114.67 171.775 114.668 170.441 113.339L165.128 108.006L159.814 113.339C158.481 114.669 156.323 114.669 154.99 113.339V113.33C153.664 111.995 153.663 109.84 154.99 108.505L160.295 103.172L154.99 97.8557C153.66 96.5225 153.662 94.3566 154.99 93.0216L155.523 92.5837C156.847 91.708 158.647 91.856 159.814 93.0216L165.128 98.346L170.441 93.0216L170.975 92.5837Z" stroke-width="4"/>
    </symbol>
    <symbol xmlns="http://www.w3.org/2000/svg" viewBox="0 0 294 294" id="math-link">
      <path d="M250.279 215.229C247.488 218.02 247.488 222.512 250.279 225.303C253.07 228.094 257.562 228.094 260.353 225.303L279.368 206.289C285.939 199.739 289.531 191 289.531 181.726C289.531 172.441 285.917 163.735 279.368 157.163C272.818 150.592 264.079 147 254.805 147C245.52 147 236.814 150.614 230.242 157.163L202.999 184.406C196.428 190.955 192.836 199.695 192.836 208.969C192.836 218.253 196.45 226.96 202.999 233.531C204.389 234.921 206.213 235.611 208.036 235.611C209.86 235.611 211.684 234.933 213.073 233.531C215.864 230.741 215.864 226.248 213.073 223.457C209.204 219.588 207.069 214.428 207.069 208.969C207.069 203.498 209.204 198.349 213.073 194.48L240.316 167.237C244.186 163.368 249.345 161.233 254.805 161.233C260.275 161.233 265.424 163.368 269.293 167.237C273.163 171.107 275.298 176.267 275.298 181.726C275.298 187.197 273.163 192.345 269.293 196.215L250.279 215.229Z"/>
      <path d="M185.252 222.277C188.043 219.486 188.043 214.994 185.252 212.203C182.461 209.411 177.969 209.412 175.177 212.203L156.163 231.217C149.592 237.766 146 246.506 146 255.78C146 265.064 149.614 273.771 156.163 280.343C162.713 286.914 171.452 290.506 180.726 290.506C190.011 290.506 198.717 286.892 205.289 280.343L232.532 253.1C239.103 246.551 242.695 237.811 242.695 228.537C242.695 219.252 239.081 210.546 232.532 203.974C229.741 201.183 225.248 201.183 222.457 203.974C219.666 206.765 219.666 211.257 222.457 214.049C226.327 217.918 228.462 223.078 228.462 228.537C228.462 234.008 226.327 239.156 222.457 243.026L195.215 270.268C191.345 274.138 186.185 276.273 180.726 276.273C175.255 276.273 170.107 274.138 166.237 270.268C162.368 266.399 160.233 261.239 160.233 255.78C160.233 250.309 162.368 245.161 166.237 241.291L185.252 222.277Z"/>
      <path d="M17.7568 240.765C17.7568 250.509 21.7512 259.38 28.1904 265.828H28.1895C34.628 272.267 43.4994 276.261 53.2529 276.261H139.019V154.999H17.7568V240.765ZM110.272 222.461C114.686 222.461 118.271 226.047 118.271 230.46C118.271 234.873 114.686 238.46 110.272 238.46H51.6826C47.2692 238.46 43.6826 234.873 43.6826 230.46C43.6828 226.047 47.2693 222.461 51.6826 222.461H110.272ZM110.272 182.866C114.686 182.866 118.271 186.452 118.271 190.865C118.271 195.279 114.686 198.864 110.272 198.864H51.6826C47.2692 198.864 43.6826 195.279 43.6826 190.865C43.6826 186.452 47.2692 182.866 51.6826 182.866H110.272ZM291 153.749C292.192 154.127 292.192 154.128 292.191 154.128V154.129C292.191 154.13 292.19 154.131 292.189 154.133C292.188 154.136 292.187 154.14 292.186 154.146C292.182 154.157 292.177 154.173 292.17 154.193C292.157 154.234 292.138 154.294 292.112 154.37C292.062 154.523 291.987 154.745 291.891 155.021C291.698 155.575 291.416 156.352 291.062 157.251C290.356 159.04 289.342 161.355 288.134 163.363C287.53 164.367 286.859 165.326 286.131 166.111C285.414 166.885 284.57 167.568 283.605 167.903C282.582 168.259 281.49 168.195 280.454 167.576C279.477 166.992 278.639 165.971 277.898 164.591C276.74 162.433 274.116 160.65 270.496 159.238C266.924 157.845 262.615 156.901 258.418 156.267C254.231 155.634 250.207 155.316 247.225 155.157C245.735 155.078 244.508 155.038 243.656 155.019C243.23 155.009 242.898 155.004 242.673 155.002C242.561 155.001 242.475 154.999 242.418 154.999H155.008V260.944L183.339 286.573L185.433 288.467L182.623 288.744L147.123 292.244L147.062 292.25H53.2354C39.0631 292.25 26.186 286.452 16.8672 277.133C7.53931 267.805 1.75 254.928 1.75 240.765V53.2354C1.75 39.0631 7.54834 26.186 16.8672 16.8672C26.1951 7.53931 39.0722 1.75 53.2354 1.75H240.765C254.937 1.75 267.814 7.54834 277.133 16.8672C286.461 26.1951 292.25 39.0722 292.25 53.2354V153.942L292.191 154.127L291 153.749ZM154.999 139.001H276.261V53.2354C276.261 43.4909 272.266 34.6197 265.827 28.1719V28.1709C259.389 21.7329 250.518 17.7393 240.765 17.7393H154.999V139.001ZM53.2441 17.748C43.4997 17.748 34.6285 21.7424 28.1807 28.1816L28.1797 28.1807C21.7414 34.6192 17.748 43.4908 17.748 53.2441V139.001H139.01V17.748H53.2441ZM80.9814 46.0391C85.4048 46.0391 88.9805 49.6257 88.9805 54.0381V75.3379H110.281C114.694 75.338 118.28 78.9237 118.28 83.3369C118.28 87.7601 114.693 91.3358 110.281 91.3359H88.9805V112.637C88.9804 117.05 85.3948 120.636 80.9814 120.636C76.5681 120.636 72.9825 117.05 72.9824 112.637V91.3359H51.6826C47.2692 91.3359 43.6826 87.7503 43.6826 83.3369C43.6828 78.9236 47.2693 75.3379 51.6826 75.3379H72.9824V54.0381C72.9824 49.6247 76.5681 46.0392 80.9814 46.0391ZM228.104 56.9639C231.133 53.9459 235.976 53.8512 239.117 56.6807L239.415 56.9639L239.418 56.9668C242.533 60.0925 242.533 65.1516 239.418 68.2773L239.417 68.2793L224.358 83.3369L239.417 98.3955C242.535 101.514 242.532 106.583 239.418 109.708L239.415 109.711C236.289 112.826 231.23 112.826 228.104 109.711L228.104 109.709L213.045 94.6504L197.986 109.709L197.985 109.711C194.86 112.826 189.801 112.826 186.675 109.711L186.672 109.708C183.557 106.582 183.557 101.523 186.672 98.3975L186.673 98.3955L201.73 83.3369L186.673 68.2793C183.555 65.1612 183.557 60.0917 186.672 56.9668L186.675 56.9639C189.703 53.9461 194.545 53.8515 197.687 56.6807L197.985 56.9639L213.045 72.0234L228.104 56.9639Z" stroke-width="2.5"/>
    </symbol>
    <symbol xmlns="http://www.w3.org/2000/svg" viewBox="0 0 286 231" id="physics-folder">
      <path fill-rule="evenodd" clip-rule="evenodd" d="M86.2093 0C94.2226 0.00131193 104.096 4.10186 109.772 9.79877L124.775 24.8618C125.593 25.677 127.147 26.5964 128.886 27.3217C130.626 28.0461 132.373 28.505 133.531 28.5058H256.594C272.789 28.5071 286 41.7421 286 58.0444V200.573C286 216.877 272.789 230.112 256.594 230.112H29.4055C13.2111 230.112 0 216.877 0 200.573V29.5383C0 13.2363 13.2111 0.00104954 29.4055 0H86.2093ZM29.4055 21.0756C24.7377 21.0769 20.9567 24.8956 20.9567 29.5383V200.573C20.9567 205.217 24.7377 209.035 29.4055 209.037H256.594C261.262 209.035 265.043 205.217 265.043 200.573V58.0444C265.043 53.4014 261.262 49.5827 256.594 49.5816H133.531C125.517 49.5809 115.644 45.48 109.968 39.7826L94.9651 24.7099C94.1465 23.8944 92.5932 22.975 90.8535 22.25C89.1139 21.5256 87.3665 21.0766 86.2093 21.0756H29.4055Z"/>
      <path fill-rule="evenodd" clip-rule="evenodd" d="M193.441 79.1432C199.974 85.632 199.78 97.2085 194.163 110.679C191.371 117.192 187.918 123.405 183.859 129.225C187.918 135.044 191.373 141.26 194.165 147.775C199.78 161.244 199.98 172.823 193.441 179.306C186.9 185.79 175.245 185.601 161.677 180.025C155.12 177.252 148.862 173.822 143 169.795C137.138 173.825 130.878 177.254 124.318 180.028C110.75 185.601 99.0898 185.8 92.5591 179.306C86.0283 172.812 86.2198 161.244 91.8322 147.775C94.6266 141.26 98.0797 135.044 102.141 129.225C98.0823 123.405 94.6267 117.189 91.8349 110.674C86.2198 97.2059 86.0204 85.6268 92.5591 79.1432C99.1003 72.6589 110.755 72.8478 124.323 78.4243C130.88 81.1977 137.138 84.6271 143 88.6547C148.862 84.6245 155.122 81.1977 161.682 78.4217C175.25 72.8478 186.91 72.6492 193.441 79.1432ZM143 116.216C135.763 116.213 129.896 122.038 129.896 129.222C129.894 136.409 135.761 142.234 142.997 142.234C150.234 142.236 156.101 136.411 156.101 129.227C156.101 125.774 154.721 122.466 152.262 120.023C149.809 117.583 146.474 116.21 143 116.216ZM147.649 124.609C145.075 122.059 140.906 122.062 138.337 124.617C135.769 127.173 135.774 131.313 138.348 133.864C140.922 136.414 145.091 136.409 147.66 133.853C148.893 132.625 149.586 130.959 149.583 129.225C149.583 127.493 148.885 125.829 147.649 124.609ZM179.813 134.821C175.355 140.652 170.501 146.172 165.279 151.341C160.071 156.526 154.511 161.349 148.636 165.775C153.537 169.008 158.73 171.784 164.148 174.064C175.234 178.616 184.339 179.201 188.833 174.735C193.328 170.272 192.743 161.233 188.159 150.226C185.861 144.847 183.066 139.689 179.813 134.821ZM106.187 123.628C115.129 111.965 125.617 101.551 137.364 92.6744C132.463 89.4419 127.27 86.6658 121.852 84.3857C110.766 79.8333 101.661 79.2482 97.1665 83.714C92.6719 88.1772 93.257 97.2163 97.8409 108.223C100.139 113.602 102.934 118.761 106.187 123.628ZM137.364 165.775C131.492 161.351 125.932 156.529 120.723 151.344C115.502 146.175 110.645 140.654 106.187 134.821C102.931 139.689 100.137 144.845 97.8382 150.223C93.2544 161.23 92.6666 170.27 97.1639 174.733C101.659 179.196 110.761 178.614 121.849 174.061C127.267 171.781 132.46 169.008 137.364 165.775ZM148.636 92.6744C154.508 97.0983 160.068 101.921 165.276 107.106C170.498 112.275 175.355 117.795 179.813 123.628C183.069 118.761 185.863 113.605 188.162 108.226C192.746 97.219 193.333 88.1798 188.836 83.7166C184.341 79.2535 175.239 79.8359 164.151 84.3883C158.733 86.6685 153.54 89.4419 148.636 92.6744ZM175.903 129.225C171.28 123.001 166.19 117.137 160.672 111.679C155.175 106.2 149.268 101.144 143 96.5551C130.466 105.77 119.377 116.78 110.097 129.225C114.72 135.449 119.81 141.313 125.328 146.77C130.825 152.249 136.732 157.305 143 161.894C149.268 157.305 155.175 152.249 160.672 146.77C166.19 141.313 171.28 135.449 175.903 129.225Z" stroke-width="5" stroke-miterlimit="8"/>
    </symbol>
    <symbol xmlns="http://www.w3.org/2000/svg" viewBox="0 0 292 292" id="physics-link">
      <path d="M249.279 214.229C246.488 217.02 246.488 221.512 249.279 224.303C252.07 227.094 256.562 227.094 259.353 224.303L278.368 205.289C284.939 198.739 288.531 190 288.531 180.726C288.531 171.441 284.917 162.735 278.368 156.163C271.818 149.592 263.079 146 253.805 146C244.52 146 235.814 149.614 229.242 156.163L201.999 183.406C195.428 189.955 191.836 198.695 191.836 207.969C191.836 217.253 195.45 225.96 201.999 232.531C203.389 233.921 205.213 234.611 207.036 234.611C208.86 234.611 210.684 233.933 212.073 232.531C214.864 229.741 214.864 225.248 212.073 222.457C208.204 218.588 206.069 213.428 206.069 207.969C206.069 202.498 208.204 197.349 212.073 193.48L239.316 166.237C243.186 162.368 248.345 160.233 253.805 160.233C259.275 160.233 264.424 162.368 268.293 166.237C272.163 170.107 274.298 175.267 274.298 180.726C274.298 186.197 272.163 191.345 268.293 195.215L249.279 214.229Z"/>
      <path d="M184.252 221.277C187.043 218.486 187.043 213.994 184.252 211.203C181.461 208.412 176.969 208.412 174.177 211.203L155.163 230.217C148.592 236.766 145 245.506 145 254.78C145 264.064 148.614 272.771 155.163 279.343C161.713 285.914 170.452 289.506 179.726 289.506C189.011 289.506 197.717 285.892 204.289 279.343L231.531 252.1C238.103 245.551 241.695 236.811 241.695 227.537C241.695 218.252 238.081 209.546 231.531 202.974C228.741 200.183 224.248 200.183 221.457 202.974C218.666 205.765 218.666 210.258 221.457 213.049C225.327 216.918 227.462 222.078 227.462 227.537C227.462 233.008 225.327 238.156 221.457 242.026L194.215 269.268C190.345 273.138 185.185 275.273 179.726 275.273C174.255 275.273 169.107 273.138 165.237 269.268C161.368 265.399 159.233 260.239 159.233 254.78C159.233 249.309 161.368 244.161 165.237 240.291L184.252 221.277Z"/>
      <path d="M194.211 11.9932C229.561 -2.63668 260.45 -3.37864 277.901 14.0977C295.363 31.5593 294.637 62.4481 279.999 97.7998L279.995 97.8096C272.704 114.932 263.692 131.269 253.098 146.569L252.93 146.812L252.657 146.924L231.095 155.835L208.279 181.627C208.272 181.635 208.266 181.644 208.259 181.652L208.258 181.651L208.249 181.662L206.741 180.348C209.93 176.638 214.438 169.949 218.921 163.126C223.164 156.667 227.38 150.099 230.34 146.005C218.464 129.962 205.4 114.832 191.257 100.746L191.254 100.743C177.169 86.6016 162.042 73.5391 146.001 61.6641C113.923 85.5092 85.5092 113.923 61.6641 146.001C73.1634 161.535 85.7763 176.211 99.4043 189.914L100.743 191.254L100.746 191.257C114.833 205.401 129.964 218.465 146.008 230.342C150.663 227.041 156.463 224.375 162.055 221.681C163.594 220.939 165.118 220.194 166.605 219.433L176.356 211.234L176.931 210.752L179.055 212.168L180.138 212.89L179.161 213.75C175.925 216.601 171.918 218.952 167.723 221.107L155.925 231.028L151.748 255.667L151.491 257.182L150.211 256.334C148.799 255.399 147.394 254.45 145.999 253.489C130.86 263.916 114.712 272.8 97.7979 280.003L97.7891 280.007C62.4381 294.637 31.5486 295.379 14.0977 277.901C-3.35197 260.425 -2.63702 229.563 11.9863 194.211L11.9902 194.201C19.1954 177.287 28.08 161.138 38.5098 145.999C28.0828 130.86 19.1998 114.712 11.9971 97.7979L11.9932 97.7891C-2.63696 62.4381 -3.37866 31.5486 14.0986 14.0977C31.3016 -3.07932 61.4894 -2.65511 96.1494 11.3213L97.8037 11.9971L97.8135 12.001C114.723 19.2036 130.865 28.0856 146 38.5107C161.14 28.0834 177.288 19.2 194.202 11.9971L194.211 11.9932ZM50.3076 162.385C42.2078 174.736 35.2305 187.789 29.46 201.388L29.4609 201.389C23.5249 215.744 20.2038 228.752 19.7988 239.578C19.3937 250.41 21.9075 258.933 27.4844 264.508C33.0615 270.083 41.5845 272.597 52.416 272.192C63.24 271.788 76.244 268.469 90.5957 262.535L91.9102 261.974C105.041 256.316 117.657 249.529 129.614 241.69C114.715 230.305 100.596 217.932 87.3555 204.653V204.654C74.0737 191.409 61.6968 177.287 50.3076 162.385ZM145.999 110.919C150.606 110.914 155.168 111.818 159.424 113.581C163.68 115.344 167.545 117.93 170.799 121.19L171.33 121.733C176.759 127.401 180.137 134.732 180.908 142.558C181.705 150.635 179.675 158.739 175.166 165.488C170.657 172.237 163.948 177.214 156.181 179.57C148.414 181.927 140.069 181.517 132.57 178.411C125.072 175.305 118.882 169.694 115.056 162.536C111.23 155.378 110.005 147.115 111.589 139.154C113.173 131.194 117.468 124.028 123.743 118.88C130.018 113.732 137.883 110.918 145.999 110.919ZM147.56 129.979C143.846 129.617 140.122 130.554 137.022 132.631C133.923 134.707 131.638 137.794 130.56 141.366C129.481 144.938 129.675 148.774 131.107 152.219C132.54 155.664 135.122 158.506 138.415 160.26C141.708 162.014 145.507 162.572 149.165 161.839C152.823 161.106 156.114 159.126 158.477 156.238C160.839 153.351 162.127 149.733 162.121 146.002V146C162.12 143.884 161.702 141.79 160.89 139.836C160.077 137.882 158.887 136.108 157.388 134.615L157.387 134.614C154.746 131.979 151.273 130.34 147.56 129.979ZM52.4219 19.7988C41.5899 19.3937 33.0674 21.9075 27.4922 27.4844C21.9168 33.0615 19.4029 41.5845 19.8076 52.416C20.2122 63.242 23.5318 76.2488 29.4678 90.6035H29.4668C35.235 104.205 42.2111 117.261 50.3096 129.616C73.1476 99.8126 99.8126 73.1476 129.616 50.3096C117.264 42.2093 104.211 35.2317 90.6113 29.4609L89.2695 28.9121C75.4455 23.3201 62.9101 20.1912 52.4219 19.7988ZM264.516 27.4922C258.938 21.9168 250.416 19.4029 239.584 19.8076C228.76 20.2121 215.755 23.5298 201.403 29.4639L201.404 29.4648C187.8 35.2327 174.741 42.2075 162.385 50.3076C177.284 61.693 191.402 74.0667 204.644 87.3457C217.925 100.59 230.302 114.712 241.691 129.614C249.793 117.261 256.771 104.205 262.542 90.6045C268.476 76.2522 271.796 63.2467 272.201 52.4219C272.606 41.5899 270.092 33.0674 264.516 27.4922Z" stroke-width="2"/>
    </symbol>
    <symbol xmlns="http://www.w3.org/2000/svg" viewBox="0 0 270 218" id="socialstudies-folder">
      <path fill-rule="evenodd" clip-rule="evenodd" d="M81.3864 0C88.9514 0.00123853 98.2726 3.87239 103.63 9.25059L117.794 23.4709C118.567 24.2405 120.034 25.1085 121.676 25.7932C123.318 26.4771 124.968 26.9103 126.06 26.9111H242.24C257.528 26.9123 270 39.4069 270 54.7971V189.352C270 204.744 257.528 217.239 242.24 217.239H27.7604C12.472 217.239 0 204.744 0 189.352V27.8858C0 12.4958 12.472 0.000990826 27.7604 0H81.3864ZM27.7604 19.8965C23.3537 19.8978 19.7843 23.5029 19.7843 27.8858V189.352C19.7843 193.736 23.3537 197.34 27.7604 197.343H242.24C246.646 197.34 250.216 193.736 250.216 189.352V54.7971C250.216 50.414 246.646 46.8088 242.24 46.8079H126.06C118.495 46.8071 109.174 42.9357 103.816 37.557L89.6524 23.3275C88.8796 22.5576 87.4131 21.6897 85.7708 21.0053C84.1285 20.3213 82.4788 19.8975 81.3864 19.8965H27.7604Z"/>
      <path fill-rule="evenodd" clip-rule="evenodd" d="M135.557 87.0688C125.988 87.0688 118.171 94.5595 118.171 103.685C118.171 112.81 125.988 120.276 135.557 120.276C145.129 120.276 152.939 112.81 152.939 103.685C152.939 94.5595 145.129 87.0688 135.557 87.0688ZM135.557 93.0485C141.72 93.0485 146.66 97.7772 146.66 103.685C146.66 109.59 141.72 114.299 135.557 114.299C129.394 114.299 124.453 109.59 124.453 103.685C124.453 97.7772 129.394 93.0485 135.557 93.0485ZM101.993 103.97C94.7056 103.97 88.7334 109.675 88.7334 116.618C88.7334 123.558 94.7056 129.256 101.993 129.256C109.281 129.256 115.253 123.558 115.253 116.618C115.253 109.675 109.281 103.97 101.993 103.97ZM168.48 103.995C161.346 104.168 155.557 109.784 155.557 116.618C155.557 123.558 161.529 129.258 168.817 129.258C176.104 129.258 182.077 123.558 182.077 116.618C182.077 109.675 176.104 103.995 168.817 103.995C168.703 103.995 168.591 103.992 168.48 103.995ZM101.993 109.949C105.88 109.949 108.966 112.897 108.966 116.618C108.966 120.336 105.88 123.279 101.993 123.279C98.1066 123.279 95.0127 120.336 95.0127 116.618C95.0127 112.897 98.1066 109.949 101.993 109.949ZM168.817 109.949C172.703 109.949 175.797 112.897 175.797 116.618C175.797 120.336 172.703 123.279 168.817 123.279C164.93 123.279 161.837 120.336 161.837 116.618C161.837 112.897 164.93 109.949 168.817 109.949ZM135 122.659C125.669 122.659 117.45 127.21 112.64 134.108C109.474 132.114 105.672 130.955 101.599 130.955H101.594C90.5788 130.955 81.6193 139.501 81.6193 150.001V154.192C81.6267 155.842 83.0386 157.177 84.7726 157.17C86.4966 157.162 87.8937 155.835 87.8986 154.192V150.001C87.8986 142.704 93.9575 136.94 101.594 136.94C104.686 136.94 107.507 137.878 109.781 139.491C108.733 142.233 108.156 145.191 108.156 148.277V154.192C108.163 155.842 109.575 157.177 111.309 157.17C113.033 157.162 114.43 155.835 114.435 154.192V148.277C114.435 145.379 115.074 142.637 116.226 140.175C116.231 140.167 116.236 140.16 116.239 140.15C116.34 139.994 116.425 139.828 116.491 139.654C116.494 139.65 116.496 139.642 116.496 139.637C119.816 133.093 126.813 128.639 135 128.639C143.261 128.639 150.308 133.172 153.588 139.813C153.628 139.902 153.67 139.989 153.717 140.076C154.901 142.565 155.557 145.339 155.557 148.277V154.192C155.565 155.842 156.977 157.177 158.71 157.17C160.434 157.162 161.832 155.835 161.837 154.192V148.277C161.837 145.196 161.272 142.241 160.224 139.503C162.503 137.883 165.327 136.935 168.423 136.935C176.06 136.935 182.126 142.704 182.126 150.001V154.192C182.131 155.835 183.528 157.162 185.252 157.17C186.979 157.162 188.373 155.835 188.381 154.192V150.001C188.381 139.501 179.439 130.955 168.423 130.955C164.348 130.955 160.536 132.114 157.368 134.113C152.557 127.21 144.336 122.659 135 122.659Z" stroke-width="4" stroke-miterlimit="10" stroke-linecap="round" stroke-linejoin="round"/>
    </symbol>
    <symbol xmlns="http://www.w3.org/2000/svg" viewBox="0 0 288 244" id="socialstudies-link">
      <path d="M248.279 168.229C245.488 171.02 245.488 175.512 248.279 178.303C251.07 181.094 255.562 181.094 258.353 178.303L277.368 159.289C283.939 152.739 287.531 144 287.531 134.726C287.531 125.441 283.917 116.735 277.368 110.163C270.818 103.592 262.079 100 252.805 100C243.52 100 234.814 103.614 228.242 110.163L200.999 137.406C194.428 143.955 190.836 152.695 190.836 161.969C190.836 171.253 194.45 179.96 200.999 186.531C202.389 187.921 204.213 188.611 206.036 188.611C207.86 188.611 209.684 187.933 211.073 186.531C213.864 183.741 213.864 179.248 211.073 176.457C207.204 172.588 205.069 167.428 205.069 161.969C205.069 156.498 207.204 151.349 211.073 147.48L238.316 120.237C242.186 116.368 247.345 114.233 252.805 114.233C258.275 114.233 263.424 116.368 267.293 120.237C271.163 124.107 273.298 129.267 273.298 134.726C273.298 140.197 271.163 145.345 267.293 149.215L248.279 168.229Z"/>
      <path d="M183.252 175.277C186.043 172.486 186.043 167.994 183.252 165.203C180.461 162.412 175.969 162.412 173.177 165.203L154.163 184.217C147.592 190.766 144 199.506 144 208.78C144 218.064 147.614 226.771 154.163 233.343C160.713 239.914 169.452 243.506 178.726 243.506C188.011 243.506 196.717 239.892 203.289 233.343L230.532 206.1C237.103 199.551 240.695 190.811 240.695 181.537C240.695 172.252 237.081 163.546 230.532 156.974C227.741 154.183 223.248 154.183 220.457 156.974C217.666 159.765 217.666 164.258 220.457 167.049C224.327 170.918 226.462 176.078 226.462 181.537C226.462 187.008 224.327 192.156 220.457 196.026L193.215 223.268C189.345 227.138 184.185 229.273 178.726 229.273C173.255 229.273 168.107 227.138 164.237 223.268C160.368 219.399 158.233 214.239 158.233 208.78C158.233 203.309 160.368 198.161 164.237 194.291L183.252 175.277Z"/>
      <path d="M144.719 101.026C169.849 101.026 192.002 113.791 205.076 133.192C207.408 131.68 209.864 130.34 212.427 129.193L213.921 128.525L213.056 129.914L197.265 155.265L196.716 156.145L196.369 155.167C195.856 153.722 195.284 152.307 194.657 150.923H194.656C194.529 150.679 194.412 150.43 194.308 150.176C185.551 131.596 166.754 118.912 144.719 118.912C122.883 118.912 104.222 131.366 95.3652 149.671C95.3629 149.678 95.3608 149.685 95.3584 149.691L95.3545 149.702C95.1663 150.206 94.9318 150.691 94.6562 151.153C94.6479 151.171 94.6401 151.185 94.6367 151.191C94.635 151.195 94.6337 151.197 94.6328 151.199V151.2C91.5579 158.093 89.8545 165.768 89.8545 173.885V190.592C89.8452 192.952 88.9021 195.212 87.2314 196.881C85.5608 198.549 83.2978 199.491 80.9355 199.5C79.7599 199.505 78.5948 199.277 77.5068 198.832C76.4188 198.387 75.4285 197.732 74.5938 196.905C73.7591 196.078 73.0959 195.095 72.6416 194.012C72.1874 192.928 71.9509 191.766 71.9463 190.592V173.885C71.9463 165.237 73.4605 156.947 76.2246 149.25C70.2375 144.891 62.8602 142.36 54.7793 142.36C34.495 142.36 18.4082 158.414 18.4082 178.75V190.592C18.3989 192.952 17.4558 195.212 15.7852 196.881C14.1145 198.549 11.8515 199.491 9.48926 199.5C8.31349 199.505 7.14764 199.277 6.05957 198.832C4.9717 198.387 3.98207 197.732 3.14746 196.905C2.31281 196.078 1.64958 195.095 1.19531 194.012C0.741065 192.928 0.504615 191.766 0.5 190.592V178.75L0.504883 178.049C0.881586 148.44 25.0971 124.458 54.7949 124.458C65.6794 124.458 75.8564 127.658 84.376 133.177C97.4513 113.786 119.596 101.026 144.719 101.026ZM55.8525 48.2393C75.7499 48.2395 92.0508 64.5733 92.0508 84.458C92.0506 104.343 75.7495 120.659 55.8525 120.659C35.9551 120.659 19.6535 104.343 19.6533 84.458C19.6533 64.5732 35.9547 48.2393 55.8525 48.2393ZM235.765 48.3066C255.661 48.3068 271.963 64.5731 271.963 84.459C271.963 92.6407 269.202 100.218 264.569 106.303L264.477 106.425L264.33 106.474L226.159 119.265L226.012 119.314L225.862 119.271C210.734 114.93 199.567 100.919 199.566 84.459C199.566 64.8835 215.372 48.804 234.844 48.3066C235.156 48.2987 235.477 48.3066 235.765 48.3066ZM55.8525 66.127C45.667 66.127 37.5615 74.2302 37.5615 84.459C37.5613 94.6871 45.6664 102.774 55.8525 102.774C66.0375 102.774 74.1258 94.6875 74.126 84.459C74.126 74.2298 66.037 66.1272 55.8525 66.127ZM235.765 66.127C225.579 66.127 217.474 74.2302 217.474 84.459C217.474 94.6871 225.579 102.774 235.765 102.774C245.95 102.774 254.055 94.687 254.055 84.459C254.055 74.2303 245.95 66.1271 235.765 66.127ZM146.221 0.5C172.263 0.5 193.516 21.8823 193.516 47.9316C193.516 73.9818 172.262 95.2969 146.221 95.2969C120.18 95.2967 98.9102 73.9819 98.9102 47.9316C98.9102 21.8822 120.179 0.500209 146.221 0.5ZM146.221 18.3857C129.907 18.3859 116.818 31.5231 116.818 47.9316C116.818 64.3387 129.905 77.4109 146.221 77.4111C162.536 77.4111 175.607 64.3392 175.607 47.9316C175.607 31.5226 162.535 18.3857 146.221 18.3857Z"/>
    </symbol>
</svg>