<!-- Cleaned by SVG Sprite Color Stripper: colors removed -->
<svg width="0" height="0" class="hidden">
    <symbol xmlns="http://www.w3.org/2000/svg" viewBox="0 0 16 18" id="dir-up">
      <path d="M6.97943 1.08301C6.70721 0.838654 6.28879 0.83871 6.01654 1.08301L1.12982 5.48047L1.03412 5.58594C0.84032 5.84841 0.855222 6.2168 1.08978 6.46387C1.35572 6.74478 1.80481 6.76254 2.09271 6.50391L5.78607 3.17871L5.7851 12.5684C5.78513 13.7715 6.27615 14.9238 7.14838 15.7734C8.02043 16.6229 9.20198 17.0995 10.4345 17.0996H14.4999C14.8901 17.0996 15.2109 16.7907 15.2109 16.4043C15.2107 16.018 14.89 15.709 14.4999 15.709H10.4345C9.57817 15.7089 8.75694 15.378 8.15228 14.7881L8.04193 14.6748C7.50652 14.0987 7.20798 13.348 7.20795 12.5674V3.17773L10.9033 6.50391C11.1912 6.76252 11.6403 6.74477 11.9062 6.46387C12.1731 6.18158 12.1544 5.74047 11.8661 5.48047L6.97943 1.08301Z" stroke-width="0.2"/>
    </symbol>
    <symbol xmlns="http://www.w3.org/2000/svg" viewBox="0 0 47 47" id="magnifier">
      <path d="M23.5107 15.9454C23.5107 14.1902 24.1913 12.5444 25.4288 11.311C26.6621 10.0797 28.3039 9.40321 30.0549 9.40321H30.0735C30.9831 9.40321 31.7214 8.66692 31.7235 7.75734C31.7255 6.84571 30.9892 6.1053 30.0776 6.10324H30.0549C27.4252 6.10324 24.9544 7.12211 23.0981 8.97421C21.2357 10.8325 20.2106 13.3075 20.2106 15.9453V15.9639C20.2106 16.8755 20.9489 17.6036 21.8606 17.6036C22.7722 17.6056 23.5107 16.857 23.5107 15.9454Z"/>
      <path d="M1.64857 46.1298C2.07138 46.1298 2.49421 45.9668 2.81592 45.6451L19.9757 28.4441C22.9189 30.8303 26.516 32.0225 30.1169 32.0225C34.2337 32.0225 38.3526 30.4612 41.4852 27.3406C44.5253 24.3129 46.198 20.2908 46.198 16.0114C46.198 11.7318 44.5253 7.70767 41.4852 4.68226C35.2174 -1.56075 25.0165 -1.56075 18.7487 4.68226C15.7107 7.70793 14.0359 11.732 14.0359 16.0114C14.0359 19.7363 15.3064 23.2671 17.639 26.1136L0.481335 43.3146C-0.162185 43.9581 -0.160073 45.0037 0.48546 45.6472C0.805145 45.969 1.22781 46.1298 1.64857 46.1298ZM21.0772 7.0212C23.5708 4.54005 26.8439 3.29842 30.117 3.29842C33.3922 3.29842 36.6652 4.54005 39.1568 7.0212C41.5699 9.42194 42.8981 12.6148 42.8981 16.0114C42.8981 19.4062 41.5699 22.6007 39.1568 25.0015C34.1718 29.9638 26.062 29.9638 21.0772 25.0015C18.6641 22.6008 17.3359 19.408 17.3359 16.0114C17.3359 12.6145 18.6641 9.422 21.0772 7.0212Z"/>
    </symbol>
    <symbol xmlns="http://www.w3.org/2000/svg" viewBox="0 0 20 17" id="new-folder">
      <path d="M2.47888 6.96844e-05C1.11793 6.96844e-05 0 1.1242 0 2.48617V14.0655C0 15.4265 1.11897 16.5455 2.47888 16.5455H17.3686C18.7296 16.5455 19.8547 15.4265 19.8547 14.0655V4.96603C19.8547 3.60509 18.7296 2.47993 17.3686 2.47993L12.6353 2.48613L9.69712 0.720818C8.91221 0.249256 8.01661 0 7.10139 0L2.47888 6.96844e-05ZM2.47888 1.65472H7.10157C7.71792 1.65472 8.32085 1.82018 8.84827 2.13767L11.9818 4.0188C12.1111 4.09637 12.2589 4.13566 12.4089 4.13463H17.3739C17.8403 4.13463 18.1981 4.49865 18.1981 4.96505V14.0646C18.1981 14.531 17.8341 14.8888 17.3677 14.8888H2.47798C2.01158 14.8888 1.65375 14.531 1.65375 14.0646V2.48519C1.65375 2.0188 2.01158 1.65477 2.47798 1.65477L2.47888 1.65472Z"/>
      <path d="M7.02823 8.68498C6.80899 8.68602 6.59906 8.77392 6.44394 8.92905C6.28985 9.0852 6.20298 9.29617 6.20402 9.5154C6.20609 9.97044 6.57424 10.3386 7.02825 10.3396H12.8185C13.0377 10.3407 13.2487 10.2548 13.4048 10.0997C13.5599 9.94562 13.6478 9.73465 13.6489 9.51541C13.6499 9.29514 13.562 9.08314 13.4069 8.92697C13.2507 8.77184 13.0387 8.68394 12.8184 8.68498L7.02823 8.68498Z"/>
      <path d="M9.92374 5.79028C9.70346 5.79131 9.49353 5.87922 9.33945 6.03434C9.18432 6.1905 9.09746 6.40146 9.09849 6.62069V12.4098C9.09746 12.6301 9.18432 12.8411 9.33945 12.9962C9.49354 13.1524 9.70347 13.2403 9.92374 13.2413C10.144 13.2413 10.356 13.1544 10.5112 12.9983C10.6673 12.8421 10.7542 12.6312 10.7542 12.4098V6.62067C10.7542 6.40039 10.6673 6.1884 10.5112 6.03222C10.356 5.87607 10.144 5.78924 9.92374 5.79028Z"/>
    </symbol>
    <symbol xmlns="http://www.w3.org/2000/svg" viewBox="0 0 18 18" id="new-link">
      <path d="M5.82422 8.89476C5.60498 8.8958 5.39505 8.9837 5.23993 9.13882C5.08584 9.29498 4.99897 9.50594 5.00001 9.72518C5.00208 10.1802 5.37023 10.5484 5.82424 10.5494H11.6145C11.8337 10.5504 12.0447 10.4646 12.2008 10.3095C12.3559 10.1554 12.4438 9.94443 12.4449 9.72519C12.4459 9.50492 12.358 9.29292 12.2029 9.13675C12.0467 8.98162 11.8347 8.89372 11.6144 8.89475L5.82422 8.89476Z"/>
      <path d="M8.71973 6.00001C8.49945 6.00104 8.28952 6.08895 8.13544 6.24407C7.98031 6.40023 7.89345 6.61119 7.89448 6.83043V12.6196C7.89345 12.8399 7.98031 13.0509 8.13544 13.206C8.28953 13.3621 8.49946 13.45 8.71973 13.4511C8.94 13.4511 9.152 13.3642 9.30714 13.208C9.4633 13.0519 9.55017 12.8409 9.55017 12.6196V6.8304C9.55017 6.61013 9.4633 6.39813 9.30714 6.24195C9.15202 6.0858 8.94002 5.99897 8.71973 6.00001Z"/>
      <path d="M8.38477 2.43848C8.77978 2.4386 9.09941 2.75833 9.09961 3.15332C9.09961 3.54848 8.7799 3.86902 8.38477 3.86914H3.15234C2.69996 3.86914 2.33116 4.23805 2.33105 4.69043V14.8477C2.33111 15.3001 2.69992 15.6689 3.15234 15.6689H13.6172C14.0695 15.6688 14.4384 15.3 14.4385 14.8477V9.61523C14.4385 9.22002 14.7591 8.90039 15.1543 8.90039C15.5493 8.90063 15.8691 9.2202 15.8691 9.61523V14.8477C15.8691 16.0889 14.8585 17.0995 13.6172 17.0996H3.15234C1.91099 17.0996 0.900409 16.0891 0.900391 14.8477V4.69043C0.900524 3.44917 1.91098 2.43848 3.15234 2.43848H8.38477ZM16.3848 0.900391C16.4319 0.900399 16.4791 0.905487 16.5205 0.912109H16.5215C16.5385 0.914983 16.5537 0.919595 16.5635 0.922852C16.5751 0.926742 16.5783 0.928391 16.583 0.929688H16.584C16.5968 0.933359 16.6328 0.941541 16.6621 0.955078L16.7285 0.990234L16.7295 0.991211C16.7329 0.993276 16.7366 0.994744 16.7471 1C16.7552 1.00405 16.7673 1.01075 16.7803 1.01953C16.8593 1.0716 16.9284 1.13976 16.9805 1.21875L16.999 1.25293L17.0078 1.26855L17.0439 1.34082L17.0684 1.41602V1.41699C17.0697 1.42183 17.0712 1.42541 17.0752 1.4375C17.0783 1.44684 17.0821 1.46064 17.085 1.47656H17.0859C17.0945 1.52136 17.0996 1.56771 17.0996 1.61523V6.53809C17.0996 6.93327 16.7799 7.25383 16.3848 7.25391C15.9895 7.25391 15.6689 6.93332 15.6689 6.53809V3.34277L11.9678 7.04492C11.8283 7.18438 11.6439 7.25383 11.4619 7.25391C11.2797 7.25391 11.0947 7.18455 10.9551 7.04492V7.04395C10.6768 6.76355 10.6762 6.31132 10.9551 6.03223L14.6572 2.33105H11.4619C11.0667 2.33105 10.7461 2.01047 10.7461 1.61523C10.7462 1.22007 11.0667 0.900391 11.4619 0.900391H16.3848Z" stroke-width="0.2"/>
    </symbol>
    <symbol xmlns="http://www.w3.org/2000/svg" viewBox="0 0 46 46" id="not-logged-in">
      <path d="M1.64296 39.0342C2.55066 39.0342 3.28582 38.2991 3.28582 37.3914V33.5471C3.28582 31.3477 4.14216 29.2818 5.69465 27.7274C7.24919 26.1749 9.31715 25.3186 11.5143 25.3186H14.7015C16.178 25.333 16.866 23.4088 15.7878 22.4435C13.4364 20.3735 12.0893 17.3856 12.0893 14.2455C12.0893 8.23081 16.983 3.33693 22.9979 3.33693C26.2939 3.33693 29.3743 4.79905 31.4504 7.34756C32.0233 8.05192 33.0563 8.15874 33.7606 7.58372C34.465 7.0108 34.5697 5.97577 33.9968 5.27346C31.2984 1.95283 27.2897 0.0491638 22.9999 0.0491638C15.1735 0.0491638 8.80553 6.41716 8.80553 14.2435C8.80553 17.0487 9.64957 19.7514 11.161 22.0493C8.2182 22.1376 5.46434 23.3143 3.37199 25.4049C1.19727 27.5775 0 30.471 0 33.5471V37.3914C0 38.2991 0.735255 39.0342 1.64296 39.0342Z"/>
      <path d="M1.643 46C2.06398 46 2.48293 45.8398 2.8053 45.5194L20.1865 28.1382C21.1209 28.3272 22.0614 28.4545 22.9999 28.4545C24.5319 28.4545 25.8606 28.208 27.2262 27.8199C28.9184 27.284 30.4668 26.4317 31.8632 25.3166H34.4836C39.022 25.3166 42.7142 29.0089 42.7142 33.5472V44.3081C42.7142 45.2158 43.4493 45.951 44.357 45.951C45.2647 45.951 45.9999 45.2158 45.9999 44.3081V33.5472C45.9999 27.3228 41.0323 22.2486 34.8552 22.0493C35.5884 20.9383 36.1695 19.7308 36.5638 18.4535C36.9828 17.0858 37.1943 15.6689 37.1943 14.2437C37.1943 13.3196 37.071 12.379 36.8862 11.4365L45.5195 2.80317C46.1603 2.16243 46.1603 1.1213 45.5195 0.480557C44.8788 -0.160186 43.8377 -0.160186 43.1969 0.480557L0.48251 43.195C-0.158232 43.8357 -0.158232 44.8768 0.48251 45.5176C0.802871 45.84 1.222 46 1.643 46ZM30.2146 22.4374C28.7155 23.725 27.0377 24.6142 25.0766 24.9571C24.4687 25.0865 23.8259 25.1379 23.177 25.1481L33.8969 14.4283C33.8804 15.4653 33.7285 16.4962 33.4245 17.4881C32.8372 19.3877 31.724 21.1025 30.2146 22.4374Z"/>
    </symbol>
</svg>