<!-- Cleaned by SVG Sprite Color Stripper: colors removed -->
<svg width="0" height="0" class="hidden">
    <symbol xmlns="http://www.w3.org/2000/svg" viewBox="0 0 87 98" id="dir-up">
      <path d="M37.0118 1.68744C35.3812 0.22868 32.8747 0.229015 31.244 1.68744L1.97189 27.9395L1.39858 28.5692C0.23772 30.1361 0.326981 32.3353 1.73205 33.8102C3.32501 35.4872 6.01511 35.5932 7.73973 34.0493L29.8634 14.1984L29.8576 70.2532C29.8578 77.4355 32.7991 84.3145 38.0238 89.3865C43.2475 94.4579 50.3252 97.3031 57.7082 97.3037H82.0605C84.3978 97.3037 86.3195 95.4596 86.3195 93.1529C86.3183 90.8467 84.3972 89.0021 82.0605 89.0021H57.7082C52.5786 89.0015 47.6593 87.026 44.0373 83.5044L43.3763 82.8281C40.1692 79.3888 38.3809 74.9073 38.3806 70.2472V14.1926L60.5158 34.0493C62.2409 35.5931 64.9305 35.4872 66.5239 33.8102C68.1227 32.125 68.0106 29.4917 66.2837 27.9395L37.0118 1.68744Z"/>
      <path d="M30.8409 1.24628L1.54539 27.5158L0.937019 28.1921L0.913597 28.2155C-0.415063 30.0089 -0.301373 32.5396 1.29968 34.2203C3.11544 36.1318 6.17874 36.2477 8.14387 34.4884L29.2614 15.5412V70.2491C29.2616 77.5938 32.265 84.6322 37.6032 89.8142C42.9404 94.9958 50.1655 97.9055 57.7029 97.9062H82.0612C84.7147 97.9062 86.9165 95.7861 86.9165 93.1489C86.9151 90.5126 84.7142 88.4034 82.0612 88.4034H57.7029C52.7328 88.4028 47.9778 86.4906 44.4708 83.0865L44.4591 83.0749L43.8156 82.4219L43.8039 82.4103C40.7046 79.0809 38.9839 74.7517 38.9837 70.2491V15.5296L60.113 34.4884C62.0785 36.2474 65.141 36.1316 66.9572 34.2202C68.7795 32.2993 68.6557 29.261 66.6881 27.4925L37.416 1.24628C35.5582 -0.415651 32.6987 -0.415201 30.8409 1.24628ZM31.6481 2.13242C33.0519 0.877047 35.2052 0.876829 36.6087 2.13242L65.8808 28.3787C67.3671 29.7145 67.4665 31.9545 66.0914 33.4041C64.7208 34.8466 62.405 34.931 60.9202 33.6023L37.7787 12.8478V70.2491C37.7789 75.0613 39.6299 79.6905 42.9381 83.2381L43.6167 83.926C47.3526 87.5584 52.419 89.6037 57.7029 89.6044H82.0612C84.0816 89.6044 85.7221 91.173 85.7231 93.1489C85.7231 95.1253 84.0824 96.7052 82.0612 96.7052H57.7029C50.4742 96.7046 43.5558 93.9242 38.4455 88.9631C33.3343 84.0012 30.455 77.2689 30.4548 70.2491L30.4665 12.8595L7.33663 33.6023C5.85253 34.9309 3.53562 34.8465 2.16546 33.4041C0.956379 32.1348 0.891622 30.2671 1.88468 28.9267L2.39945 28.367L31.6481 2.13242Z"/>
    </symbol>
    <symbol xmlns="http://www.w3.org/2000/svg" viewBox="0 0 47 34" id="check">
      <path d="M39.3935 1.27205L18.3425 23.057L7.19747 11.502C5.59197 9.83795 2.94357 9.78725 1.27947 11.3966C-0.384627 13.0021 -0.431426 15.6505 1.174 17.3185L15.33 31.9945C16.1191 32.8109 17.205 33.2757 18.3417 33.2757H18.3456C19.4823 33.2757 20.5683 32.8147 21.3573 31.9984L45.4193 7.09638C47.0248 5.43618 46.9818 2.78387 45.3178 1.17447C43.6537 -0.431026 41.0052 -0.384124 39.3958 1.27604L39.3935 1.27205Z"/>
    </symbol>
    <symbol xmlns="http://www.w3.org/2000/svg" viewBox="0 0 17 19" id="delete">
      <path d="M10.5908 0.875C11.7329 0.875 12.7238 1.66164 13 2.78613L13.3867 4.3623H15.3584C15.784 4.36302 16.125 4.71374 16.125 5.1416C16.1248 5.56965 15.7834 5.91974 15.3574 5.91992H15.2148L14.5234 15.7822C14.4313 17.094 13.3455 18.125 12.0469 18.125H4.95312C3.65448 18.125 2.56863 17.0939 2.47656 15.7822L1.78516 5.91992H1.64258C1.2166 5.91974 0.875158 5.56965 0.875 5.1416C0.875 4.71342 1.2165 4.36249 1.64258 4.3623H3.61523L4.00195 2.78613C4.27895 1.66174 5.26896 0.875 6.41113 0.875H10.5908ZM4.00977 15.6719C4.04472 16.1752 4.46131 16.5674 4.9541 16.5674H12.0479C12.5399 16.5674 12.9562 16.1751 12.9912 15.6719L13.6758 5.91992H3.3252L4.00977 15.6719ZM6.78711 7.84961C7.21324 7.84973 7.55469 8.20068 7.55469 8.62891V12.9873C7.55469 13.4155 7.21324 13.7665 6.78711 13.7666C6.36088 13.7666 6.01855 13.4156 6.01855 12.9873V8.62891C6.01855 8.20061 6.36088 7.84961 6.78711 7.84961ZM10.2148 7.84961C10.6411 7.84961 10.9834 8.20061 10.9834 8.62891V12.9873C10.9834 13.4156 10.6411 13.7666 10.2148 13.7666C9.78878 13.7664 9.44727 13.4155 9.44727 12.9873V8.62891C9.44727 8.20073 9.78878 7.84981 10.2148 7.84961ZM6.41113 2.43262C5.97752 2.43282 5.59943 2.73152 5.49316 3.16309L5.46973 3.25781H5.46875L5.19727 4.3623H11.8057L11.5107 3.16309C11.4044 2.73206 11.0255 2.43262 10.5918 2.43262H6.41113Z" stroke-width="0.25"/>
    </symbol>
    <symbol xmlns="http://www.w3.org/2000/svg" viewBox="0 0 17 17" id="edit">
      <path d="M13.4657 0.875C13.8912 0.875 14.3029 1.01844 14.6346 1.2793L14.7723 1.39844L14.7743 1.40137L15.5839 2.21484C15.9304 2.56174 16.1249 3.03213 16.1249 3.52246C16.1249 4.01301 15.9297 4.48315 15.5829 4.83008L9.30261 11.1104C9.06581 11.3474 8.76921 11.5161 8.44421 11.5977H8.44324L6.43152 12.1006C6.32913 12.1263 6.22361 12.1396 6.11804 12.1396H6.11707C5.9236 12.1387 5.73295 12.0934 5.55945 12.0078C5.38592 11.9222 5.23362 11.7985 5.11511 11.6455C4.99668 11.4926 4.91539 11.3143 4.87585 11.125C4.83631 10.9356 4.84016 10.7394 4.88757 10.5518L5.3905 8.54004V8.53906L5.42468 8.41895C5.51478 8.14146 5.66925 7.8883 5.87585 7.68066H5.87683L10.9364 2.62012L12.1581 1.40039L12.16 1.39844C12.5116 1.06246 12.9794 0.875124 13.4657 0.875ZM6.86707 8.6709L6.86804 8.67188C6.81061 8.72955 6.76954 8.80188 6.74988 8.88086V8.88184L6.29675 10.6914L8.1073 10.2393C8.18623 10.2194 8.25777 10.1777 8.31531 10.1201L12.8827 5.55566L11.4325 4.10645L6.86707 8.6709ZM13.4647 2.26367C13.3456 2.26375 13.2305 2.31022 13.1444 2.39258L12.4218 3.11523L13.871 4.56445L14.5975 3.83984C14.6818 3.75546 14.7294 3.64076 14.7294 3.52148C14.7293 3.4024 14.6816 3.28839 14.5975 3.2041L13.785 2.39258L13.7157 2.33789C13.6414 2.2901 13.5543 2.26367 13.4647 2.26367Z" stroke-width="0.25"/>
      <path d="M9.41895 1.98679C9.60436 1.9869 9.78192 2.0608 9.91309 2.19186C10.0444 2.32315 10.1182 2.50132 10.1182 2.68698C10.1181 2.87258 10.0443 3.05085 9.91309 3.1821C9.78194 3.31306 9.60428 3.38706 9.41895 3.38718H3.875C3.45069 3.38722 3.04418 3.55589 2.74414 3.85593C2.4441 4.15596 2.27544 4.56247 2.27539 4.98679V13.0376C2.27542 13.4619 2.44411 13.8684 2.74414 14.1684C3.04418 14.4685 3.45069 14.6371 3.875 14.6372H11.9258C12.3501 14.6371 12.7566 14.4685 13.0566 14.1684C13.3567 13.8684 13.5254 13.4619 13.5254 13.0376V7.63815C13.5254 7.45261 13.5993 7.27429 13.7305 7.14304C13.8617 7.01181 14.04 6.93802 14.2256 6.93796C14.4112 6.93796 14.5894 7.01175 14.7207 7.14304C14.852 7.27431 14.9258 7.45251 14.9258 7.63815V13.0376L14.9111 13.3344C14.8422 14.0208 14.5379 14.6657 14.0459 15.1577C13.5539 15.6497 12.909 15.954 12.2227 16.0229L11.9258 16.0376H3.875C3.07965 16.0366 2.31728 15.7201 1.75488 15.1577C1.19249 14.5953 0.875953 13.8329 0.875 13.0376V4.98679L0.889648 4.69089C0.958435 4.00423 1.26266 3.3589 1.75488 2.86667C2.31728 2.30427 3.07965 1.98775 3.875 1.98679H9.41895Z" stroke-width="0.25"/>
    </symbol>
    <symbol xmlns="http://www.w3.org/2000/svg" viewBox="0 0 3193 3193" id="fedorcodev-logo-transparent">
      <path d="M739.267 1.91088C488.2 20.8442 264.333 154.178 126.333 366.978C54.7333 477.511 12.2 605.911 2.2 741.378C-0.733333 782.444 -0.733333 2409.38 2.2 2450.44C11.1333 2572.71 45.8 2686.44 105.667 2790.84C175.8 2912.84 279.267 3016.31 401.267 3086.44C505.667 3146.31 619.4 3180.98 741.667 3189.91C782.733 3192.84 2409.67 3192.84 2450.73 3189.91C2573 3180.98 2686.73 3146.31 2791.13 3086.44C2913 3016.44 3016.73 2912.71 3086.73 2790.84C3146.6 2686.44 3181.27 2572.71 3190.2 2450.44C3193.13 2409.38 3193.13 782.444 3190.2 741.378C3181.27 619.111 3146.6 505.378 3086.73 400.978C3016.6 278.978 2913.13 175.511 2791.13 105.378C2700.73 53.5109 2603.27 20.5776 2498.07 6.57755C2445.67 -0.355783 2488.6 -0.0891159 1592.87 0.0442175C928.2 0.177551 757.667 0.577551 739.267 1.91088ZM1508.2 648.578V758.444L1279.93 758.978C1077.13 759.378 1049.93 759.644 1037.53 761.644C985.4 769.644 954.733 782.311 930.733 805.911C912.733 823.511 901.667 845.111 894.467 877.244C891.667 889.778 891.667 891.244 891.133 1099.91C890.6 1323.24 890.733 1327.78 897 1359.91C909.8 1425.11 942.6 1464.04 996.333 1477.78C1023.13 1484.71 1013 1484.44 1268.6 1484.84L1508.2 1485.38V1594.58V1703.64L1270.6 1704.31C1019.27 1704.98 1024.33 1704.84 998.333 1711.38C934.333 1727.38 900.733 1775.51 892.2 1863.24C890.467 1881.38 890.467 2250.31 892.2 2270.58C900.6 2367.38 938.067 2416.44 1013.53 2429.91C1020.47 2431.11 1037.13 2432.44 1050.6 2432.84L1074.87 2433.64V2543.51V2653.51L941.933 2652.84C802.733 2652.18 797.4 2651.91 763.533 2645.91C685.267 2631.78 629.667 2593.24 598.733 2531.78C587.8 2509.78 579.133 2480.58 573.933 2447.24C572.067 2435.51 571.667 2399.38 570.867 2153.24C570.067 1902.31 569.8 1870.84 567.8 1856.18C560.333 1800.98 546.2 1766.84 520.867 1742.71C504.2 1726.98 486.467 1717.51 462.067 1711.38C443.667 1706.71 429.667 1705.24 404.6 1705.24H382.867V1595.51V1485.64L406.6 1484.84C444.2 1483.51 467.133 1479.11 487.8 1469.24C530.6 1448.98 554.467 1412.31 564.867 1351.24C569.8 1321.51 569.933 1319.51 570.867 1036.58C571.933 735.378 571.4 752.044 578.867 718.044C593.4 651.644 628.467 602.844 682.867 572.978C717.4 554.044 770.067 541.644 824.867 539.511C830.067 539.244 985.8 538.978 1171.27 538.844L1508.2 538.578V648.578ZM2398.2 541.511C2421.4 544.578 2431 546.444 2448.2 550.711C2539.8 573.378 2594.73 629.778 2614.2 721.244C2620.87 752.178 2620.6 738.844 2621.53 1036.58C2622.47 1321.24 2622.47 1322.98 2627.53 1353.91C2634.6 1396.04 2648.73 1427.38 2669.67 1447.38C2680.47 1457.51 2687.93 1462.71 2701.8 1469.24C2722.87 1479.24 2745.67 1483.51 2784.6 1484.84L2809.53 1485.64L2809.27 1595.11L2808.87 1704.58L2780.2 1705.38C2759.13 1706.04 2747.93 1706.98 2738.2 1708.98C2674.47 1722.04 2640.2 1761.51 2627.53 1836.58C2622.47 1866.31 2622.47 1868.18 2621.53 2153.24C2620.6 2453.11 2620.87 2439.64 2614.2 2470.58C2593.13 2569.11 2531.8 2626.31 2426.33 2645.91C2390.33 2652.58 2407.13 2652.31 2033.93 2652.84L1685.53 2653.38V1595.91V538.444L2033.93 538.978C2342.6 539.378 2384.07 539.644 2398.2 541.511Z"/>
      <path d="M2005.53 1595.91V2433.51L2073.27 2432.84C2143.93 2432.18 2152.87 2431.51 2181.53 2425.24C2242.07 2412.18 2277.13 2383.11 2292.87 2333.24C2301.13 2307.11 2300.6 2325.11 2301.53 2058.58C2302.6 1807.51 2302.6 1807.38 2308.33 1773.51C2317.93 1716.04 2340.6 1668.98 2373 1638.71C2396.2 1616.98 2422.47 1603.64 2452.87 1597.78C2470.07 1594.58 2469.93 1594.58 2457.53 1591.24C2377 1569.38 2326.87 1508.04 2309.67 1410.58C2302.07 1367.11 2301.53 1348.84 2301.53 1128.58C2301.53 1012.18 2301 930.578 2300.2 921.244C2292.6 834.444 2261.4 785.778 2201.53 767.378C2176.47 759.778 2174.2 759.511 2086.6 758.978L2005.53 758.444V1595.91Z"/>
    </symbol>
    <symbol xmlns="http://www.w3.org/2000/svg" viewBox="0 0 111 105" id="home">
      <path d="M49.6549 3.55144C53.3235 0.901075 58.0824 0.901748 61.7558 3.55144L105.208 34.9581C107.473 36.5959 109.005 38.9886 109.586 41.7244H109.617L109.709 42.2525C110.194 45.2099 109.515 48.1874 107.791 50.6215C105.621 53.6853 102.195 55.3186 98.7218 55.3186C98.0846 55.3185 97.4524 55.2394 96.8216 55.1283V92.927C96.8216 98.7045 92.1667 103.419 86.4302 103.42H24.9924C19.2548 103.42 14.595 98.7058 14.595 92.927V55.1344C13.3762 55.3465 12.1176 55.3674 10.8627 55.159C8.2908 54.7288 6.0069 53.4396 4.3205 51.4933L3.63188 50.6215C1.90805 48.1929 1.22943 45.2193 1.71346 42.2586C2.19891 39.2951 3.79747 36.7015 6.20819 34.9581L49.6549 3.55144ZM23.3138 50.2101V92.927C23.3138 93.8676 24.0729 94.6214 24.9863 94.6214H38.5811V68.9805C38.5814 63.4419 43.0422 58.9237 48.542 58.9231H62.8683C68.3687 58.9237 72.829 63.4413 72.8296 68.9805V94.6214H86.4302C87.3406 94.6202 88.0905 93.8682 88.0905 92.927V50.2039L55.7052 26.804L23.3138 50.2101ZM48.542 67.7281C47.8861 67.7287 47.3064 68.2996 47.3061 68.9805V94.6214H64.1106L64.1043 68.9805C64.1043 68.299 63.525 67.7281 62.8683 67.7281H48.542ZM56.6705 10.7108C56.0516 10.2663 55.3524 10.2659 54.7337 10.7108L11.287 42.1112C10.771 42.4865 10.4283 43.0446 10.3217 43.6954C10.2151 44.346 10.3659 44.9844 10.7336 45.5067C11.1044 46.0312 11.6492 46.3758 12.2892 46.483C12.9216 46.5895 13.5574 46.4416 14.0724 46.0717L53.1658 17.8149L53.756 17.4526C55.1876 16.7339 56.9223 16.8555 58.2507 17.8149L97.3378 46.0717H97.3442C97.8554 46.4427 98.4819 46.5899 99.121 46.483C99.7613 46.3759 100.311 46.0258 100.677 45.5067C101.044 44.99 101.19 44.3517 101.083 43.6954C100.976 43.0426 100.63 42.4859 100.117 42.1174L56.6705 10.7108Z"/>
      <path d="M55.699 0.941902C53.4595 0.941826 51.2189 1.64094 49.2798 3.04182L5.83308 34.4546C3.28921 36.2943 1.59784 39.0314 1.08628 42.1543C0.57637 45.2732 1.29639 48.4211 3.11535 50.9837L3.12763 50.996L3.84088 51.8924V51.9047C5.62131 53.9595 8.05018 55.319 10.7643 55.773V55.7852C11.844 55.9645 12.9055 55.8798 13.9616 55.7606V92.9328C13.9616 99.0491 18.9094 104.046 24.9924 104.046H86.4302C92.5121 104.045 97.4487 99.0476 97.4487 92.9328V55.8221C97.87 55.8764 98.2906 55.9448 98.7276 55.9449C102.398 55.9449 106.018 54.2164 108.307 50.9837C110.126 48.4159 110.847 45.2705 110.336 42.1542L110.324 42.142L110.152 41.0982H109.881C109.183 38.4613 107.804 36.0648 105.577 34.4546L62.1306 3.04182C60.1893 1.64152 57.9386 0.941979 55.699 0.941902ZM55.699 2.1822C57.6744 2.18229 59.6606 2.81168 61.3927 4.06107L104.839 35.4615C106.978 37.0077 108.421 39.2703 108.971 41.8595L109.082 42.3507C109.541 45.1494 108.903 47.9589 107.274 50.2592C105.224 53.1543 102.003 54.6923 98.7276 54.6923C98.1425 54.6922 97.5426 54.6156 96.9322 54.5081L96.1944 54.3731V92.9329C96.1944 98.3732 91.8214 102.793 86.4302 102.794H24.9924C19.6002 102.794 15.2283 98.3742 15.2283 92.9329V54.3853L14.4904 54.5204C13.337 54.7211 12.1421 54.7288 10.9611 54.5327V54.5449C8.53143 54.1386 6.39246 52.9197 4.8001 51.082L4.14834 50.2592C2.51964 47.9646 1.88247 45.1654 2.34062 42.363C2.79997 39.5588 4.30566 37.1087 6.58322 35.4615L50.0299 4.06107C51.7595 2.81158 53.7237 2.18211 55.699 2.1822ZM54.3709 10.2012L10.9119 41.6016C10.263 42.0736 9.82656 42.7849 9.69446 43.591C9.56199 44.3995 9.76325 45.2095 10.2232 45.8629V45.8751C10.6866 46.5307 11.3912 46.9692 12.1908 47.1032C12.9817 47.2329 13.7948 47.0518 14.4413 46.5874L53.5101 18.3429L54.0389 18.0114H54.0512C55.2726 17.4035 56.7413 17.4991 57.8757 18.3184L96.9691 46.5751C97.6141 47.0432 98.4214 47.2367 99.2195 47.1032C99.847 46.9982 100.319 46.569 100.757 46.133H101.003L101.199 45.8751C101.665 45.2202 101.835 44.3964 101.704 43.591C101.599 42.9515 101.183 42.4632 100.744 42.0192V41.7858L100.486 41.6016L57.0395 10.2012C56.2382 9.62565 55.1723 9.62488 54.3709 10.2012ZM96.9691 46.5751L97.129 46.6979H97.338L96.9691 46.5751ZM55.0965 11.2204C55.5324 10.9069 55.8651 10.9069 56.3016 11.2204L99.4901 42.4367L99.7483 42.6332C100.126 42.9047 100.38 43.3041 100.462 43.7998C100.544 44.3068 100.436 44.7599 100.166 45.1383V45.1506C99.8948 45.5361 99.5006 45.7829 99.0228 45.8629C98.5428 45.9431 98.0968 45.842 97.7193 45.5681L97.5471 45.4453L58.6258 17.3114C57.1069 16.2144 55.1126 16.0707 53.4732 16.8939L53.4486 16.9061L52.8214 17.2868L13.7034 45.5681V45.5559C13.3233 45.829 12.8698 45.942 12.3999 45.8629H12.3876C11.9071 45.7823 11.522 45.5317 11.2439 45.1383C10.9736 44.7491 10.8688 44.2882 10.9488 43.7998C11.03 43.3042 11.2789 42.8996 11.662 42.6209L55.0965 11.2204ZM55.699 26.0304L22.6805 49.8908V92.9329C22.6805 94.2113 23.7321 95.2538 24.9924 95.2538H39.2082V68.9865C39.2085 63.785 43.3875 59.5559 48.5419 59.5553H62.8684C68.0236 59.5559 72.2016 63.7842 72.2021 68.9865V95.2538H86.4302C87.6874 95.2521 88.7176 94.2076 88.7176 92.9329V49.8785L55.699 26.0304ZM55.699 27.5777L87.4632 50.5293V92.9329C87.4632 93.5406 86.994 93.9882 86.4302 93.989H73.4565V68.9865C73.4558 63.1102 68.714 58.2911 62.8684 58.2904H48.5419C42.6969 58.2911 37.9542 63.1108 37.9539 68.9865V93.989H24.9924C24.426 93.989 23.9471 93.5357 23.9471 92.9329V50.5293L55.699 27.5777ZM48.5419 67.0953C47.5206 67.0963 46.6732 67.9371 46.6727 68.9742V68.9868V95.2541H64.7376V68.9868C64.7376 67.9495 63.8905 67.0956 62.8684 67.0956L48.5419 67.0953ZM48.5419 68.3602H62.8684C63.1597 68.3602 63.471 68.6607 63.471 68.9865L63.4836 93.989H47.9397V68.9865C47.9398 68.6618 48.2517 68.3605 48.5419 68.3602Z"/>
    </symbol>
    <symbol xmlns="http://www.w3.org/2000/svg" viewBox="0 0 47 47" id="magnifier">
      <path d="M23.5107 15.9454C23.5107 14.1902 24.1913 12.5444 25.4288 11.311C26.6621 10.0797 28.3039 9.40321 30.0549 9.40321H30.0735C30.9831 9.40321 31.7214 8.66692 31.7235 7.75734C31.7255 6.84571 30.9892 6.1053 30.0776 6.10324H30.0549C27.4252 6.10324 24.9544 7.12211 23.0981 8.97421C21.2357 10.8325 20.2106 13.3075 20.2106 15.9453V15.9639C20.2106 16.8755 20.9489 17.6036 21.8606 17.6036C22.7722 17.6056 23.5107 16.857 23.5107 15.9454Z"/>
      <path d="M1.64857 46.1298C2.07138 46.1298 2.49421 45.9668 2.81592 45.6451L19.9757 28.4441C22.9189 30.8303 26.516 32.0225 30.1169 32.0225C34.2337 32.0225 38.3526 30.4612 41.4852 27.3406C44.5253 24.3129 46.198 20.2908 46.198 16.0114C46.198 11.7318 44.5253 7.70767 41.4852 4.68226C35.2174 -1.56075 25.0165 -1.56075 18.7487 4.68226C15.7107 7.70793 14.0359 11.732 14.0359 16.0114C14.0359 19.7363 15.3064 23.2671 17.639 26.1136L0.481335 43.3146C-0.162185 43.9581 -0.160073 45.0037 0.48546 45.6472C0.805145 45.969 1.22781 46.1298 1.64857 46.1298ZM21.0772 7.0212C23.5708 4.54005 26.8439 3.29842 30.117 3.29842C33.3922 3.29842 36.6652 4.54005 39.1568 7.0212C41.5699 9.42194 42.8981 12.6148 42.8981 16.0114C42.8981 19.4062 41.5699 22.6007 39.1568 25.0015C34.1718 29.9638 26.062 29.9638 21.0772 25.0015C18.6641 22.6008 17.3359 19.408 17.3359 16.0114C17.3359 12.6145 18.6641 9.422 21.0772 7.0212Z"/>
    </symbol>
    <symbol xmlns="http://www.w3.org/2000/svg" viewBox="0 0 20 4" id="more">
      <circle cx="1.83333" cy="1.83333" r="1.83333"/>
      <circle cx="9.99999" cy="1.83333" r="1.83333"/>
      <circle cx="17.8333" cy="1.83333" r="1.83333"/>
    </symbol>
    <symbol xmlns="http://www.w3.org/2000/svg" viewBox="0 0 18 15" id="new-folder">
      <path d="M2.24732 6.31749e-05C1.0135 6.31749e-05 0 1.01918 0 2.25393V12.7516C0 13.9855 1.01444 14.9999 2.24732 14.9999H15.7461C16.98 14.9999 18 13.9855 18 12.7516V4.50214C18 3.26833 16.98 2.24827 15.7461 2.24827L11.455 2.25389L8.79128 0.653484C8.07969 0.225972 7.26775 0 6.43802 0L2.24732 6.31749e-05ZM2.24732 1.50015H6.43819C6.99696 1.50015 7.54357 1.65015 8.02172 1.93798L10.8625 3.64339C10.9798 3.71371 11.1138 3.74933 11.2497 3.7484H15.7509C16.1738 3.7484 16.4981 4.07841 16.4981 4.50125V12.7508C16.4981 13.1736 16.1682 13.498 15.7453 13.498H2.2465C1.82367 13.498 1.49927 13.1736 1.49927 12.7508V2.25304C1.49927 1.83022 1.82449 1.50015 2.24732 1.50015Z"/>
      <path d="M6.37171 7.87368C6.17295 7.87462 5.98263 7.95431 5.842 8.09495C5.7023 8.23651 5.62355 8.42778 5.62449 8.62653C5.62637 9.03906 5.96013 9.37283 6.37173 9.37374H11.6211C11.8198 9.37473 12.0111 9.29686 12.1526 9.15625C12.2932 9.01656 12.3729 8.8253 12.3739 8.62654C12.3748 8.42684 12.2951 8.23465 12.1545 8.09306C12.0129 7.95243 11.8207 7.87274 11.621 7.87368H6.37171Z"/>
      <path d="M8.99673 5.24939C8.79703 5.25032 8.60671 5.33002 8.46703 5.47065C8.32639 5.61222 8.24764 5.80348 8.24857 6.00223V11.2506C8.24764 11.4503 8.32639 11.6416 8.46703 11.7822C8.60672 11.9238 8.79704 12.0035 8.99673 12.0044C9.19642 12.0044 9.38862 11.9256 9.52932 11.7841C9.67084 11.6425 9.74962 11.4513 9.74962 11.2506V6.00221C9.74962 5.80251 9.67084 5.61032 9.52932 5.46873C9.38862 5.32717 9.19642 5.24845 8.99673 5.24939Z"/>
    </symbol>
    <symbol xmlns="http://www.w3.org/2000/svg" viewBox="0 0 17 17" id="new-link">
      <path d="M5.02322 8.09422C4.80413 8.0958 4.59455 8.18395 4.4402 8.33943C4.28584 8.49492 4.19921 8.70513 4.19922 8.92422C4.20122 9.37922 4.56922 9.74722 5.02322 9.74822H10.8132C10.9774 9.74959 11.1383 9.702 11.2753 9.61152C11.4123 9.52104 11.5192 9.39178 11.5824 9.24025C11.6457 9.08871 11.6623 8.92178 11.6302 8.76075C11.5981 8.59973 11.5187 8.45193 11.4022 8.33622C11.3248 8.25914 11.2329 8.19809 11.1318 8.15656C11.0307 8.11504 10.9225 8.09385 10.8132 8.09422H5.02322Z"/>
      <path d="M7.91923 5.19922C7.8105 5.19948 7.70288 5.22116 7.60252 5.26301C7.50217 5.30486 7.41104 5.36607 7.33433 5.44315C7.25763 5.52022 7.19686 5.61165 7.1555 5.7122C7.11413 5.81276 7.09297 5.92048 7.09323 6.02922V11.8192C7.09323 12.0388 7.18047 12.2494 7.33575 12.4047C7.49103 12.56 7.70163 12.6472 7.92123 12.6472C8.14083 12.6472 8.35144 12.56 8.50672 12.4047C8.662 12.2494 8.74923 12.0388 8.74923 11.8192V6.02922C8.74871 5.80925 8.66109 5.59844 8.50555 5.4429C8.35001 5.28736 8.1392 5.19975 7.91923 5.19922Z"/>
      <path d="M7.58421 1.63722C8.53821 1.63722 8.53821 3.06822 7.58421 3.06822H2.35121C1.89824 3.06932 1.53131 3.43625 1.53021 3.88922V14.0472C1.53021 14.4992 1.89921 14.8672 2.35121 14.8672H12.8162C13.2688 14.8661 13.6356 14.4998 13.6372 14.0472V8.81422C13.6372 7.86022 15.0682 7.86022 15.0682 8.81422V14.0472C15.0665 15.2903 14.0593 16.2976 12.8162 16.2992H2.35121C1.10815 16.2976 0.100865 15.2903 0.0992126 14.0472V3.88922C0.100865 2.64616 1.10815 1.63887 2.35121 1.63722H7.58421ZM15.5842 0.0992203C15.6312 0.0992203 15.6782 0.10422 15.7192 0.11122H15.7212C15.7354 0.113494 15.7495 0.116837 15.7632 0.12122L15.7822 0.12922C15.8089 0.135268 15.836 0.143633 15.8612 0.15422L15.9282 0.18922L15.9462 0.19922C15.9542 0.20322 15.9662 0.20922 15.9792 0.21922C16.0589 0.27107 16.127 0.33882 16.1792 0.41822L16.1982 0.45222L16.2072 0.46822L16.2432 0.54022L16.2672 0.61522V0.61622L16.2742 0.63622L16.2842 0.67622C16.2935 0.721644 16.2986 0.76785 16.2992 0.81422V5.73722C16.2992 6.69122 14.8682 6.69122 14.8682 5.73722V2.54222L11.1672 6.24422C10.8875 6.52412 10.4339 6.52412 10.1542 6.24422C9.87553 5.96444 9.87553 5.511 10.1542 5.23122L13.8562 1.53022H10.6612C9.75698 1.48238 9.75698 0.14806 10.6612 0.10022H15.5842V0.0992203Z"/>
      <path d="M10.6562 0C10.4057 0.0132558 10.2064 0.118798 10.0762 0.271484C9.94599 0.42417 9.88281 0.619876 9.88281 0.814453C9.88281 1.00903 9.94599 1.20474 10.0762 1.35742C10.2064 1.51011 10.4057 1.6176 10.6562 1.63086H10.6582H13.6133L10.084 5.16016C9.76731 5.47812 9.76731 5.99649 10.084 6.31445C10.4019 6.6326 10.9204 6.6326 11.2383 6.31445L14.7676 2.78516V5.73633C14.7676 5.99983 14.8707 6.21008 15.0254 6.34766C15.1802 6.48523 15.3829 6.55273 15.584 6.55273C15.7851 6.55273 15.9878 6.48523 16.1426 6.34766C16.2974 6.21008 16.3985 5.99983 16.3985 5.73633V0.814453V0.812503C16.3978 0.759777 16.3934 0.707749 16.3829 0.656253L16.3809 0.654303L16.3711 0.607428L16.3672 0.599618L16.3359 0.501962L16.2949 0.421884L16.2851 0.402353L16.2656 0.367197L16.2636 0.363287C16.2056 0.275084 16.1287 0.199268 16.041 0.140625L16.0352 0.136719C16.0174 0.124063 15.9996 0.11307 15.9922 0.109375H15.9902L15.9042 0.0644531L15.9003 0.0625001C15.8698 0.049658 15.837 0.0385844 15.8046 0.0312501L15.7948 0.0292971H15.8026L15.7987 0.027344L15.7928 0.025391C15.7743 0.019482 15.7554 0.0147857 15.7362 0.0117192H15.7284C15.6844 0.00453217 15.6352 3.57628e-07 15.5839 3.57628e-07H15.4843H10.6581L10.6562 0ZM10.084 6.31445L10.0547 6.24414V6.28516L10.084 6.31445ZM10.6621 0.201172H15.6074C15.6399 0.202472 15.674 0.204012 15.7031 0.208982L15.7109 0.210932H15.705C15.7143 0.212412 15.7234 0.213932 15.7324 0.216792L15.7617 0.228511H15.7676C15.7858 0.232981 15.8029 0.238898 15.8203 0.246089C15.8209 0.246329 15.8217 0.245845 15.8223 0.246089L15.8282 0.249999V0.251949L15.9024 0.289058C15.9104 0.293058 15.9133 0.295168 15.918 0.298828L15.9219 0.300778L15.9239 0.302728C15.9913 0.346558 16.0494 0.403804 16.0939 0.470697C16.0944 0.47147 16.0953 0.471877 16.0959 0.472647L16.1115 0.501944L16.1193 0.515616L16.1505 0.578116L16.1681 0.63085V0.6328L16.1779 0.66405L16.1857 0.6953C16.1938 0.734652 16.1988 0.77638 16.1994 0.816393V5.73633C16.1992 5.94983 16.1233 6.0983 16.0098 6.19922C15.8962 6.30014 15.7406 6.35352 15.584 6.35352C15.4273 6.35352 15.2717 6.30014 15.1582 6.19922C15.0447 6.0983 14.9688 5.94983 14.9688 5.73633V2.30078L11.0957 6.17383C10.8548 6.41493 10.4681 6.41385 10.2266 6.17383H10.2246V6.17188C9.98392 5.93029 9.98392 5.54432 10.2246 5.30274L14.0976 1.42969H10.666C10.4644 1.41903 10.3243 1.34097 10.2285 1.22852C10.1326 1.11607 10.0839 0.965419 10.0839 0.814456C10.0839 0.663493 10.1326 0.514796 10.2285 0.402347C10.3235 0.290916 10.4635 0.212959 10.6621 0.201172ZM2.35156 1.53711C1.05455 1.53883 0.00172437 2.59166 0 3.88867V14.0469C0.001724 15.3439 1.05455 16.3967 2.35156 16.3984H12.8164C14.1134 16.3967 15.1662 15.3439 15.168 14.0469V8.81445C15.168 8.55095 15.0649 8.3407 14.9102 8.20312C14.7554 8.06555 14.5546 7.99805 14.3535 7.99805C14.1524 7.99805 13.9497 8.06555 13.7949 8.20312C13.6401 8.3407 13.5371 8.55095 13.5371 8.81445V14.0469C13.5356 14.4456 13.2152 14.7666 12.8164 14.7676H2.35156C1.95384 14.7676 1.63086 14.4444 1.63086 14.0469V3.88867C1.63183 3.48957 1.95247 3.16894 2.35156 3.16797H7.58398C7.84748 3.16797 8.05774 3.06493 8.19531 2.91016C8.33289 2.75538 8.40039 2.55461 8.40039 2.35352C8.40039 2.15242 8.33289 1.9497 8.19531 1.79492C8.05774 1.64015 7.84748 1.53711 7.58398 1.53711H2.35156ZM2.35156 1.73633H7.58398C7.79748 1.73633 7.94595 1.8142 8.04688 1.92773C8.1478 2.04127 8.19922 2.19686 8.19922 2.35352C8.19922 2.51017 8.1478 2.66381 8.04688 2.77734C7.94595 2.89088 7.79748 2.96875 7.58398 2.96875H2.35156C1.84472 2.96998 1.43092 3.38183 1.42969 3.88867V14.0469C1.42969 14.5533 1.84529 14.9668 2.35156 14.9668H12.8164C13.3228 14.9656 13.7345 14.5533 13.7363 14.0469V8.81445C13.7363 8.60095 13.8142 8.45249 13.9277 8.35156C14.0413 8.25064 14.1969 8.19922 14.3535 8.19922C14.5102 8.19922 14.6638 8.25064 14.7773 8.35156C14.8909 8.45249 14.9688 8.60095 14.9688 8.81445V14.0469C14.9671 15.236 14.0055 16.1976 12.8164 16.1992H2.35156C1.16245 16.1976 0.2008 15.236 0.199219 14.0469V3.88867C0.2008 2.69956 1.16245 1.73791 2.35156 1.73633Z"/>
    </symbol>
    <symbol xmlns="http://www.w3.org/2000/svg" viewBox="0 0 46 46" id="not-logged-in">
      <path d="M1.64296 39.0342C2.55066 39.0342 3.28582 38.2991 3.28582 37.3914V33.5471C3.28582 31.3477 4.14216 29.2818 5.69465 27.7274C7.24919 26.1749 9.31715 25.3186 11.5143 25.3186H14.7015C16.178 25.333 16.866 23.4088 15.7878 22.4435C13.4364 20.3735 12.0893 17.3856 12.0893 14.2455C12.0893 8.23081 16.983 3.33693 22.9979 3.33693C26.2939 3.33693 29.3743 4.79905 31.4504 7.34756C32.0233 8.05192 33.0563 8.15874 33.7606 7.58372C34.465 7.0108 34.5697 5.97577 33.9968 5.27346C31.2984 1.95283 27.2897 0.0491638 22.9999 0.0491638C15.1735 0.0491638 8.80553 6.41716 8.80553 14.2435C8.80553 17.0487 9.64957 19.7514 11.161 22.0493C8.2182 22.1376 5.46434 23.3143 3.37199 25.4049C1.19727 27.5775 0 30.471 0 33.5471V37.3914C0 38.2991 0.735255 39.0342 1.64296 39.0342Z"/>
      <path d="M1.643 46C2.06398 46 2.48293 45.8398 2.8053 45.5194L20.1865 28.1382C21.1209 28.3272 22.0614 28.4545 22.9999 28.4545C24.5319 28.4545 25.8606 28.208 27.2262 27.8199C28.9184 27.284 30.4668 26.4317 31.8632 25.3166H34.4836C39.022 25.3166 42.7142 29.0089 42.7142 33.5472V44.3081C42.7142 45.2158 43.4493 45.951 44.357 45.951C45.2647 45.951 45.9999 45.2158 45.9999 44.3081V33.5472C45.9999 27.3228 41.0323 22.2486 34.8552 22.0493C35.5884 20.9383 36.1695 19.7308 36.5638 18.4535C36.9828 17.0858 37.1943 15.6689 37.1943 14.2437C37.1943 13.3196 37.071 12.379 36.8862 11.4365L45.5195 2.80317C46.1603 2.16243 46.1603 1.1213 45.5195 0.480557C44.8788 -0.160186 43.8377 -0.160186 43.1969 0.480557L0.48251 43.195C-0.158232 43.8357 -0.158232 44.8768 0.48251 45.5176C0.802871 45.84 1.222 46 1.643 46ZM30.2146 22.4374C28.7155 23.725 27.0377 24.6142 25.0766 24.9571C24.4687 25.0865 23.8259 25.1379 23.177 25.1481L33.8969 14.4283C33.8804 15.4653 33.7285 16.4962 33.4245 17.4881C32.8372 19.3877 31.724 21.1025 30.2146 22.4374Z"/>
    </symbol>
</svg>