<svg width="1105" height="889" xmlns="http://www.w3.org/2000/svg" xmlns:xlink="http://www.w3.org/1999/xlink" xml:space="preserve" overflow="hidden"><g transform="translate(-1475 -701)"><g><path d="M1812.56 706C1843.1 706.005 1880.73 721.633 1902.36 743.345L1959.54 800.753C1962.66 803.86 1968.58 807.364 1975.21 810.128 1981.84 812.889 1988.5 814.638 1992.91 814.641L2461.93 814.641C2523.65 814.646 2574 865.087 2574 927.218L2574 1470.42C2574 1532.56 2523.65 1583 2461.93 1583L1596.07 1583C1534.35 1583 1484 1532.56 1484 1470.42L1484 818.576C1484 756.446 1534.35 706.004 1596.07 706L1812.56 706ZM1596.07 786.323C1578.28 786.328 1563.87 800.882 1563.87 818.576L1563.87 1470.42C1563.87 1488.12 1578.28 1502.67 1596.07 1502.68L2461.93 1502.68C2479.72 1502.67 2494.13 1488.12 2494.13 1470.42L2494.13 927.218C2494.13 909.523 2479.72 894.969 2461.93 894.965L1992.91 894.965C1962.37 894.962 1924.74 879.333 1903.11 857.619L1845.93 800.174C1842.81 797.066 1836.89 793.562 1830.26 790.799 1823.63 788.038 1816.97 786.327 1812.56 786.323L1596.07 786.323Z" stroke="#000000" stroke-width="7.7231" stroke-linecap="butt" stroke-linejoin="miter" stroke-miterlimit="8" stroke-opacity="1" fill="#000000" fill-rule="evenodd" fill-opacity="1"/><path d="M2182.57 1099.07C2198.32 1083.64 2223.92 1083.64 2239.69 1099.07 2255.44 1114.5 2255.44 1139.57 2239.69 1155.02L2199.15 1194.7C2166.86 1226.35 2122.28 1242.93 2076.68 1240.31L1978.57 1234.66C1956.01 1233.35 1933.94 1241.56 1917.95 1257.22L1877.43 1296.93C1861.68 1312.36 1836.08 1312.36 1820.31 1296.93 1804.56 1281.5 1804.56 1256.43 1820.31 1240.99L1860.85 1201.3C1893.14 1169.65 1937.72 1153.07 1983.32 1155.69L2081.43 1161.34C2103.99 1162.65 2126.06 1154.44 2142.05 1138.78L2182.57 1099.07ZM2203.46 1119.53 2162.92 1159.22C2140.97 1180.72 2110.69 1192 2079.69 1190.23L1981.59 1184.56C1944.41 1182.42 1908.07 1195.96 1881.74 1221.76L1841.2 1261.45C1836.97 1265.59 1836.97 1272.32 1841.2 1276.47 1845.44 1280.62 1852.31 1280.62 1856.54 1276.47L1897.08 1236.78C1919.03 1215.28 1949.32 1204 1980.31 1205.77L2078.42 1211.44C2115.59 1213.58 2151.93 1200.04 2178.26 1174.24L2218.8 1134.55C2223.03 1130.41 2223.03 1123.68 2218.8 1119.53 2214.56 1115.39 2207.69 1115.39 2203.46 1119.53Z" stroke="#000000" stroke-width="4.58333" stroke-linecap="butt" stroke-linejoin="round" stroke-miterlimit="10" stroke-opacity="1" fill="#000000" fill-rule="evenodd" fill-opacity="1"/><path d="M1990.89 1226.15C1990.39 1218.21 1996.64 1211.39 2004.81 1210.93 2013 1210.45 2020.02 1216.52 2020.49 1224.46L2021.86 1246.81C2023.68 1277.06 2012.11 1306.61 1990.06 1328.04L1949.35 1367.61C1945.1 1371.74 1945.1 1378.45 1949.35 1382.58 1953.6 1386.71 1960.51 1386.71 1964.76 1382.58L2005.46 1343.01C2031.93 1317.32 2045.81 1281.84 2043.61 1245.56L2042.41 1225.76C2041.93 1217.81 2048.16 1210.99 2056.35 1210.52 2064.52 1210.06 2071.54 1216.12 2072.02 1224.07L2073.22 1243.87C2075.91 1288.38 2058.9 1331.88 2026.45 1363.4L1985.74 1402.97C1969.9 1418.34 1944.19 1418.34 1928.37 1402.97 1912.54 1387.58 1912.54 1362.59 1928.37 1347.22L1969.09 1307.67C1985.15 1292.06 1993.58 1270.52 1992.23 1248.5L1990.89 1226.15Z" stroke="#000000" stroke-width="4.58333" stroke-linecap="butt" stroke-linejoin="round" stroke-miterlimit="10" stroke-opacity="1" fill="#000000" fill-rule="evenodd" fill-opacity="1"/><path d="M2068.37 1166.78C2068.84 1174.74 2062.65 1181.58 2054.52 1182.06 2046.4 1182.53 2039.42 1176.44 2038.95 1168.47L2037.81 1149.7C2036 1119.36 2047.5 1089.71 2069.41 1068.22L2109.86 1028.53C2114.08 1024.39 2114.08 1017.66 2109.86 1013.52 2105.63 1009.37 2098.77 1009.37 2094.55 1013.52L2054.1 1053.21C2027.81 1078.98 2014.01 1114.56 2016.19 1150.95L2017.35 1170.19C2017.83 1178.15 2011.64 1184.99 2003.5 1185.48 1995.38 1185.94 1988.41 1179.85 1987.93 1171.89L1986.78 1152.65C1984.1 1108.01 2001 1064.37 2033.25 1032.75L2073.7 993.065C2089.44 977.645 2114.99 977.645 2130.71 993.065 2146.43 1008.51 2146.43 1033.56 2130.71 1048.98L2090.24 1088.65C2074.29 1104.31 2065.92 1125.91 2067.25 1148L2068.37 1166.78Z" stroke="#000000" stroke-width="4.58333" stroke-linecap="butt" stroke-linejoin="round" stroke-miterlimit="10" stroke-opacity="1" fill="#000000" fill-rule="evenodd" fill-opacity="1"/><path d="M2192.15 1106.93C2197.95 1112.55 2197.95 1121.66 2192.15 1127.28 2186.38 1132.91 2176.96 1132.91 2171.18 1127.28L2101.85 1060.05C2096.05 1054.45 2096.05 1045.32 2101.85 1039.72 2107.64 1034.09 2117.04 1034.09 2122.84 1039.72L2192.15 1106.93Z" stroke="#000000" stroke-width="4.58333" stroke-linecap="butt" stroke-linejoin="round" stroke-miterlimit="10" stroke-opacity="1" fill="#000000" fill-rule="evenodd" fill-opacity="1"/><path d="M1998.21 1295.69C2003.93 1301.37 2003.93 1310.58 1998.21 1316.25 1992.47 1321.92 1983.17 1321.92 1977.43 1316.25L1908.79 1248.31C1903.07 1242.63 1903.07 1233.42 1908.79 1227.74 1914.53 1222.09 1923.83 1222.09 1929.57 1227.74L1998.21 1295.69Z" stroke="#000000" stroke-width="4.58333" stroke-linecap="butt" stroke-linejoin="round" stroke-miterlimit="10" stroke-opacity="1" fill="#000000" fill-rule="evenodd" fill-opacity="1"/><path d="M2150.21 1146.94C2155.93 1152.57 2155.93 1161.68 2150.21 1167.3 2144.47 1172.9 2135.17 1172.9 2129.43 1167.3L2060.79 1100.06C2055.07 1094.44 2055.07 1085.32 2060.79 1079.7 2066.53 1074.1 2075.83 1074.1 2081.57 1079.7L2150.21 1146.94Z" stroke="#000000" stroke-width="4.58333" stroke-linecap="butt" stroke-linejoin="round" stroke-miterlimit="10" stroke-opacity="1" fill="#000000" fill-rule="evenodd" fill-opacity="1"/><path d="M1957.2 1335.95C1962.93 1341.55 1962.93 1350.68 1957.2 1356.28 1951.46 1361.91 1942.16 1361.91 1936.42 1356.28L1867.8 1289.07C1862.07 1283.45 1862.07 1274.34 1867.8 1268.72 1873.52 1263.1 1882.84 1263.1 1888.56 1268.72L1957.2 1335.95Z" stroke="#000000" stroke-width="4.58333" stroke-linecap="butt" stroke-linejoin="round" stroke-miterlimit="10" stroke-opacity="1" fill="#000000" fill-rule="evenodd" fill-opacity="1"/></g></g></svg>