<svg width="1105" height="889" xmlns="http://www.w3.org/2000/svg" xmlns:xlink="http://www.w3.org/1999/xlink" xml:space="preserve" overflow="hidden"><g transform="translate(-1475 -701)"><g><path d="M1812.56 706C1843.1 706.005 1880.73 721.633 1902.36 743.345L1959.54 800.753C1962.66 803.86 1968.58 807.364 1975.21 810.128 1981.84 812.889 1988.5 814.638 1992.91 814.641L2461.93 814.641C2523.65 814.646 2574 865.087 2574 927.218L2574 1470.42C2574 1532.56 2523.65 1583 2461.93 1583L1596.07 1583C1534.35 1583 1484 1532.56 1484 1470.42L1484 818.576C1484 756.446 1534.35 706.004 1596.07 706L1812.56 706ZM1596.07 786.323C1578.28 786.328 1563.87 800.882 1563.87 818.576L1563.87 1470.42C1563.87 1488.12 1578.28 1502.67 1596.07 1502.68L2461.93 1502.68C2479.72 1502.67 2494.13 1488.12 2494.13 1470.42L2494.13 927.218C2494.13 909.523 2479.72 894.969 2461.93 894.965L1992.91 894.965C1962.37 894.962 1924.74 879.333 1903.11 857.619L1845.93 800.174C1842.81 797.066 1836.89 793.562 1830.26 790.799 1823.63 788.038 1816.97 786.327 1812.56 786.323L1596.07 786.323Z" stroke="#000000" stroke-width="7.7231" stroke-linecap="butt" stroke-linejoin="miter" stroke-miterlimit="8" stroke-opacity="1" fill="#000000" fill-rule="evenodd" fill-opacity="1"/><path d="M2114.43 1089.3C2121.67 1082.23 2133.42 1082.23 2140.66 1089.3L2239.57 1185.72C2246.81 1192.78 2246.81 1204.22 2239.57 1211.28L2140.66 1307.71C2133.42 1314.77 2121.67 1314.77 2114.43 1307.71 2107.19 1300.64 2107.19 1289.2 2114.43 1282.14L2200.23 1198.5 2114.43 1114.86C2107.19 1107.8 2107.19 1096.36 2114.43 1089.3Z" fill="#000000" fill-rule="evenodd" fill-opacity="1"/><path d="M1944.57 1089.3C1937.33 1082.23 1925.58 1082.23 1918.34 1089.3L1819.43 1185.72C1812.19 1192.78 1812.19 1204.22 1819.43 1211.28L1918.34 1307.71C1925.58 1314.77 1937.33 1314.77 1944.57 1307.71 1951.81 1300.64 1951.81 1289.2 1944.57 1282.14L1858.77 1198.5 1944.57 1114.86C1951.81 1107.8 1951.81 1096.36 1944.57 1089.3Z" fill="#000000" fill-rule="evenodd" fill-opacity="1"/><path d="M2058.55 1048.45C2068.55 1050.66 2074.81 1060.34 2072.53 1070.07L2010.66 1334.94C2008.39 1344.67 1998.45 1350.76 1988.45 1348.55 1978.46 1346.34 1972.19 1336.66 1974.47 1326.93L2036.34 1062.06C2038.61 1052.34 2048.55 1046.24 2058.55 1048.45Z" fill="#000000" fill-rule="evenodd" fill-opacity="1"/></g></g></svg>