<svg width="1105" height="889" xmlns="http://www.w3.org/2000/svg" xmlns:xlink="http://www.w3.org/1999/xlink" xml:space="preserve" overflow="hidden"><g transform="translate(-1475 -701)"><g><path d="M1812.56 706C1843.1 706.005 1880.73 721.633 1902.36 743.345L1959.54 800.753C1962.66 803.86 1968.58 807.364 1975.21 810.128 1981.84 812.889 1988.5 814.638 1992.91 814.641L2461.93 814.641C2523.65 814.646 2574 865.087 2574 927.218L2574 1470.42C2574 1532.56 2523.65 1583 2461.93 1583L1596.07 1583C1534.35 1583 1484 1532.56 1484 1470.42L1484 818.576C1484 756.446 1534.35 706.004 1596.07 706L1812.56 706ZM1596.07 786.323C1578.28 786.328 1563.87 800.882 1563.87 818.576L1563.87 1470.42C1563.87 1488.12 1578.28 1502.67 1596.07 1502.68L2461.93 1502.68C2479.72 1502.67 2494.13 1488.12 2494.13 1470.42L2494.13 927.218C2494.13 909.523 2479.72 894.969 2461.93 894.965L1992.91 894.965C1962.37 894.962 1924.74 879.333 1903.11 857.619L1845.93 800.174C1842.81 797.066 1836.89 793.562 1830.26 790.799 1823.63 788.038 1816.97 786.327 1812.56 786.323L1596.07 786.323Z" stroke="#000000" stroke-width="7.7231" stroke-linecap="butt" stroke-linejoin="miter" stroke-miterlimit="8" stroke-opacity="1" fill="#000000" fill-rule="evenodd" fill-opacity="1"/><path d="M2190 998.123 2190 1385.56C2190 1398.98 2179.06 1410 2165.62 1410L2144.34 1410C2130.92 1410 2119.96 1399.03 2119.96 1385.56L2119.96 1283.62 2089.26 1283.62C2082.95 1283.62 2078.04 1278.66 2078.17 1271.79 2076.1 1183.06 2085.6 1123.37 2102.37 1080.58 2119.65 1036.52 2144.39 1010.36 2172.21 989.244 2179.59 983.659 2189.98 989.207 2189.98 998.106 2189.99 998.112 2190 998.117 2190 998.123ZM1990.14 1092.35C1990.14 1107 1967.93 1107 1967.93 1092.35L1967.93 998.123C1967.93 983.475 1990.14 983.475 1990.14 998.123L1990.14 1092.35ZM1940.18 1092.35C1940.18 1107 1917.97 1107 1917.97 1092.35L1917.97 998.123C1917.97 983.475 1940.18 983.475 1940.18 998.123L1940.18 1092.35ZM2017.89 998.123C2016.78 1000.28 2017.89 1056.12 2017.89 1085.12 2017.89 1098.58 2013.73 1111.07 2006.63 1121.36 1988.27 1147.98 1969.44 1140.62 1969.44 1155.38L1969.44 1372.3C1969.44 1376.55 1967.72 1380.41 1964.93 1383.2L1964.91 1383.18C1958.86 1389.24 1949.2 1389.22 1943.18 1383.2L1943.19 1383.18C1940.4 1380.38 1938.66 1376.53 1938.66 1372.3 1938.67 1299.99 1938.68 1227.69 1938.68 1155.38 1938.68 1150.45 1935.49 1146.28 1931.07 1144.79 1907.3 1136.22 1890.23 1111.5 1890.23 1085.1 1890.22 1056.11 1890.22 1027.12 1890.21 998.126 1890.21 983.477 1868 983.477 1868 998.126L1868 1085.12C1868 1118.34 1887.25 1148.31 1916.47 1162.65L1916.47 1372.31C1916.47 1382.69 1920.69 1392.1 1927.5 1398.93L1927.52 1398.91C1942.26 1413.69 1965.91 1413.67 1980.61 1398.93L1980.6 1398.91C1987.41 1392.08 1991.65 1382.67 1991.65 1372.31L1991.65 1162.67C2020.87 1148.31 2040.12 1118.36 2040.12 1085.14 2040.11 1056.14 2040.11 1027.13 2040.1 998.131 2040.1 983.482 2017.89 983.482 2017.89 998.131 2017.89 998.128 2017.89 998.126 2017.89 998.123ZM2167.79 1283.62 2142.17 1283.62 2142.17 1385.54 2144.34 1387.72C2147.52 1387.72 2165.73 1388.47 2167.15 1387.07L2167.79 1385.56 2167.79 1283.62ZM2167.79 1261.36 2167.79 1021.89C2110.94 1075.05 2098.72 1159.51 2100.12 1261.36L2167.79 1261.36Z" stroke="#000000" stroke-width="13.75" stroke-linecap="butt" stroke-linejoin="miter" stroke-miterlimit="8" stroke-opacity="1" fill="#000000" fill-rule="evenodd" fill-opacity="1"/></g></g></svg>