<svg width="30" height="24" viewBox="0 0 30 24" fill="none" xmlns="http://www.w3.org/2000/svg">
<path d="M9.40039 0.900391C10.1907 0.900521 11.164 1.2961 11.7236 1.8457L13.2031 3.29883C13.2837 3.3775 13.4368 3.46618 13.6084 3.53613C13.78 3.60604 13.9522 3.65032 14.0664 3.65039H26.2002C27.797 3.6505 29.0996 4.92731 29.0996 6.5V20.25C29.0996 21.8227 27.797 23.0995 26.2002 23.0996H3.7998C2.20298 23.0995 0.900391 21.8227 0.900391 20.25V3.75C0.900391 2.17731 2.20298 0.900495 3.7998 0.900391H9.40039ZM14.0664 9.34961C13.9521 9.34967 13.7799 9.39317 13.6084 9.46289C13.4367 9.5327 13.2837 9.62207 13.2031 9.70117L12.6562 10.2383C12.0965 10.7878 11.1232 11.1836 10.333 11.1836H2.9668V20.25C2.9668 20.6979 3.33937 21.0663 3.7998 21.0664H26.2002C26.6606 21.0663 27.0332 20.6979 27.0332 20.25V9.34961H14.0664ZM3.7998 2.93359C3.33937 2.9337 2.9668 3.30211 2.9668 3.75V9.15039H10.333C10.4473 9.15039 10.6204 9.10689 10.792 9.03711C10.9635 8.96732 11.1158 8.87788 11.1963 8.79883L11.7432 8.26172C12.3028 7.71208 13.2761 7.31649 14.0664 7.31641H27.0332V6.5C27.0332 6.05211 26.6606 5.6837 26.2002 5.68359H14.0664C13.2761 5.68351 12.3028 5.28792 11.7432 4.73828L10.2637 3.28418C10.183 3.20552 10.03 3.11681 9.8584 3.04688C9.68688 2.977 9.51455 2.93369 9.40039 2.93359H3.7998Z" fill="black" stroke="black" stroke-width="0.2"/>
</svg>
