<svg width="1105" height="889" xmlns="http://www.w3.org/2000/svg" xmlns:xlink="http://www.w3.org/1999/xlink" xml:space="preserve" overflow="hidden"><g transform="translate(-1475 -701)"><g><path d="M1812.56 706C1843.1 706.005 1880.73 721.633 1902.36 743.345L1959.54 800.753C1962.66 803.86 1968.58 807.364 1975.21 810.128 1981.84 812.889 1988.5 814.638 1992.91 814.641L2461.93 814.641C2523.65 814.646 2574 865.087 2574 927.218L2574 1470.42C2574 1532.56 2523.65 1583 2461.93 1583L1596.07 1583C1534.35 1583 1484 1532.56 1484 1470.42L1484 818.576C1484 756.446 1534.35 706.004 1596.07 706L1812.56 706ZM1596.07 786.323C1578.28 786.328 1563.87 800.882 1563.87 818.576L1563.87 1470.42C1563.87 1488.12 1578.28 1502.67 1596.07 1502.68L2461.93 1502.68C2479.72 1502.67 2494.13 1488.12 2494.13 1470.42L2494.13 927.218C2494.13 909.523 2479.72 894.969 2461.93 894.965L1992.91 894.965C1962.37 894.962 1924.74 879.333 1903.11 857.619L1845.93 800.174C1842.81 797.066 1836.89 793.562 1830.26 790.799 1823.63 788.038 1816.97 786.327 1812.56 786.323L1596.07 786.323Z" stroke="#000000" stroke-width="7.7231" stroke-linecap="butt" stroke-linejoin="miter" stroke-miterlimit="8" stroke-opacity="1" fill="#000000" fill-rule="evenodd" fill-opacity="1"/><path d="M2007 1366C2000.93 1366 1996 1360.98 1996 1354.81L1996 1296.19C1996 1290.02 2000.93 1285 2007 1285 2013.07 1285 2018 1290.02 2018 1296.19L2018 1354.81C2018 1360.98 2013.07 1366 2007 1366Z" stroke="#000000" stroke-width="13.75" stroke-linecap="butt" stroke-linejoin="miter" stroke-miterlimit="8" stroke-opacity="1" fill="#000000" fill-rule="evenodd" fill-opacity="1"/><path d="M2088.13 1067C2085.94 1067 2083.71 1066.35 2081.78 1065.01 2076.73 1061.49 2075.48 1054.53 2078.99 1049.47L2119.71 990.798C2123.22 985.736 2130.17 984.47 2135.22 988.006 2140.27 991.525 2141.52 998.486 2138.01 1003.55L2097.29 1062.22C2095.14 1065.34 2091.66 1067 2088.13 1067Z" stroke="#000000" stroke-width="13.75" stroke-linecap="butt" stroke-linejoin="miter" stroke-miterlimit="8" stroke-opacity="1" fill="#000000" fill-rule="evenodd" fill-opacity="1"/><path d="M2029.12 1309C1998.52 1309 1969.02 1300.73 1943.13 1285.01L1938.25 1292C1934.73 1297.07 1927.79 1298.3 1922.75 1294.76 1917.73 1291.22 1916.48 1284.26 1920.01 1279.2L1931.06 1263.34C1932.75 1260.92 1935.32 1259.24 1938.24 1258.74 1941.17 1258.26 1944.13 1258.91 1946.54 1260.6 1970.82 1277.65 1999.36 1286.66 2029.1 1286.66 2108.86 1286.66 2173.75 1221.53 2173.75 1141.46 2173.75 1093.92 2150.55 1049.4 2111.7 1022.35 2106.66 1018.83 2105.39 1011.89 2108.9 1006.8 2112.4 1001.74 2119.34 1000.47 2124.38 1003.99 2169.22 1035.21 2196 1086.61 2196 1141.47 2196 1233.84 2121.12 1309 2029.11 1309Z" stroke="#000000" stroke-width="13.75" stroke-linecap="butt" stroke-linejoin="miter" stroke-miterlimit="8" stroke-opacity="1" fill="#000000" fill-rule="evenodd" fill-opacity="1"/><path d="M2051.5 1366C2045.16 1366 2040 1360.98 2040 1354.81L2040 1296.19C2040 1290.02 2045.16 1285 2051.5 1285 2057.84 1285 2063 1290.02 2063 1296.19L2063 1354.81C2063 1360.98 2057.84 1366 2051.5 1366Z" stroke="#000000" stroke-width="13.75" stroke-linecap="butt" stroke-linejoin="miter" stroke-miterlimit="8" stroke-opacity="1" fill="#000000" fill-rule="evenodd" fill-opacity="1"/><path d="M2154.89 1411C2148.77 1411 2143.79 1405.99 2143.79 1399.83L2143.79 1377.5C2143.79 1371.34 2138.81 1366.33 2132.68 1366.33L1925.33 1366.33C1919.2 1366.33 1914.22 1371.34 1914.22 1377.5L1914.22 1399.83C1914.22 1405.99 1909.24 1411 1903.11 1411 1896.98 1411 1892 1405.99 1892 1399.83L1892 1377.5C1892 1359.02 1906.94 1344 1925.32 1344L2132.68 1344C2151.06 1344 2166 1359.02 2166 1377.5L2166 1399.83C2166 1405.99 2161.02 1411 2154.89 1411Z" stroke="#000000" stroke-width="13.75" stroke-linecap="butt" stroke-linejoin="miter" stroke-miterlimit="8" stroke-opacity="1" fill="#000000" fill-rule="evenodd" fill-opacity="1"/><path d="M2206.88 1411 1851.12 1411C1844.98 1411 1840 1405.84 1840 1399.5 1840 1393.16 1844.98 1388 1851.12 1388L2206.88 1388C2213.02 1388 2218 1393.16 2218 1399.5 2218 1405.84 2213.02 1411 2206.88 1411Z" stroke="#000000" stroke-width="13.75" stroke-linecap="butt" stroke-linejoin="miter" stroke-miterlimit="8" stroke-opacity="1" fill="#000000" fill-rule="evenodd" fill-opacity="1"/><path d="M2029 1257C1965.59 1257 1914 1205.18 1914 1141.5 1914 1077.81 1965.58 1026 2029 1026 2092.42 1026 2144 1077.81 2144 1141.5 2144 1205.19 2092.42 1257 2029 1257ZM2029 1048.36C1977.86 1048.36 1936.26 1090.14 1936.26 1141.5 1936.26 1192.86 1977.86 1234.64 2029 1234.64 2080.14 1234.64 2121.74 1192.86 2121.74 1141.5 2121.74 1090.14 2080.14 1048.36 2029 1048.36Z" stroke="#000000" stroke-width="13.75" stroke-linecap="butt" stroke-linejoin="miter" stroke-miterlimit="8" stroke-opacity="1" fill="#000000" fill-rule="evenodd" fill-opacity="1"/><path d="M2025.1 1138C2009.88 1138 1999.24 1125.8 1993.85 1119.64 1993.39 1119.1 1992.85 1118.5 1992.33 1117.9 1982.89 1120.49 1966.66 1122.78 1952.84 1108.91 1948.42 1104.46 1943.27 1098.66 1937.55 1091.68 1933.62 1086.93 1934.31 1079.87 1939.07 1075.94 1943.83 1072.01 1950.86 1072.7 1954.78 1077.47 1960.08 1083.91 1964.74 1089.18 1968.67 1093.11 1975.02 1099.5 1982.16 1097.83 1990.15 1095.16 1999.49 1092.07 2005.94 1099.48 2010.66 1104.9 2020.14 1115.76 2024.12 1118.11 2032.35 1112.89 2039.51 1108.35 2043.66 1101.1 2043.71 1077.58 2043.73 1069.09 2040.22 1057.54 2033.54 1044.17 2030.79 1038.65 2033.02 1031.93 2038.52 1029.17 2044.05 1026.43 2050.74 1028.65 2053.49 1034.16 2061.82 1050.87 2066.04 1065.49 2066 1077.62 2065.96 1098.61 2063.3 1119.69 2044.29 1131.76 2037.26 1136.23 2030.85 1137.96 2025.1 1137.96Z" stroke="#000000" stroke-width="13.75" stroke-linecap="butt" stroke-linejoin="miter" stroke-miterlimit="8" stroke-opacity="1" fill="#000000" fill-rule="evenodd" fill-opacity="1"/><path d="M2071.58 1245.98C2071.28 1245.98 2070.97 1245.96 2070.65 1245.95 2064.52 1245.45 2059.95 1240.09 2060.45 1234 2061.42 1222.37 2059.51 1213.32 2055.09 1208.56 2052 1205.24 2048.42 1204.74 2046.54 1204.74 2044.35 1204.74 2041.2 1205.24 2037.87 1205.77 2027.86 1207.38 2014.14 1209.59 2000.41 1202.78 1991.43 1198.31 1986.65 1193.49 1982.81 1189.62 1979.41 1186.18 1976.72 1183.49 1970.9 1180.72 1961.71 1176.38 1954.9 1177.45 1948.12 1184.32 1943.81 1188.69 1936.75 1188.77 1932.35 1184.49 1927.95 1180.2 1927.87 1173.19 1932.18 1168.83 1945.59 1155.2 1962.75 1152.32 1980.47 1160.71 1989.85 1165.14 1994.54 1169.88 1998.69 1174.05 2002.05 1177.45 2004.7 1180.13 2010.39 1182.95 2017.66 1186.57 2026.11 1185.2 2034.32 1183.91 2038.58 1183.23 2042.59 1182.58 2046.56 1182.58 2055.94 1182.58 2065.04 1186.57 2071.48 1193.55 2077.63 1200.18 2084.58 1212.9 2082.68 1235.83 2082.2 1241.61 2077.33 1246 2071.6 1246Z" stroke="#000000" stroke-width="13.75" stroke-linecap="butt" stroke-linejoin="miter" stroke-miterlimit="8" stroke-opacity="1" fill="#000000" fill-rule="evenodd" fill-opacity="1"/><path d="M2118.02 1199.98C2114.87 1199.98 2111.76 1198.66 2109.55 1196.08 2087.47 1170.19 2080.09 1143.27 2088.19 1118.19 2092.64 1104.39 2099.89 1091.78 2109.72 1080.73 2113.8 1076.15 2120.82 1075.72 2125.42 1079.82 2130.02 1083.91 2125.58 1086.68 2126.33 1095.55 2127.09 1104.43 2133.46 1122.22 2129.96 1133.06 2124.28 1150.63 2109.44 1161.65 2126.46 1181.61 2130.45 1186.29 2129.91 1193.33 2125.24 1197.33 2123.14 1199.11 2120.57 1200 2118.03 1200 2118.03 1199.99 2118.02 1199.99 2118.02 1199.98Z" stroke="#000000" stroke-width="13.75" stroke-linecap="butt" stroke-linejoin="miter" stroke-miterlimit="8" stroke-opacity="1" fill="#000000" fill-rule="evenodd" fill-opacity="1"/></g></g></svg>