<svg width="1105" height="889" xmlns="http://www.w3.org/2000/svg" xmlns:xlink="http://www.w3.org/1999/xlink" xml:space="preserve" overflow="hidden"><g transform="translate(-1475 -701)"><g><path d="M1812.56 706C1843.1 706.005 1880.73 721.633 1902.36 743.345L1959.54 800.753C1962.66 803.86 1968.58 807.364 1975.21 810.128 1981.84 812.889 1988.5 814.638 1992.91 814.641L2461.93 814.641C2523.65 814.646 2574 865.087 2574 927.218L2574 1470.42C2574 1532.56 2523.65 1583 2461.93 1583L1596.07 1583C1534.35 1583 1484 1532.56 1484 1470.42L1484 818.576C1484 756.446 1534.35 706.004 1596.07 706L1812.56 706ZM1596.07 786.323C1578.28 786.328 1563.87 800.882 1563.87 818.576L1563.87 1470.42C1563.87 1488.12 1578.28 1502.67 1596.07 1502.68L2461.93 1502.68C2479.72 1502.67 2494.13 1488.12 2494.13 1470.42L2494.13 927.218C2494.13 909.523 2479.72 894.969 2461.93 894.965L1992.91 894.965C1962.37 894.962 1924.74 879.333 1903.11 857.619L1845.93 800.174C1842.81 797.066 1836.89 793.562 1830.26 790.799 1823.63 788.038 1816.97 786.327 1812.56 786.323L1596.07 786.323Z" stroke="#000000" stroke-width="7.7231" stroke-linecap="butt" stroke-linejoin="miter" stroke-miterlimit="8" stroke-opacity="1" fill="#000000" fill-rule="evenodd" fill-opacity="1"/><path d="M2106.99 1081.51 1952.03 1081.51C1950.56 1091.28 1945.97 1100.05 1939.29 1106.72 1933.95 1112.09 1927.24 1116.13 1919.76 1118.28L1919.76 1134.73C1929.45 1136.71 1938.12 1141.56 1944.88 1148.32 1953.85 1157.32 1959.41 1169.73 1959.41 1183.42L1959.41 1328.07 1980 1328.07 1980 1183.42C1980 1169.75 1985.58 1157.33 1994.53 1148.32 2003.5 1139.32 2015.87 1133.74 2029.5 1133.74 2043.13 1133.74 2055.5 1139.32 2064.47 1148.32 2073.44 1157.32 2079.01 1169.73 2079.01 1183.42L2079.01 1328.07 2099.6 1328.07 2099.6 1183.42C2099.6 1169.75 2105.18 1157.33 2114.13 1148.32 2120.87 1141.56 2129.55 1136.71 2139.24 1134.73L2139.24 1118.28C2131.77 1116.14 2125.06 1112.11 2119.71 1106.72 2113.06 1100.05 2108.46 1091.28 2106.97 1081.51ZM1919.76 1155.2 1919.76 1328.05 1939.69 1328.05 1939.69 1183.4C1939.69 1175.2 1936.34 1167.73 1930.94 1162.3 1927.81 1159.15 1924 1156.71 1919.76 1155.2ZM2119.33 1328.05 2139.26 1328.05 2139.26 1155.2C2135.02 1156.71 2131.21 1159.15 2128.08 1162.29 2122.66 1167.73 2119.33 1175.18 2119.33 1183.4ZM1950.69 1061.73 2108.31 1061.73C2110.48 1054.36 2114.45 1047.79 2119.71 1042.51 2127.89 1034.3 2139.23 1029.2 2151.7 1029.2 2157.15 1029.2 2161.56 1033.63 2161.56 1039.09 2161.56 1044.56 2157.15 1048.98 2151.7 1048.98 2144.64 1048.98 2138.25 1051.84 2133.63 1056.48 2129 1061.13 2126.15 1067.53 2126.15 1074.62 2126.15 1081.7 2129 1088.1 2133.63 1092.75 2137.82 1096.95 2143.45 1099.69 2149.72 1100.18L2149.84 1100.2C2150.44 1100.25 2151.06 1100.26 2151.68 1100.26 2164.54 1100.26 2176.19 1095.03 2184.62 1086.59 2193.04 1078.15 2198.25 1066.46 2198.25 1053.56 2198.25 1040.66 2193.04 1028.97 2184.62 1020.51 2176.21 1012.06 2164.56 1006.83 2151.7 1006.83L1907.27 1006.83C1894.42 1006.83 1882.76 1012.06 1874.35 1020.51 1865.92 1028.95 1860.72 1040.64 1860.72 1053.56 1860.72 1066.46 1865.93 1078.15 1874.35 1086.59 1882.76 1095.05 1894.42 1100.26 1907.27 1100.26 1907.89 1100.26 1908.51 1100.23 1909.12 1100.2L1909.24 1100.18C1915.51 1099.71 1921.14 1096.95 1925.33 1092.75 1929.96 1088.1 1932.81 1081.7 1932.81 1074.62 1932.81 1067.53 1929.96 1061.13 1925.33 1056.48 1920.7 1051.84 1914.31 1048.98 1907.26 1048.98 1901.81 1048.98 1897.4 1044.56 1897.4 1039.09 1897.4 1033.63 1901.81 1029.2 1907.26 1029.2 1919.75 1029.2 1931.06 1034.28 1939.24 1042.51 1944.51 1047.79 1948.48 1054.36 1950.64 1061.73ZM1900.03 1119.62C1884.62 1117.94 1870.81 1110.96 1860.41 1100.53 1848.41 1088.51 1841 1071.87 1841 1053.5 1841 1035.14 1848.41 1018.5 1860.41 1006.48 1872.4 994.45 1888.98 987 1907.29 987L2151.71 987C2170.02 987 2186.6 994.434 2198.59 1006.48 2210.59 1018.52 2218 1035.14 2218 1053.5 2218 1071.85 2210.59 1088.51 2198.59 1100.53 2188.19 1110.96 2174.38 1117.94 2158.97 1119.62L2158.97 1328.05 2172.07 1328.05C2177.51 1328.05 2181.92 1332.47 2181.92 1337.94L2181.92 1399.11C2181.92 1404.58 2177.51 1409 2172.07 1409L1886.93 1409C1881.48 1409 1877.08 1404.58 1877.08 1399.11L1877.08 1337.94C1877.08 1332.47 1881.48 1328.05 1886.93 1328.05L1900.03 1328.05ZM2059.27 1328.05 2059.27 1183.4C2059.27 1175.19 2055.92 1167.72 2050.52 1162.29 2045.11 1156.86 2037.68 1153.51 2029.5 1153.51 2021.32 1153.51 2013.87 1156.88 2008.46 1162.29 2003.06 1167.72 1999.71 1175.17 1999.71 1183.4L1999.71 1328.05 2059.29 1328.05ZM2162.19 1347.83 1896.77 1347.83 1896.77 1389.22 2162.19 1389.22Z" stroke="#000000" stroke-width="13.75" stroke-linecap="butt" stroke-linejoin="miter" stroke-miterlimit="8" stroke-opacity="1" fill="#000000" fill-rule="evenodd" fill-opacity="1"/></g></g></svg>