<svg width="1105" height="889" xmlns="http://www.w3.org/2000/svg" xmlns:xlink="http://www.w3.org/1999/xlink" xml:space="preserve" overflow="hidden"><g transform="translate(-1475 -701)"><g><path d="M1812.56 706C1843.1 706.005 1880.73 721.633 1902.36 743.345L1959.54 800.753C1962.66 803.86 1968.58 807.364 1975.21 810.128 1981.84 812.889 1988.5 814.638 1992.91 814.641L2461.93 814.641C2523.65 814.646 2574 865.087 2574 927.218L2574 1470.42C2574 1532.56 2523.65 1583 2461.93 1583L1596.07 1583C1534.35 1583 1484 1532.56 1484 1470.42L1484 818.576C1484 756.446 1534.35 706.004 1596.07 706L1812.56 706ZM1596.07 786.323C1578.28 786.328 1563.87 800.882 1563.87 818.576L1563.87 1470.42C1563.87 1488.12 1578.28 1502.67 1596.07 1502.68L2461.93 1502.68C2479.72 1502.67 2494.13 1488.12 2494.13 1470.42L2494.13 927.218C2494.13 909.523 2479.72 894.969 2461.93 894.965L1992.91 894.965C1962.37 894.962 1924.74 879.333 1903.11 857.619L1845.93 800.174C1842.81 797.066 1836.89 793.562 1830.26 790.799 1823.63 788.038 1816.97 786.327 1812.56 786.323L1596.07 786.323Z" stroke="#000000" stroke-width="7.7231" stroke-linecap="butt" stroke-linejoin="miter" stroke-miterlimit="8" stroke-opacity="1" fill="#000000" fill-rule="evenodd" fill-opacity="1"/><path d="M2198.43 1152.82 2075.57 1152.82 2075.57 1029.68C2075.57 1004.22 2054.9 983.5 2029.5 983.5L1860.57 983.5C1835.17 983.5 1814.5 1004.22 1814.5 1029.68L1814.5 1199C1814.5 1224.46 1835.17 1245.18 1860.57 1245.18L1983.43 1245.18 1983.43 1368.32C1983.43 1393.78 2004.1 1414.5 2029.5 1414.5L2198.43 1414.5C2223.83 1414.5 2244.5 1393.78 2244.5 1368.32L2244.5 1199C2244.5 1173.54 2223.83 1152.82 2198.43 1152.82ZM1845.21 1199 1845.21 1029.68C1845.21 1021.19 1852.11 1014.29 1860.57 1014.29L2029.5 1014.29C2037.97 1014.29 2044.86 1021.19 2044.86 1029.68L2044.86 1199C2044.86 1207.49 2037.97 1214.39 2029.5 1214.39L1860.57 1214.39C1852.11 1214.39 1845.21 1207.49 1845.21 1199ZM2213.79 1368.32C2213.79 1376.81 2206.89 1383.71 2198.43 1383.71L2029.5 1383.71C2021.03 1383.71 2014.14 1376.81 2014.14 1368.32L2014.14 1245.18 2029.5 1245.18C2054.9 1245.18 2075.57 1224.46 2075.57 1199L2075.57 1183.61 2198.43 1183.61C2206.89 1183.61 2213.79 1190.51 2213.79 1199ZM2128.08 1223.73C2125.66 1218.07 2120.11 1214.4 2113.97 1214.4 2107.82 1214.4 2102.26 1218.05 2099.86 1223.73L2053.79 1331.48C2050.45 1339.29 2054.05 1348.35 2061.85 1351.68 2069.64 1355.03 2078.68 1351.41 2082 1343.6L2091.18 1322.15 2136.75 1322.15 2145.93 1343.6C2148.42 1349.43 2154.09 1352.93 2160.04 1352.93 2162.05 1352.93 2164.11 1352.53 2166.08 1351.66 2173.88 1348.31 2177.49 1339.27 2174.15 1331.46L2128.08 1223.71ZM2104.35 1291.36 2113.97 1268.86 2123.58 1291.36ZM1995.22 1073.69C1998.14 1077.19 1999.34 1081.82 1998.54 1086.31 1995.2 1104.57 1986.5 1131.41 1963.95 1155.61 1949.7 1170.89 1931.75 1182.9 1912.06 1190.28 1910.27 1190.94 1908.45 1191.27 1906.64 1191.27 1900.42 1191.27 1894.57 1187.46 1892.26 1181.28 1889.29 1173.31 1893.3 1164.44 1901.23 1161.46 1916.55 1155.71 1930.45 1146.42 1941.48 1134.56 1952.46 1122.77 1959.2 1110.17 1963.35 1098.89L1906.64 1098.89C1898.16 1098.89 1891.29 1092 1891.29 1083.5 1891.29 1074.99 1898.16 1068.1 1906.64 1068.1L1922 1068.1 1922 1052.71C1922 1044.21 1928.87 1037.32 1937.36 1037.32 1945.84 1037.32 1952.71 1044.21 1952.71 1052.71L1952.71 1068.1 1983.43 1068.1C1988 1068.1 1992.3 1070.14 1995.22 1073.63Z" stroke="#000000" stroke-width="4.58333" stroke-linecap="butt" stroke-linejoin="miter" stroke-miterlimit="8" stroke-opacity="1" fill="#000000" fill-rule="evenodd" fill-opacity="1"/></g></g></svg>