<svg width="1105" height="889" xmlns="http://www.w3.org/2000/svg" xmlns:xlink="http://www.w3.org/1999/xlink" xml:space="preserve" overflow="hidden"><g transform="translate(-1475 -701)"><g><path d="M1812.56 706C1843.1 706.005 1880.73 721.633 1902.36 743.345L1959.54 800.753C1962.66 803.86 1968.58 807.364 1975.21 810.128 1981.84 812.889 1988.5 814.638 1992.91 814.641L2461.93 814.641C2523.65 814.646 2574 865.087 2574 927.218L2574 1470.42C2574 1532.56 2523.65 1583 2461.93 1583L1596.07 1583C1534.35 1583 1484 1532.56 1484 1470.42L1484 818.576C1484 756.446 1534.35 706.004 1596.07 706L1812.56 706ZM1596.07 786.323C1578.28 786.328 1563.87 800.882 1563.87 818.576L1563.87 1470.42C1563.87 1488.12 1578.28 1502.67 1596.07 1502.68L2461.93 1502.68C2479.72 1502.67 2494.13 1488.12 2494.13 1470.42L2494.13 927.218C2494.13 909.523 2479.72 894.969 2461.93 894.965L1992.91 894.965C1962.37 894.962 1924.74 879.333 1903.11 857.619L1845.93 800.174C1842.81 797.066 1836.89 793.562 1830.26 790.799 1823.63 788.038 1816.97 786.327 1812.56 786.323L1596.07 786.323Z" stroke="#000000" stroke-width="7.7231" stroke-linecap="butt" stroke-linejoin="miter" stroke-miterlimit="8" stroke-opacity="1" fill="#000000" fill-rule="evenodd" fill-opacity="1"/><g><g><g><path d="M378.635 31.2564C399.592 31.2597 418.63 39.8239 432.404 53.5971 446.189 67.3832 454.74 86.4201 454.743 107.363L454.743 378.635C454.74 399.592 446.176 418.63 432.404 432.404 418.616 446.189 399.579 454.74 378.635 454.743L107.363 454.743C86.4066 454.74 67.37 446.176 53.5971 432.404 39.8107 418.616 31.2597 399.579 31.2564 378.635L31.2564 107.363C31.2597 86.4066 39.8239 67.37 53.5971 53.5971 67.3832 39.8107 86.4201 31.2597 107.363 31.2564L378.635 31.2564ZM256.255 428.301 378.635 428.301C392.268 428.301 404.692 422.709 413.725 413.69 422.736 404.675 428.301 392.243 428.301 378.601L428.301 256.221 256.255 256.221 256.255 428.301ZM57.7329 378.635C57.7361 392.264 63.3275 404.661 72.3438 413.69L72.3102 413.69C81.3261 422.705 93.7542 428.301 107.397 428.301L229.779 428.301 229.779 256.221 57.7329 256.221 57.7329 378.635ZM189.878 350.5C197.179 350.5 203.099 356.418 203.099 363.719 203.098 371.023 197.179 376.941 189.878 376.941L105.126 376.941C97.8255 376.938 91.905 371.019 91.9046 363.719 91.9046 356.418 97.8251 350.5 105.126 350.5L189.878 350.5ZM380.909 321.853C388.206 321.859 394.128 327.776 394.128 335.074 394.128 342.371 388.203 348.288 380.909 348.295L296.156 348.295C288.855 348.295 282.902 342.375 282.901 335.074 282.901 327.756 288.857 321.853 296.156 321.853L380.909 321.853ZM189.878 293.207C197.179 293.208 203.099 299.16 203.099 306.462 203.091 313.757 197.174 319.682 189.878 319.683L105.126 319.683C97.83 319.681 91.9123 313.757 91.9046 306.462 91.9046 299.161 97.8251 293.209 105.126 293.207L189.878 293.207ZM256.255 229.779 428.301 229.779 428.301 107.363C428.298 93.7379 422.705 81.3383 413.69 72.3102 404.675 63.2959 392.275 57.7024 378.635 57.6989L256.221 57.6989 256.255 229.779ZM107.397 57.6989C93.767 57.6989 81.3411 63.2921 72.3102 72.3102 63.2931 81.3268 57.6989 93.7528 57.6989 107.397L57.7329 229.779 229.779 229.779 229.779 57.6989 107.397 57.6989ZM147.502 95.2948C154.82 95.2948 160.757 101.25 160.757 108.55L160.757 137.671 189.878 137.671C197.18 137.671 203.133 143.623 203.133 150.926 203.128 158.239 197.174 164.147 189.878 164.147L160.757 164.147 160.757 193.302C160.754 200.601 154.802 206.523 147.502 206.523 140.205 206.519 134.284 200.599 134.28 193.302L134.28 164.147 105.126 164.147C97.8283 164.145 91.9098 158.222 91.9046 150.926 91.9046 143.625 97.8251 137.673 105.126 137.671L134.28 137.671 134.28 108.55C134.28 101.25 140.203 95.2986 147.502 95.2948ZM361.212 109.906C366.347 106.521 373.331 107.091 377.858 111.601 383.006 116.771 383.009 125.145 377.858 130.314L357.245 150.892 377.858 171.537C383.002 176.696 382.996 185.052 377.858 190.216L377.858 190.25C372.689 195.401 364.316 195.396 359.143 190.25L338.532 169.605 317.92 190.25C312.75 195.398 304.376 195.4 299.207 190.25L299.207 190.216C294.062 185.047 294.061 176.706 299.207 171.537L319.785 150.892 299.207 130.314C294.046 125.153 294.057 116.769 299.207 111.601L301.275 109.906C306.412 106.516 313.393 107.089 317.92 111.601L338.532 132.212 359.143 111.601 361.212 109.906Z" stroke="#000000" stroke-width="6.94285" stroke-linecap="butt" stroke-linejoin="miter" stroke-miterlimit="4" stroke-opacity="1" fill="#000000" fill-rule="nonzero" fill-opacity="1" transform="matrix(1 0 0 1.00206 1786 955)"/></g></g></g></g></g></svg>