<svg width="1105" height="889" xmlns="http://www.w3.org/2000/svg" xmlns:xlink="http://www.w3.org/1999/xlink" xml:space="preserve" overflow="hidden"><g transform="translate(-1475 -701)"><g><path d="M1812.56 706C1843.1 706.005 1880.73 721.633 1902.36 743.345L1959.54 800.753C1962.66 803.86 1968.58 807.364 1975.21 810.128 1981.84 812.889 1988.5 814.638 1992.91 814.641L2461.93 814.641C2523.65 814.646 2574 865.087 2574 927.218L2574 1470.42C2574 1532.56 2523.65 1583 2461.93 1583L1596.07 1583C1534.35 1583 1484 1532.56 1484 1470.42L1484 818.576C1484 756.446 1534.35 706.004 1596.07 706L1812.56 706ZM1596.07 786.323C1578.28 786.328 1563.87 800.882 1563.87 818.576L1563.87 1470.42C1563.87 1488.12 1578.28 1502.67 1596.07 1502.68L2461.93 1502.68C2479.72 1502.67 2494.13 1488.12 2494.13 1470.42L2494.13 927.218C2494.13 909.523 2479.72 894.969 2461.93 894.965L1992.91 894.965C1962.37 894.962 1924.74 879.333 1903.11 857.619L1845.93 800.174C1842.81 797.066 1836.89 793.562 1830.26 790.799 1823.63 788.038 1816.97 786.327 1812.56 786.323L1596.07 786.323Z" stroke="#000000" stroke-width="7.7231" stroke-linecap="butt" stroke-linejoin="miter" stroke-miterlimit="8" stroke-opacity="1" fill="#000000" fill-rule="evenodd" fill-opacity="1"/><path d="M2221.24 1007.63C2246.14 1032.36 2245.4 1076.48 2223.99 1127.82 2213.35 1152.64 2200.19 1176.32 2184.72 1198.5 2200.19 1220.68 2213.36 1244.37 2224 1269.2 2245.4 1320.53 2246.16 1364.66 2221.24 1389.37 2196.31 1414.08 2151.89 1413.36 2100.18 1392.11 2075.19 1381.54 2051.34 1368.47 2029 1353.12 2006.66 1368.48 1982.8 1381.55 1957.8 1392.12 1906.09 1413.36 1861.65 1414.12 1836.76 1389.37 1811.87 1364.62 1812.6 1320.53 1833.99 1269.2 1844.64 1244.37 1857.8 1220.68 1873.28 1198.5 1857.81 1176.32 1844.64 1152.63 1834 1127.8 1812.6 1076.47 1811.84 1032.34 1836.76 1007.63 1861.69 982.917 1906.11 983.637 1957.82 1004.89 1982.81 1015.46 2006.66 1028.53 2029 1043.88 2051.34 1028.52 2075.2 1015.46 2100.2 1004.88 2151.91 983.637 2196.35 982.88 2221.24 1007.63ZM2029 1148.92C2001.42 1148.91 1979.06 1171.11 1979.06 1198.49 1979.05 1225.88 2001.41 1248.08 2028.99 1248.08 2056.57 1248.09 2078.93 1225.89 2078.93 1198.51 2078.93 1185.35 2073.67 1172.74 2064.3 1163.43 2054.95 1154.13 2042.24 1148.9 2029 1148.92ZM2046.72 1180.91C2036.91 1171.19 2021.02 1171.2 2011.23 1180.94 2001.44 1190.68 2001.46 1206.46 2011.27 1216.18 2021.08 1225.9 2036.97 1225.88 2046.76 1216.14 2051.46 1211.46 2054.1 1205.11 2054.09 1198.5 2054.09 1191.9 2051.43 1185.56 2046.72 1180.91ZM2169.3 1219.83C2152.31 1242.05 2133.81 1263.09 2113.91 1282.79 2094.06 1302.55 2072.87 1320.93 2050.48 1337.8 2069.16 1350.12 2088.95 1360.7 2109.6 1369.39 2151.85 1386.74 2186.55 1388.97 2203.68 1371.95 2220.81 1354.94 2218.58 1320.49 2201.11 1278.54 2192.35 1258.04 2181.7 1238.38 2169.3 1219.83ZM1888.7 1177.17C1922.78 1132.72 1962.75 1093.03 2007.52 1059.2 1988.84 1046.88 1969.05 1036.3 1948.4 1027.61 1906.15 1010.26 1871.45 1008.03 1854.32 1025.05 1837.19 1042.06 1839.42 1076.51 1856.89 1118.46 1865.65 1138.96 1876.3 1158.62 1888.7 1177.17ZM2007.52 1337.8C1985.14 1320.94 1963.95 1302.56 1944.1 1282.8 1924.2 1263.1 1905.69 1242.06 1888.7 1219.83 1876.29 1238.38 1865.64 1258.03 1856.88 1278.53 1839.41 1320.48 1837.17 1354.93 1854.31 1371.94 1871.44 1388.95 1906.13 1386.73 1948.39 1369.38 1969.04 1360.69 1988.83 1350.12 2007.52 1337.8ZM2050.48 1059.2C2072.86 1076.06 2094.05 1094.44 2113.9 1114.2 2133.8 1133.9 2152.31 1154.94 2169.3 1177.17 2181.71 1158.62 2192.36 1138.97 2201.12 1118.47 2218.59 1076.52 2220.83 1042.07 2203.69 1025.06 2186.56 1008.05 2151.87 1010.27 2109.61 1027.62 2088.96 1036.31 2069.17 1046.88 2050.48 1059.2ZM2154.4 1198.5C2136.78 1174.78 2117.38 1152.43 2096.35 1131.63 2075.4 1110.75 2052.89 1091.48 2029 1073.99 1981.23 1109.11 1938.97 1151.07 1903.6 1198.5 1921.22 1222.22 1940.62 1244.57 1961.65 1265.37 1982.6 1286.25 2005.11 1305.52 2029 1323.01 2052.89 1305.52 2075.4 1286.25 2096.35 1265.37 2117.38 1244.57 2136.78 1222.22 2154.4 1198.5Z" stroke="#000000" stroke-width="13.75" stroke-linecap="butt" stroke-linejoin="miter" stroke-miterlimit="8" stroke-opacity="1" fill="#000000" fill-rule="evenodd" fill-opacity="1"/></g></g></svg>