<svg width="1105" height="889" xmlns="http://www.w3.org/2000/svg" xmlns:xlink="http://www.w3.org/1999/xlink" xml:space="preserve" overflow="hidden"><g transform="translate(-1475 -701)"><g><path d="M1812.56 706C1843.1 706.005 1880.73 721.633 1902.36 743.345L1959.54 800.753C1962.66 803.86 1968.58 807.364 1975.21 810.128 1981.84 812.889 1988.5 814.638 1992.91 814.641L2461.93 814.641C2523.65 814.646 2574 865.087 2574 927.218L2574 1470.42C2574 1532.56 2523.65 1583 2461.93 1583L1596.07 1583C1534.35 1583 1484 1532.56 1484 1470.42L1484 818.576C1484 756.446 1534.35 706.004 1596.07 706L1812.56 706ZM1596.07 786.323C1578.28 786.328 1563.87 800.882 1563.87 818.576L1563.87 1470.42C1563.87 1488.12 1578.28 1502.67 1596.07 1502.68L2461.93 1502.68C2479.72 1502.67 2494.13 1488.12 2494.13 1470.42L2494.13 927.218C2494.13 909.523 2479.72 894.969 2461.93 894.965L1992.91 894.965C1962.37 894.962 1924.74 879.333 1903.11 857.619L1845.93 800.174C1842.81 797.066 1836.89 793.562 1830.26 790.799 1823.63 788.038 1816.97 786.327 1812.56 786.323L1596.07 786.323Z" stroke="#000000" stroke-width="7.7231" stroke-linecap="butt" stroke-linejoin="miter" stroke-miterlimit="8" stroke-opacity="1" fill="#000000" fill-rule="evenodd" fill-opacity="1"/><path d="M2031.25 1057.5C1992.62 1057.5 1961.06 1087.74 1961.06 1124.58 1961.06 1161.42 1992.62 1191.56 2031.25 1191.56 2069.89 1191.56 2101.42 1161.42 2101.42 1124.58 2101.42 1087.74 2069.89 1057.5 2031.25 1057.5ZM2031.25 1081.64C2056.13 1081.64 2076.07 1100.73 2076.07 1124.58 2076.07 1148.42 2056.13 1167.43 2031.25 1167.43 2006.37 1167.43 1986.42 1148.42 1986.42 1124.58 1986.42 1100.73 2006.37 1081.64 2031.25 1081.64ZM1895.75 1125.73C1866.33 1125.73 1842.22 1148.76 1842.22 1176.79 1842.22 1204.81 1866.33 1227.81 1895.75 1227.81 1925.17 1227.81 1949.28 1204.81 1949.28 1176.79 1949.28 1148.76 1925.17 1125.73 1895.75 1125.73ZM2164.16 1125.83C2135.36 1126.53 2111.99 1149.2 2111.99 1176.79 2111.99 1204.81 2136.1 1227.82 2165.52 1227.82 2194.94 1227.82 2219.05 1204.81 2219.05 1176.79 2219.05 1148.76 2194.94 1125.83 2165.52 1125.83 2165.06 1125.83 2164.61 1125.82 2164.16 1125.83ZM1895.75 1149.87C1911.44 1149.87 1923.9 1161.77 1923.9 1176.79 1923.9 1191.8 1911.44 1203.68 1895.75 1203.68 1880.06 1203.68 1867.57 1191.8 1867.57 1176.79 1867.57 1161.77 1880.06 1149.87 1895.75 1149.87ZM2165.52 1149.87C2181.21 1149.87 2193.7 1161.77 2193.7 1176.79 2193.7 1191.8 2181.21 1203.68 2165.52 1203.68 2149.83 1203.68 2137.34 1191.8 2137.34 1176.79 2137.34 1161.77 2149.83 1149.87 2165.52 1149.87ZM2029 1201.18C1991.33 1201.18 1958.15 1219.55 1938.73 1247.4 1925.95 1239.35 1910.6 1234.67 1894.16 1234.67L1894.14 1234.67C1849.67 1234.67 1813.5 1269.17 1813.5 1311.56L1813.5 1328.48C1813.53 1335.14 1819.23 1340.53 1826.23 1340.5 1826.23 1340.5 1826.23 1340.5 1826.23 1340.5 1833.19 1340.47 1838.83 1335.11 1838.85 1328.48L1838.85 1311.56C1838.85 1282.1 1863.31 1258.83 1894.14 1258.83 1906.62 1258.83 1918.01 1262.62 1927.19 1269.13 1922.96 1280.2 1920.63 1292.14 1920.63 1304.6L1920.63 1328.48C1920.66 1335.14 1926.36 1340.53 1933.36 1340.5 1933.36 1340.5 1933.36 1340.5 1933.36 1340.5 1940.32 1340.47 1945.96 1335.11 1945.98 1328.48L1945.98 1304.6C1945.98 1292.9 1948.56 1281.83 1953.21 1271.89 1953.23 1271.86 1953.25 1271.83 1953.26 1271.79 1953.67 1271.16 1954.01 1270.49 1954.28 1269.79 1954.29 1269.77 1954.3 1269.74 1954.3 1269.72 1967.7 1243.3 1995.95 1225.32 2029 1225.32 2062.35 1225.32 2090.8 1243.62 2104.04 1270.43 2104.2 1270.79 2104.37 1271.14 2104.56 1271.49 2109.34 1281.54 2111.99 1292.74 2111.99 1304.6L2111.99 1328.48C2112.02 1335.14 2117.72 1340.53 2124.72 1340.5 2131.68 1340.47 2137.32 1335.11 2137.34 1328.48L2137.34 1304.6C2137.34 1292.16 2135.06 1280.23 2130.83 1269.18 2140.03 1262.64 2151.43 1258.81 2163.93 1258.81 2194.76 1258.81 2219.25 1282.1 2219.25 1311.56L2219.25 1328.48C2219.27 1335.11 2224.91 1340.47 2231.87 1340.5 2238.84 1340.47 2244.47 1335.11 2244.5 1328.48L2244.5 1311.56C2244.5 1269.17 2208.4 1234.67 2163.93 1234.67 2147.48 1234.67 2132.09 1239.35 2119.3 1247.42 2099.88 1219.55 2066.69 1201.18 2029 1201.18Z" stroke="#000000" stroke-width="9.16667" stroke-linecap="round" stroke-linejoin="round" stroke-miterlimit="10" stroke-opacity="1" fill="#000000" fill-rule="evenodd" fill-opacity="1"/></g></g></svg>