<svg width="3193" height="3193" viewBox="0 0 3193 3193" fill="none" xmlns="http://www.w3.org/2000/svg">
<path d="M739.267 1.91088C488.2 20.8442 264.333 154.178 126.333 366.978C54.7333 477.511 12.2 605.911 2.2 741.378C-0.733333 782.444 -0.733333 2409.38 2.2 2450.44C11.1333 2572.71 45.8 2686.44 105.667 2790.84C175.8 2912.84 279.267 3016.31 401.267 3086.44C505.667 3146.31 619.4 3180.98 741.667 3189.91C782.733 3192.84 2409.67 3192.84 2450.73 3189.91C2573 3180.98 2686.73 3146.31 2791.13 3086.44C2913 3016.44 3016.73 2912.71 3086.73 2790.84C3146.6 2686.44 3181.27 2572.71 3190.2 2450.44C3193.13 2409.38 3193.13 782.444 3190.2 741.378C3181.27 619.111 3146.6 505.378 3086.73 400.978C3016.6 278.978 2913.13 175.511 2791.13 105.378C2700.73 53.5109 2603.27 20.5776 2498.07 6.57755C2445.67 -0.355783 2488.6 -0.0891159 1592.87 0.0442175C928.2 0.177551 757.667 0.577551 739.267 1.91088ZM1508.2 648.578V758.444L1279.93 758.978C1077.13 759.378 1049.93 759.644 1037.53 761.644C985.4 769.644 954.733 782.311 930.733 805.911C912.733 823.511 901.667 845.111 894.467 877.244C891.667 889.778 891.667 891.244 891.133 1099.91C890.6 1323.24 890.733 1327.78 897 1359.91C909.8 1425.11 942.6 1464.04 996.333 1477.78C1023.13 1484.71 1013 1484.44 1268.6 1484.84L1508.2 1485.38V1594.58V1703.64L1270.6 1704.31C1019.27 1704.98 1024.33 1704.84 998.333 1711.38C934.333 1727.38 900.733 1775.51 892.2 1863.24C890.467 1881.38 890.467 2250.31 892.2 2270.58C900.6 2367.38 938.067 2416.44 1013.53 2429.91C1020.47 2431.11 1037.13 2432.44 1050.6 2432.84L1074.87 2433.64V2543.51V2653.51L941.933 2652.84C802.733 2652.18 797.4 2651.91 763.533 2645.91C685.267 2631.78 629.667 2593.24 598.733 2531.78C587.8 2509.78 579.133 2480.58 573.933 2447.24C572.067 2435.51 571.667 2399.38 570.867 2153.24C570.067 1902.31 569.8 1870.84 567.8 1856.18C560.333 1800.98 546.2 1766.84 520.867 1742.71C504.2 1726.98 486.467 1717.51 462.067 1711.38C443.667 1706.71 429.667 1705.24 404.6 1705.24H382.867V1595.51V1485.64L406.6 1484.84C444.2 1483.51 467.133 1479.11 487.8 1469.24C530.6 1448.98 554.467 1412.31 564.867 1351.24C569.8 1321.51 569.933 1319.51 570.867 1036.58C571.933 735.378 571.4 752.044 578.867 718.044C593.4 651.644 628.467 602.844 682.867 572.978C717.4 554.044 770.067 541.644 824.867 539.511C830.067 539.244 985.8 538.978 1171.27 538.844L1508.2 538.578V648.578ZM2398.2 541.511C2421.4 544.578 2431 546.444 2448.2 550.711C2539.8 573.378 2594.73 629.778 2614.2 721.244C2620.87 752.178 2620.6 738.844 2621.53 1036.58C2622.47 1321.24 2622.47 1322.98 2627.53 1353.91C2634.6 1396.04 2648.73 1427.38 2669.67 1447.38C2680.47 1457.51 2687.93 1462.71 2701.8 1469.24C2722.87 1479.24 2745.67 1483.51 2784.6 1484.84L2809.53 1485.64L2809.27 1595.11L2808.87 1704.58L2780.2 1705.38C2759.13 1706.04 2747.93 1706.98 2738.2 1708.98C2674.47 1722.04 2640.2 1761.51 2627.53 1836.58C2622.47 1866.31 2622.47 1868.18 2621.53 2153.24C2620.6 2453.11 2620.87 2439.64 2614.2 2470.58C2593.13 2569.11 2531.8 2626.31 2426.33 2645.91C2390.33 2652.58 2407.13 2652.31 2033.93 2652.84L1685.53 2653.38V1595.91V538.444L2033.93 538.978C2342.6 539.378 2384.07 539.644 2398.2 541.511Z"/>
<path d="M2005.53 1595.91V2433.51L2073.27 2432.84C2143.93 2432.18 2152.87 2431.51 2181.53 2425.24C2242.07 2412.18 2277.13 2383.11 2292.87 2333.24C2301.13 2307.11 2300.6 2325.11 2301.53 2058.58C2302.6 1807.51 2302.6 1807.38 2308.33 1773.51C2317.93 1716.04 2340.6 1668.98 2373 1638.71C2396.2 1616.98 2422.47 1603.64 2452.87 1597.78C2470.07 1594.58 2469.93 1594.58 2457.53 1591.24C2377 1569.38 2326.87 1508.04 2309.67 1410.58C2302.07 1367.11 2301.53 1348.84 2301.53 1128.58C2301.53 1012.18 2301 930.578 2300.2 921.244C2292.6 834.444 2261.4 785.778 2201.53 767.378C2176.47 759.778 2174.2 759.511 2086.6 758.978L2005.53 758.444V1595.91Z"/>
</svg>
