<svg width="634" height="634" viewBox="0 0 634 634" fill="none" xmlns="http://www.w3.org/2000/svg">
<path d="M146.603 0.378937C96.8141 4.13357 52.4195 30.5746 25.0529 72.7746C10.8541 94.6943 2.41936 120.157 0.436278 147.021C-0.145426 155.165 -0.145426 477.799 0.436278 485.943C2.20783 510.19 9.08252 532.744 20.9546 553.448C34.8626 577.641 55.3809 598.159 79.5745 612.067C100.278 623.939 122.832 630.814 147.079 632.586C155.222 633.167 477.857 633.167 486.001 632.586C510.247 630.814 532.801 623.939 553.505 612.067C577.672 598.186 598.243 577.615 612.125 553.448C623.997 532.744 630.872 510.19 632.643 485.943C633.225 477.799 633.225 155.165 632.643 147.021C630.872 122.775 623.997 100.221 612.125 79.5171C598.217 55.3235 577.698 34.8052 553.505 20.8972C535.578 10.6116 516.249 4.08067 495.387 1.30435C484.996 -0.0705856 493.51 -0.0176826 315.879 0.00875854C184.07 0.0351996 150.252 0.114526 146.603 0.378937ZM299.089 128.618V150.406L253.821 150.512C213.604 150.591 208.21 150.644 205.751 151.04C195.413 152.627 189.332 155.139 184.572 159.819C181.003 163.309 178.808 167.592 177.38 173.965C176.826 176.447 176.825 176.74 176.72 217.954C176.719 218.01 176.719 218.065 176.719 218.121C176.613 262.41 176.64 263.309 177.883 269.682C180.421 282.611 186.925 290.332 197.581 293.056C202.896 294.43 200.886 294.378 251.574 294.457L299.089 294.563V316.218V337.847L251.97 337.979C202.129 338.111 203.134 338.085 197.978 339.38C185.286 342.553 178.623 352.098 176.931 369.497C176.587 373.093 176.587 446.255 176.931 450.274C178.596 469.471 186.026 479.201 200.992 481.871C202.367 482.109 205.672 482.374 208.343 482.453L213.155 482.612V504.399V526.213L186.793 526.081C159.189 525.949 158.131 525.896 151.415 524.706C135.894 521.903 124.868 514.262 118.734 502.072C116.566 497.71 114.847 491.919 113.816 485.309C113.446 482.982 113.366 475.816 113.208 427.006C113.049 377.244 112.996 371.004 112.599 368.095C111.119 357.149 108.316 350.38 103.292 345.594C99.987 342.474 96.4704 340.597 91.6316 339.38C87.9828 338.455 85.2065 338.164 80.2355 338.164H75.9256V316.403V294.616L80.6321 294.457C88.0885 294.192 92.6364 293.32 96.7348 291.363C105.222 287.344 109.955 280.073 112.018 267.963C112.996 262.067 113.022 261.67 113.208 205.562C113.419 145.831 113.313 149.137 114.794 142.394C117.676 129.226 124.63 119.549 135.418 113.626C142.266 109.872 152.711 107.413 163.578 106.989C164.609 106.937 195.492 106.884 232.272 106.857L299.089 106.804V128.618ZM475.583 107.386C480.184 107.994 482.087 108.364 485.498 109.21C503.663 113.705 514.557 124.89 518.417 143.029C519.74 149.163 519.687 146.519 519.872 205.562C519.872 205.626 519.872 205.691 519.872 205.755C520.057 262.014 520.058 262.364 521.062 268.492C522.463 276.847 525.266 283.061 529.417 287.027C531.559 289.036 533.039 290.068 535.789 291.363C539.967 293.346 544.488 294.192 552.209 294.457L557.154 294.616L557.101 316.324L557.021 338.032L551.337 338.19C547.159 338.323 544.938 338.508 543.008 338.904C530.369 341.496 523.573 349.322 521.062 364.209C520.058 370.098 520.057 370.474 519.872 426.798C519.872 426.867 519.872 426.937 519.872 427.006C519.687 486.472 519.74 483.802 518.417 489.936C514.24 509.476 502.077 520.819 481.162 524.706C474.023 526.028 477.354 525.975 403.346 526.081L334.255 526.187V316.482V106.778L403.346 106.884C464.557 106.963 472.78 107.016 475.583 107.386Z" fill="black"/>
<path d="M475.583 107.386C480.184 107.994 482.087 108.364 485.498 109.21C503.663 113.705 514.557 124.89 518.417 143.029C519.74 149.163 519.687 146.519 519.872 205.562L519.872 205.755C520.057 262.014 520.058 262.364 521.062 268.492C522.463 276.847 525.266 283.061 529.417 287.027C531.559 289.036 533.039 290.068 535.789 291.363C539.967 293.346 544.488 294.192 552.209 294.457L557.154 294.616L557.101 316.324L557.021 338.032L551.337 338.19C547.159 338.323 544.938 338.508 543.008 338.904C530.369 341.496 523.573 349.322 521.062 364.209C520.058 370.098 520.057 370.474 519.872 426.798L519.872 427.006C519.687 486.472 519.74 483.802 518.417 489.936C514.24 509.476 502.077 520.819 481.162 524.706C474.023 526.028 477.354 525.975 403.346 526.081L334.255 526.187V316.482V106.778L403.346 106.884C464.557 106.963 472.78 107.016 475.583 107.386Z" fill="white"/>
<path d="M299.089 128.618V150.406L253.821 150.512C213.604 150.591 208.21 150.644 205.751 151.04C195.413 152.627 189.332 155.139 184.572 159.819C181.003 163.309 178.808 167.592 177.38 173.965C176.826 176.447 176.825 176.74 176.72 217.954L176.719 218.121C176.613 262.41 176.64 263.309 177.883 269.682C180.421 282.611 186.925 290.332 197.581 293.056C202.896 294.43 200.886 294.378 251.574 294.457L299.089 294.563V316.218V337.847L251.97 337.979C202.129 338.111 203.134 338.085 197.978 339.38C185.286 342.553 178.623 352.098 176.931 369.497C176.587 373.093 176.587 446.255 176.931 450.274C178.596 469.471 186.026 479.201 200.992 481.871C202.367 482.109 205.672 482.374 208.343 482.453L213.155 482.612V504.399V526.213L186.793 526.081C159.189 525.949 158.131 525.896 151.415 524.706C135.894 521.903 124.868 514.262 118.734 502.072C116.566 497.71 114.847 491.919 113.816 485.309C113.446 482.982 113.366 475.816 113.208 427.006C113.049 377.244 112.996 371.004 112.599 368.095C111.119 357.149 108.316 350.38 103.292 345.594C99.987 342.474 96.4704 340.597 91.6316 339.38C87.9828 338.455 85.2065 338.164 80.2355 338.164H75.9256V316.403V294.616L80.6321 294.457C88.0885 294.192 92.6364 293.32 96.7348 291.363C105.222 287.344 109.955 280.073 112.018 267.963C112.996 262.067 113.022 261.67 113.208 205.562C113.419 145.831 113.313 149.137 114.794 142.394C117.676 129.226 124.63 119.549 135.418 113.626C142.266 109.872 152.711 107.413 163.578 106.989C164.609 106.937 195.492 106.884 232.272 106.857L299.089 106.804V128.618Z" fill="white"/>
<path d="M397.714 316.482V482.585L411.146 482.453C425.16 482.321 426.931 482.189 432.616 480.946C444.62 478.355 451.574 472.591 454.694 462.702C456.334 457.519 456.228 461.089 456.413 408.233C456.625 358.444 456.625 358.418 457.762 351.702C459.665 340.306 464.16 330.972 470.586 324.97C475.186 320.66 480.395 318.016 486.424 316.853C489.835 316.218 489.808 316.218 487.349 315.557C471.379 311.221 461.437 299.058 458.026 279.729C456.519 271.109 456.413 267.487 456.413 223.806C456.413 200.723 456.307 184.541 456.149 182.69C454.642 165.477 448.454 155.826 436.582 152.177C431.611 150.67 431.162 150.617 413.79 150.512L397.714 150.406V316.482Z" fill="black"/>
</svg>
