<svg width="16" height="18" viewBox="0 0 16 18" fill="none" xmlns="http://www.w3.org/2000/svg">
<path d="M6.97943 1.08301C6.70721 0.838654 6.28879 0.83871 6.01654 1.08301L1.12982 5.48047L1.03412 5.58594C0.84032 5.84841 0.855222 6.2168 1.08978 6.46387C1.35572 6.74478 1.80481 6.76254 2.09271 6.50391L5.78607 3.17871L5.7851 12.5684C5.78513 13.7715 6.27615 14.9238 7.14838 15.7734C8.02043 16.6229 9.20198 17.0995 10.4345 17.0996H14.4999C14.8901 17.0996 15.2109 16.7907 15.2109 16.4043C15.2107 16.018 14.89 15.709 14.4999 15.709H10.4345C9.57817 15.7089 8.75694 15.378 8.15228 14.7881L8.04193 14.6748C7.50652 14.0987 7.20798 13.348 7.20795 12.5674V3.17773L10.9033 6.50391C11.1912 6.76252 11.6403 6.74477 11.9062 6.46387C12.1731 6.18158 12.1544 5.74047 11.8661 5.48047L6.97943 1.08301Z" fill="black" stroke="black" stroke-width="0.2"/>
</svg>
