<svg width="87" height="98" viewBox="0 0 87 98" fill="none" xmlns="http://www.w3.org/2000/svg">
<path d="M37.0118 1.68744C35.3812 0.22868 32.8747 0.229015 31.244 1.68744L1.97189 27.9395L1.39858 28.5692C0.23772 30.1361 0.326981 32.3353 1.73205 33.8102C3.32501 35.4872 6.01511 35.5932 7.73973 34.0493L29.8634 14.1984L29.8576 70.2532C29.8578 77.4355 32.7991 84.3145 38.0238 89.3865C43.2475 94.4579 50.3252 97.3031 57.7082 97.3037H82.0605C84.3978 97.3037 86.3195 95.4596 86.3195 93.1529C86.3183 90.8467 84.3972 89.0021 82.0605 89.0021H57.7082C52.5786 89.0015 47.6593 87.026 44.0373 83.5044L43.3763 82.8281C40.1692 79.3888 38.3809 74.9073 38.3806 70.2472V14.1926L60.5158 34.0493C62.2409 35.5931 64.9305 35.4872 66.5239 33.8102C68.1227 32.125 68.0106 29.4917 66.2837 27.9395L37.0118 1.68744Z" fill="black"/>
<path d="M30.8409 1.24628L1.54539 27.5158L0.937019 28.1921L0.913597 28.2155C-0.415063 30.0089 -0.301373 32.5396 1.29968 34.2203C3.11544 36.1318 6.17874 36.2477 8.14387 34.4884L29.2614 15.5412V70.2491C29.2616 77.5938 32.265 84.6322 37.6032 89.8142C42.9404 94.9958 50.1655 97.9055 57.7029 97.9062H82.0612C84.7147 97.9062 86.9165 95.7861 86.9165 93.1489C86.9151 90.5126 84.7142 88.4034 82.0612 88.4034H57.7029C52.7328 88.4028 47.9778 86.4906 44.4708 83.0865L44.4591 83.0749L43.8156 82.4219L43.8039 82.4103C40.7046 79.0809 38.9839 74.7517 38.9837 70.2491V15.5296L60.113 34.4884C62.0785 36.2474 65.141 36.1316 66.9572 34.2202C68.7795 32.2993 68.6557 29.261 66.6881 27.4925L37.416 1.24628C35.5582 -0.415651 32.6987 -0.415201 30.8409 1.24628ZM31.6481 2.13242C33.0519 0.877047 35.2052 0.876829 36.6087 2.13242L65.8808 28.3787C67.3671 29.7145 67.4665 31.9545 66.0914 33.4041C64.7208 34.8466 62.405 34.931 60.9202 33.6023L37.7787 12.8478V70.2491C37.7789 75.0613 39.6299 79.6905 42.9381 83.2381L43.6167 83.926C47.3526 87.5584 52.419 89.6037 57.7029 89.6044H82.0612C84.0816 89.6044 85.7221 91.173 85.7231 93.1489C85.7231 95.1253 84.0824 96.7052 82.0612 96.7052H57.7029C50.4742 96.7046 43.5558 93.9242 38.4455 88.9631C33.3343 84.0012 30.455 77.2689 30.4548 70.2491L30.4665 12.8595L7.33663 33.6023C5.85253 34.9309 3.53562 34.8465 2.16546 33.4041C0.956379 32.1348 0.891622 30.2671 1.88468 28.9267L2.39945 28.367L31.6481 2.13242Z" fill="black"/>
</svg>
