<svg width="19" height="18" viewBox="0 0 19 18" fill="none" xmlns="http://www.w3.org/2000/svg">
<path d="M8.53809 1.21582C9.12075 0.794288 9.87658 0.794395 10.46 1.21582L17.3613 6.21094C17.721 6.47143 17.9643 6.85199 18.0566 7.28711H18.0615L18.0762 7.37109C18.1532 7.84146 18.0453 8.31502 17.7715 8.70215C17.4269 9.18945 16.8827 9.44922 16.3311 9.44922C16.2299 9.4492 16.1295 9.43662 16.0293 9.41895V15.4307C16.0293 16.3496 15.29 17.0994 14.3789 17.0996H4.62109C3.70982 17.0996 2.96973 16.3498 2.96973 15.4307V9.41992C2.77616 9.45365 2.57626 9.45698 2.37695 9.42383C1.96847 9.35541 1.60573 9.15037 1.33789 8.84082L1.22852 8.70215C0.954734 8.31589 0.846952 7.84295 0.923828 7.37207C1.00093 6.90073 1.25482 6.48823 1.6377 6.21094L8.53809 1.21582ZM4.35449 8.63672V15.4307C4.35449 15.5803 4.47505 15.7002 4.62012 15.7002H6.7793V11.6221C6.77935 10.7412 7.48784 10.0226 8.36133 10.0225H10.6367C11.5103 10.0226 12.2187 10.7411 12.2188 11.6221V15.7002H14.3789C14.5235 15.7 14.6426 15.5804 14.6426 15.4307V8.63574L9.49902 4.91406L4.35449 8.63672ZM8.36133 11.4229C8.25717 11.423 8.16509 11.5138 8.16504 11.6221V15.7002H10.834L10.833 11.6221C10.833 11.5137 10.741 11.4229 10.6367 11.4229H8.36133ZM9.65234 2.35449C9.55405 2.28379 9.44299 2.28373 9.34473 2.35449L2.44434 7.34863C2.36238 7.40832 2.30796 7.49707 2.29102 7.60059C2.27409 7.70406 2.29804 7.80559 2.35645 7.88867C2.41533 7.97208 2.50186 8.02689 2.60352 8.04395C2.70396 8.06088 2.80493 8.03736 2.88672 7.97852L9.0957 3.48438L9.18945 3.42676C9.41681 3.31244 9.69233 3.33178 9.90332 3.48438L16.1113 7.97852H16.1123C16.1935 8.03753 16.293 8.06095 16.3945 8.04395C16.4962 8.02691 16.5835 7.97122 16.6416 7.88867H16.6426C16.701 7.80649 16.7231 7.70496 16.7061 7.60059C16.6891 7.49675 16.6341 7.40822 16.5527 7.34961V7.34863L9.65234 2.35449Z" fill="black" stroke="black" stroke-width="0.2"/>
</svg>
