<svg width="111" height="105" viewBox="0 0 111 105" fill="none" xmlns="http://www.w3.org/2000/svg">
<path d="M49.6549 3.55144C53.3235 0.901075 58.0824 0.901748 61.7558 3.55144L105.208 34.9581C107.473 36.5959 109.005 38.9886 109.586 41.7244H109.617L109.709 42.2525C110.194 45.2099 109.515 48.1874 107.791 50.6215C105.621 53.6853 102.195 55.3186 98.7218 55.3186C98.0846 55.3185 97.4524 55.2394 96.8216 55.1283V92.927C96.8216 98.7045 92.1667 103.419 86.4302 103.42H24.9924C19.2548 103.42 14.595 98.7058 14.595 92.927V55.1344C13.3762 55.3465 12.1176 55.3674 10.8627 55.159C8.2908 54.7288 6.0069 53.4396 4.3205 51.4933L3.63188 50.6215C1.90805 48.1929 1.22943 45.2193 1.71346 42.2586C2.19891 39.2951 3.79747 36.7015 6.20819 34.9581L49.6549 3.55144ZM23.3138 50.2101V92.927C23.3138 93.8676 24.0729 94.6214 24.9863 94.6214H38.5811V68.9805C38.5814 63.4419 43.0422 58.9237 48.542 58.9231H62.8683C68.3687 58.9237 72.829 63.4413 72.8296 68.9805V94.6214H86.4302C87.3406 94.6202 88.0905 93.8682 88.0905 92.927V50.2039L55.7052 26.804L23.3138 50.2101ZM48.542 67.7281C47.8861 67.7287 47.3064 68.2996 47.3061 68.9805V94.6214H64.1106L64.1043 68.9805C64.1043 68.299 63.525 67.7281 62.8683 67.7281H48.542ZM56.6705 10.7108C56.0516 10.2663 55.3524 10.2659 54.7337 10.7108L11.287 42.1112C10.771 42.4865 10.4283 43.0446 10.3217 43.6954C10.2151 44.346 10.3659 44.9844 10.7336 45.5067C11.1044 46.0312 11.6492 46.3758 12.2892 46.483C12.9216 46.5895 13.5574 46.4416 14.0724 46.0717L53.1658 17.8149L53.756 17.4526C55.1876 16.7339 56.9223 16.8555 58.2507 17.8149L97.3378 46.0717H97.3442C97.8554 46.4427 98.4819 46.5899 99.121 46.483C99.7613 46.3759 100.311 46.0258 100.677 45.5067C101.044 44.99 101.19 44.3517 101.083 43.6954C100.976 43.0426 100.63 42.4859 100.117 42.1174L56.6705 10.7108Z" fill="black"/>
<path d="M55.699 0.941902C53.4595 0.941826 51.2189 1.64094 49.2798 3.04182L5.83308 34.4546C3.28921 36.2943 1.59784 39.0314 1.08628 42.1543C0.57637 45.2732 1.29639 48.4211 3.11535 50.9837L3.12763 50.996L3.84088 51.8924V51.9047C5.62131 53.9595 8.05018 55.319 10.7643 55.773V55.7852C11.844 55.9645 12.9055 55.8798 13.9616 55.7606V92.9328C13.9616 99.0491 18.9094 104.046 24.9924 104.046H86.4302C92.5121 104.045 97.4487 99.0476 97.4487 92.9328V55.8221C97.87 55.8764 98.2906 55.9448 98.7276 55.9449C102.398 55.9449 106.018 54.2164 108.307 50.9837C110.126 48.4159 110.847 45.2705 110.336 42.1542L110.324 42.142L110.152 41.0982H109.881C109.183 38.4613 107.804 36.0648 105.577 34.4546L62.1306 3.04182C60.1893 1.64152 57.9386 0.941979 55.699 0.941902ZM55.699 2.1822C57.6744 2.18229 59.6606 2.81168 61.3927 4.06107L104.839 35.4615C106.978 37.0077 108.421 39.2703 108.971 41.8595L109.082 42.3507C109.541 45.1494 108.903 47.9589 107.274 50.2592C105.224 53.1543 102.003 54.6923 98.7276 54.6923C98.1425 54.6922 97.5426 54.6156 96.9322 54.5081L96.1944 54.3731V92.9329C96.1944 98.3732 91.8214 102.793 86.4302 102.794H24.9924C19.6002 102.794 15.2283 98.3742 15.2283 92.9329V54.3853L14.4904 54.5204C13.337 54.7211 12.1421 54.7288 10.9611 54.5327V54.5449C8.53143 54.1386 6.39246 52.9197 4.8001 51.082L4.14834 50.2592C2.51964 47.9646 1.88247 45.1654 2.34062 42.363C2.79997 39.5588 4.30566 37.1087 6.58322 35.4615L50.0299 4.06107C51.7595 2.81158 53.7237 2.18211 55.699 2.1822ZM54.3709 10.2012L10.9119 41.6016C10.263 42.0736 9.82656 42.7849 9.69446 43.591C9.56199 44.3995 9.76325 45.2095 10.2232 45.8629V45.8751C10.6866 46.5307 11.3912 46.9692 12.1908 47.1032C12.9817 47.2329 13.7948 47.0518 14.4413 46.5874L53.5101 18.3429L54.0389 18.0114H54.0512C55.2726 17.4035 56.7413 17.4991 57.8757 18.3184L96.9691 46.5751C97.6141 47.0432 98.4214 47.2367 99.2195 47.1032C99.847 46.9982 100.319 46.569 100.757 46.133H101.003L101.199 45.8751C101.665 45.2202 101.835 44.3964 101.704 43.591C101.599 42.9515 101.183 42.4632 100.744 42.0192V41.7858L100.486 41.6016L57.0395 10.2012C56.2382 9.62565 55.1723 9.62488 54.3709 10.2012ZM96.9691 46.5751L97.129 46.6979H97.338L96.9691 46.5751ZM55.0965 11.2204C55.5324 10.9069 55.8651 10.9069 56.3016 11.2204L99.4901 42.4367L99.7483 42.6332C100.126 42.9047 100.38 43.3041 100.462 43.7998C100.544 44.3068 100.436 44.7599 100.166 45.1383V45.1506C99.8948 45.5361 99.5006 45.7829 99.0228 45.8629C98.5428 45.9431 98.0968 45.842 97.7193 45.5681L97.5471 45.4453L58.6258 17.3114C57.1069 16.2144 55.1126 16.0707 53.4732 16.8939L53.4486 16.9061L52.8214 17.2868L13.7034 45.5681V45.5559C13.3233 45.829 12.8698 45.942 12.3999 45.8629H12.3876C11.9071 45.7823 11.522 45.5317 11.2439 45.1383C10.9736 44.7491 10.8688 44.2882 10.9488 43.7998C11.03 43.3042 11.2789 42.8996 11.662 42.6209L55.0965 11.2204ZM55.699 26.0304L22.6805 49.8908V92.9329C22.6805 94.2113 23.7321 95.2538 24.9924 95.2538H39.2082V68.9865C39.2085 63.785 43.3875 59.5559 48.5419 59.5553H62.8684C68.0236 59.5559 72.2016 63.7842 72.2021 68.9865V95.2538H86.4302C87.6874 95.2521 88.7176 94.2076 88.7176 92.9329V49.8785L55.699 26.0304ZM55.699 27.5777L87.4632 50.5293V92.9329C87.4632 93.5406 86.994 93.9882 86.4302 93.989H73.4565V68.9865C73.4558 63.1102 68.714 58.2911 62.8684 58.2904H48.5419C42.6969 58.2911 37.9542 63.1108 37.9539 68.9865V93.989H24.9924C24.426 93.989 23.9471 93.5357 23.9471 92.9329V50.5293L55.699 27.5777ZM48.5419 67.0953C47.5206 67.0963 46.6732 67.9371 46.6727 68.9742V68.9868V95.2541H64.7376V68.9868C64.7376 67.9495 63.8905 67.0956 62.8684 67.0956L48.5419 67.0953ZM48.5419 68.3602H62.8684C63.1597 68.3602 63.471 68.6607 63.471 68.9865L63.4836 93.989H47.9397V68.9865C47.9398 68.6618 48.2517 68.3605 48.5419 68.3602Z" fill="black"/>
</svg>
