<svg width="47" height="47" viewBox="0 0 47 47" fill="none" xmlns="http://www.w3.org/2000/svg">
<path d="M23.5107 15.9454C23.5107 14.1902 24.1913 12.5444 25.4288 11.311C26.6621 10.0797 28.3039 9.40321 30.0549 9.40321H30.0735C30.9831 9.40321 31.7214 8.66692 31.7235 7.75734C31.7255 6.84571 30.9892 6.1053 30.0776 6.10324H30.0549C27.4252 6.10324 24.9544 7.12211 23.0981 8.97421C21.2357 10.8325 20.2106 13.3075 20.2106 15.9453V15.9639C20.2106 16.8755 20.9489 17.6036 21.8606 17.6036C22.7722 17.6056 23.5107 16.857 23.5107 15.9454Z" fill="black"/>
<path d="M1.64857 46.1298C2.07138 46.1298 2.49421 45.9668 2.81592 45.6451L19.9757 28.4441C22.9189 30.8303 26.516 32.0225 30.1169 32.0225C34.2337 32.0225 38.3526 30.4612 41.4852 27.3406C44.5253 24.3129 46.198 20.2908 46.198 16.0114C46.198 11.7318 44.5253 7.70767 41.4852 4.68226C35.2174 -1.56075 25.0165 -1.56075 18.7487 4.68226C15.7107 7.70793 14.0359 11.732 14.0359 16.0114C14.0359 19.7363 15.3064 23.2671 17.639 26.1136L0.481335 43.3146C-0.162185 43.9581 -0.160073 45.0037 0.48546 45.6472C0.805145 45.969 1.22781 46.1298 1.64857 46.1298ZM21.0772 7.0212C23.5708 4.54005 26.8439 3.29842 30.117 3.29842C33.3922 3.29842 36.6652 4.54005 39.1568 7.0212C41.5699 9.42194 42.8981 12.6148 42.8981 16.0114C42.8981 19.4062 41.5699 22.6007 39.1568 25.0015C34.1718 29.9638 26.062 29.9638 21.0772 25.0015C18.6641 22.6008 17.3359 19.408 17.3359 16.0114C17.3359 12.6145 18.6641 9.422 21.0772 7.0212Z" fill="black"/>
</svg>
