<svg width="18" height="18" viewBox="0 0 18 18" fill="none" xmlns="http://www.w3.org/2000/svg">
<path d="M5.82422 8.89476C5.60498 8.8958 5.39505 8.9837 5.23993 9.13882C5.08584 9.29498 4.99897 9.50594 5.00001 9.72518C5.00208 10.1802 5.37023 10.5484 5.82424 10.5494H11.6145C11.8337 10.5504 12.0447 10.4646 12.2008 10.3095C12.3559 10.1554 12.4438 9.94443 12.4449 9.72519C12.4459 9.50492 12.358 9.29292 12.2029 9.13675C12.0467 8.98162 11.8347 8.89372 11.6144 8.89475L5.82422 8.89476Z" fill="black"/>
<path d="M8.71973 6.00001C8.49945 6.00104 8.28952 6.08895 8.13544 6.24407C7.98031 6.40023 7.89345 6.61119 7.89448 6.83043V12.6196C7.89345 12.8399 7.98031 13.0509 8.13544 13.206C8.28953 13.3621 8.49946 13.45 8.71973 13.4511C8.94 13.4511 9.152 13.3642 9.30714 13.208C9.4633 13.0519 9.55017 12.8409 9.55017 12.6196V6.8304C9.55017 6.61013 9.4633 6.39813 9.30714 6.24195C9.15202 6.0858 8.94002 5.99897 8.71973 6.00001Z" fill="black"/>
<path d="M8.38477 2.43848C8.77978 2.4386 9.09941 2.75833 9.09961 3.15332C9.09961 3.54848 8.7799 3.86902 8.38477 3.86914H3.15234C2.69996 3.86914 2.33116 4.23805 2.33105 4.69043V14.8477C2.33111 15.3001 2.69992 15.6689 3.15234 15.6689H13.6172C14.0695 15.6688 14.4384 15.3 14.4385 14.8477V9.61523C14.4385 9.22002 14.7591 8.90039 15.1543 8.90039C15.5493 8.90063 15.8691 9.2202 15.8691 9.61523V14.8477C15.8691 16.0889 14.8585 17.0995 13.6172 17.0996H3.15234C1.91099 17.0996 0.900409 16.0891 0.900391 14.8477V4.69043C0.900524 3.44917 1.91098 2.43848 3.15234 2.43848H8.38477ZM16.3848 0.900391C16.4319 0.900399 16.4791 0.905487 16.5205 0.912109H16.5215C16.5385 0.914983 16.5537 0.919595 16.5635 0.922852C16.5751 0.926742 16.5783 0.928391 16.583 0.929688H16.584C16.5968 0.933359 16.6328 0.941541 16.6621 0.955078L16.7285 0.990234L16.7295 0.991211C16.7329 0.993276 16.7366 0.994744 16.7471 1C16.7552 1.00405 16.7673 1.01075 16.7803 1.01953C16.8593 1.0716 16.9284 1.13976 16.9805 1.21875L16.999 1.25293L17.0078 1.26855L17.0439 1.34082L17.0684 1.41602V1.41699C17.0697 1.42183 17.0712 1.42541 17.0752 1.4375C17.0783 1.44684 17.0821 1.46064 17.085 1.47656H17.0859C17.0945 1.52136 17.0996 1.56771 17.0996 1.61523V6.53809C17.0996 6.93327 16.7799 7.25383 16.3848 7.25391C15.9895 7.25391 15.6689 6.93332 15.6689 6.53809V3.34277L11.9678 7.04492C11.8283 7.18438 11.6439 7.25383 11.4619 7.25391C11.2797 7.25391 11.0947 7.18455 10.9551 7.04492V7.04395C10.6768 6.76355 10.6762 6.31132 10.9551 6.03223L14.6572 2.33105H11.4619C11.0667 2.33105 10.7461 2.01047 10.7461 1.61523C10.7462 1.22007 11.0667 0.900391 11.4619 0.900391H16.3848Z" fill="black" stroke="black" stroke-width="0.2"/>
</svg>
