<svg width="20" height="17" viewBox="0 0 20 17" fill="none" xmlns="http://www.w3.org/2000/svg">
<path d="M2.47888 6.96844e-05C1.11793 6.96844e-05 0 1.1242 0 2.48617V14.0655C0 15.4265 1.11897 16.5455 2.47888 16.5455H17.3686C18.7296 16.5455 19.8547 15.4265 19.8547 14.0655V4.96603C19.8547 3.60509 18.7296 2.47993 17.3686 2.47993L12.6353 2.48613L9.69712 0.720818C8.91221 0.249256 8.01661 0 7.10139 0L2.47888 6.96844e-05ZM2.47888 1.65472H7.10157C7.71792 1.65472 8.32085 1.82018 8.84827 2.13767L11.9818 4.0188C12.1111 4.09637 12.2589 4.13566 12.4089 4.13463H17.3739C17.8403 4.13463 18.1981 4.49865 18.1981 4.96505V14.0646C18.1981 14.531 17.8341 14.8888 17.3677 14.8888H2.47798C2.01158 14.8888 1.65375 14.531 1.65375 14.0646V2.48519C1.65375 2.0188 2.01158 1.65477 2.47798 1.65477L2.47888 1.65472Z" fill="black"/>
<path d="M7.02823 8.68498C6.80899 8.68602 6.59906 8.77392 6.44394 8.92905C6.28985 9.0852 6.20298 9.29617 6.20402 9.5154C6.20609 9.97044 6.57424 10.3386 7.02825 10.3396H12.8185C13.0377 10.3407 13.2487 10.2548 13.4048 10.0997C13.5599 9.94562 13.6478 9.73465 13.6489 9.51541C13.6499 9.29514 13.562 9.08314 13.4069 8.92697C13.2507 8.77184 13.0387 8.68394 12.8184 8.68498L7.02823 8.68498Z" fill="black"/>
<path d="M9.92374 5.79028C9.70346 5.79131 9.49353 5.87922 9.33945 6.03434C9.18432 6.1905 9.09746 6.40146 9.09849 6.62069V12.4098C9.09746 12.6301 9.18432 12.8411 9.33945 12.9962C9.49354 13.1524 9.70347 13.2403 9.92374 13.2413C10.144 13.2413 10.356 13.1544 10.5112 12.9983C10.6673 12.8421 10.7542 12.6312 10.7542 12.4098V6.62067C10.7542 6.40039 10.6673 6.1884 10.5112 6.03222C10.356 5.87607 10.144 5.78924 9.92374 5.79028Z" fill="black"/>
</svg>
