<svg width="18" height="15" viewBox="0 0 18 15" fill="none" xmlns="http://www.w3.org/2000/svg">
<path d="M2.24732 6.31749e-05C1.0135 6.31749e-05 0 1.01918 0 2.25393V12.7516C0 13.9855 1.01444 14.9999 2.24732 14.9999H15.7461C16.98 14.9999 18 13.9855 18 12.7516V4.50214C18 3.26833 16.98 2.24827 15.7461 2.24827L11.455 2.25389L8.79128 0.653484C8.07969 0.225972 7.26775 0 6.43802 0L2.24732 6.31749e-05ZM2.24732 1.50015H6.43819C6.99696 1.50015 7.54357 1.65015 8.02172 1.93798L10.8625 3.64339C10.9798 3.71371 11.1138 3.74933 11.2497 3.7484H15.7509C16.1738 3.7484 16.4981 4.07841 16.4981 4.50125V12.7508C16.4981 13.1736 16.1682 13.498 15.7453 13.498H2.2465C1.82367 13.498 1.49927 13.1736 1.49927 12.7508V2.25304C1.49927 1.83022 1.82449 1.50015 2.24732 1.50015Z" fill="black"/>
<path d="M6.37171 7.87368C6.17295 7.87462 5.98263 7.95431 5.842 8.09495C5.7023 8.23651 5.62355 8.42778 5.62449 8.62653C5.62637 9.03906 5.96013 9.37283 6.37173 9.37374H11.6211C11.8198 9.37473 12.0111 9.29686 12.1526 9.15625C12.2932 9.01656 12.3729 8.8253 12.3739 8.62654C12.3748 8.42684 12.2951 8.23465 12.1545 8.09306C12.0129 7.95243 11.8207 7.87274 11.621 7.87368H6.37171Z" fill="black"/>
<path d="M8.99673 5.24939C8.79703 5.25032 8.60671 5.33002 8.46703 5.47065C8.32639 5.61222 8.24764 5.80348 8.24857 6.00223V11.2506C8.24764 11.4503 8.32639 11.6416 8.46703 11.7822C8.60672 11.9238 8.79704 12.0035 8.99673 12.0044C9.19642 12.0044 9.38862 11.9256 9.52932 11.7841C9.67084 11.6425 9.74962 11.4513 9.74962 11.2506V6.00221C9.74962 5.80251 9.67084 5.61032 9.52932 5.46873C9.38862 5.32717 9.19642 5.24845 8.99673 5.24939Z" fill="black"/>
</svg>
