<svg width="17" height="17" viewBox="0 0 17 17" fill="none" xmlns="http://www.w3.org/2000/svg">
<path d="M5.02322 8.09422C4.80413 8.0958 4.59455 8.18395 4.4402 8.33943C4.28584 8.49492 4.19921 8.70513 4.19922 8.92422C4.20122 9.37922 4.56922 9.74722 5.02322 9.74822H10.8132C10.9774 9.74959 11.1383 9.702 11.2753 9.61152C11.4123 9.52104 11.5192 9.39178 11.5824 9.24025C11.6457 9.08871 11.6623 8.92178 11.6302 8.76075C11.5981 8.59973 11.5187 8.45193 11.4022 8.33622C11.3248 8.25914 11.2329 8.19809 11.1318 8.15656C11.0307 8.11504 10.9225 8.09385 10.8132 8.09422H5.02322Z" fill="black"/>
<path d="M7.91923 5.19922C7.8105 5.19948 7.70288 5.22116 7.60252 5.26301C7.50217 5.30486 7.41104 5.36607 7.33433 5.44315C7.25763 5.52022 7.19686 5.61165 7.1555 5.7122C7.11413 5.81276 7.09297 5.92048 7.09323 6.02922V11.8192C7.09323 12.0388 7.18047 12.2494 7.33575 12.4047C7.49103 12.56 7.70163 12.6472 7.92123 12.6472C8.14083 12.6472 8.35144 12.56 8.50672 12.4047C8.662 12.2494 8.74923 12.0388 8.74923 11.8192V6.02922C8.74871 5.80925 8.66109 5.59844 8.50555 5.4429C8.35001 5.28736 8.1392 5.19975 7.91923 5.19922Z" fill="black"/>
<path d="M7.58421 1.63722C8.53821 1.63722 8.53821 3.06822 7.58421 3.06822H2.35121C1.89824 3.06932 1.53131 3.43625 1.53021 3.88922V14.0472C1.53021 14.4992 1.89921 14.8672 2.35121 14.8672H12.8162C13.2688 14.8661 13.6356 14.4998 13.6372 14.0472V8.81422C13.6372 7.86022 15.0682 7.86022 15.0682 8.81422V14.0472C15.0665 15.2903 14.0593 16.2976 12.8162 16.2992H2.35121C1.10815 16.2976 0.100865 15.2903 0.0992126 14.0472V3.88922C0.100865 2.64616 1.10815 1.63887 2.35121 1.63722H7.58421ZM15.5842 0.0992203C15.6312 0.0992203 15.6782 0.10422 15.7192 0.11122H15.7212C15.7354 0.113494 15.7495 0.116837 15.7632 0.12122L15.7822 0.12922C15.8089 0.135268 15.836 0.143633 15.8612 0.15422L15.9282 0.18922L15.9462 0.19922C15.9542 0.20322 15.9662 0.20922 15.9792 0.21922C16.0589 0.27107 16.127 0.33882 16.1792 0.41822L16.1982 0.45222L16.2072 0.46822L16.2432 0.54022L16.2672 0.61522V0.61622L16.2742 0.63622L16.2842 0.67622C16.2935 0.721644 16.2986 0.76785 16.2992 0.81422V5.73722C16.2992 6.69122 14.8682 6.69122 14.8682 5.73722V2.54222L11.1672 6.24422C10.8875 6.52412 10.4339 6.52412 10.1542 6.24422C9.87553 5.96444 9.87553 5.511 10.1542 5.23122L13.8562 1.53022H10.6612C9.75698 1.48238 9.75698 0.14806 10.6612 0.10022H15.5842V0.0992203Z" fill="black"/>
<path d="M10.6562 0C10.4057 0.0132558 10.2064 0.118798 10.0762 0.271484C9.94599 0.42417 9.88281 0.619876 9.88281 0.814453C9.88281 1.00903 9.94599 1.20474 10.0762 1.35742C10.2064 1.51011 10.4057 1.6176 10.6562 1.63086H10.6582H13.6133L10.084 5.16016C9.76731 5.47812 9.76731 5.99649 10.084 6.31445C10.4019 6.6326 10.9204 6.6326 11.2383 6.31445L14.7676 2.78516V5.73633C14.7676 5.99983 14.8707 6.21008 15.0254 6.34766C15.1802 6.48523 15.3829 6.55273 15.584 6.55273C15.7851 6.55273 15.9878 6.48523 16.1426 6.34766C16.2974 6.21008 16.3985 5.99983 16.3985 5.73633V0.814453V0.812503C16.3978 0.759777 16.3934 0.707749 16.3829 0.656253L16.3809 0.654303L16.3711 0.607428L16.3672 0.599618L16.3359 0.501962L16.2949 0.421884L16.2851 0.402353L16.2656 0.367197L16.2636 0.363287C16.2056 0.275084 16.1287 0.199268 16.041 0.140625L16.0352 0.136719C16.0174 0.124063 15.9996 0.11307 15.9922 0.109375H15.9902L15.9042 0.0644531L15.9003 0.0625001C15.8698 0.049658 15.837 0.0385844 15.8046 0.0312501L15.7948 0.0292971H15.8026L15.7987 0.027344L15.7928 0.025391C15.7743 0.019482 15.7554 0.0147857 15.7362 0.0117192H15.7284C15.6844 0.00453217 15.6352 3.57628e-07 15.5839 3.57628e-07H15.4843H10.6581L10.6562 0ZM10.084 6.31445L10.0547 6.24414V6.28516L10.084 6.31445ZM10.6621 0.201172H15.6074C15.6399 0.202472 15.674 0.204012 15.7031 0.208982L15.7109 0.210932H15.705C15.7143 0.212412 15.7234 0.213932 15.7324 0.216792L15.7617 0.228511H15.7676C15.7858 0.232981 15.8029 0.238898 15.8203 0.246089C15.8209 0.246329 15.8217 0.245845 15.8223 0.246089L15.8282 0.249999V0.251949L15.9024 0.289058C15.9104 0.293058 15.9133 0.295168 15.918 0.298828L15.9219 0.300778L15.9239 0.302728C15.9913 0.346558 16.0494 0.403804 16.0939 0.470697C16.0944 0.47147 16.0953 0.471877 16.0959 0.472647L16.1115 0.501944L16.1193 0.515616L16.1505 0.578116L16.1681 0.63085V0.6328L16.1779 0.66405L16.1857 0.6953C16.1938 0.734652 16.1988 0.77638 16.1994 0.816393V5.73633C16.1992 5.94983 16.1233 6.0983 16.0098 6.19922C15.8962 6.30014 15.7406 6.35352 15.584 6.35352C15.4273 6.35352 15.2717 6.30014 15.1582 6.19922C15.0447 6.0983 14.9688 5.94983 14.9688 5.73633V2.30078L11.0957 6.17383C10.8548 6.41493 10.4681 6.41385 10.2266 6.17383H10.2246V6.17188C9.98392 5.93029 9.98392 5.54432 10.2246 5.30274L14.0976 1.42969H10.666C10.4644 1.41903 10.3243 1.34097 10.2285 1.22852C10.1326 1.11607 10.0839 0.965419 10.0839 0.814456C10.0839 0.663493 10.1326 0.514796 10.2285 0.402347C10.3235 0.290916 10.4635 0.212959 10.6621 0.201172ZM2.35156 1.53711C1.05455 1.53883 0.00172437 2.59166 0 3.88867V14.0469C0.001724 15.3439 1.05455 16.3967 2.35156 16.3984H12.8164C14.1134 16.3967 15.1662 15.3439 15.168 14.0469V8.81445C15.168 8.55095 15.0649 8.3407 14.9102 8.20312C14.7554 8.06555 14.5546 7.99805 14.3535 7.99805C14.1524 7.99805 13.9497 8.06555 13.7949 8.20312C13.6401 8.3407 13.5371 8.55095 13.5371 8.81445V14.0469C13.5356 14.4456 13.2152 14.7666 12.8164 14.7676H2.35156C1.95384 14.7676 1.63086 14.4444 1.63086 14.0469V3.88867C1.63183 3.48957 1.95247 3.16894 2.35156 3.16797H7.58398C7.84748 3.16797 8.05774 3.06493 8.19531 2.91016C8.33289 2.75538 8.40039 2.55461 8.40039 2.35352C8.40039 2.15242 8.33289 1.9497 8.19531 1.79492C8.05774 1.64015 7.84748 1.53711 7.58398 1.53711H2.35156ZM2.35156 1.73633H7.58398C7.79748 1.73633 7.94595 1.8142 8.04688 1.92773C8.1478 2.04127 8.19922 2.19686 8.19922 2.35352C8.19922 2.51017 8.1478 2.66381 8.04688 2.77734C7.94595 2.89088 7.79748 2.96875 7.58398 2.96875H2.35156C1.84472 2.96998 1.43092 3.38183 1.42969 3.88867V14.0469C1.42969 14.5533 1.84529 14.9668 2.35156 14.9668H12.8164C13.3228 14.9656 13.7345 14.5533 13.7363 14.0469V8.81445C13.7363 8.60095 13.8142 8.45249 13.9277 8.35156C14.0413 8.25064 14.1969 8.19922 14.3535 8.19922C14.5102 8.19922 14.6638 8.25064 14.7773 8.35156C14.8909 8.45249 14.9688 8.60095 14.9688 8.81445V14.0469C14.9671 15.236 14.0055 16.1976 12.8164 16.1992H2.35156C1.16245 16.1976 0.2008 15.236 0.199219 14.0469V3.88867C0.2008 2.69956 1.16245 1.73791 2.35156 1.73633Z" fill="black"/>
</svg>
