<svg width="46" height="46" viewBox="0 0 46 46" fill="none" xmlns="http://www.w3.org/2000/svg">
<path d="M1.64296 39.0342C2.55066 39.0342 3.28582 38.2991 3.28582 37.3914V33.5471C3.28582 31.3477 4.14216 29.2818 5.69465 27.7274C7.24919 26.1749 9.31715 25.3186 11.5143 25.3186H14.7015C16.178 25.333 16.866 23.4088 15.7878 22.4435C13.4364 20.3735 12.0893 17.3856 12.0893 14.2455C12.0893 8.23081 16.983 3.33693 22.9979 3.33693C26.2939 3.33693 29.3743 4.79905 31.4504 7.34756C32.0233 8.05192 33.0563 8.15874 33.7606 7.58372C34.465 7.0108 34.5697 5.97577 33.9968 5.27346C31.2984 1.95283 27.2897 0.0491638 22.9999 0.0491638C15.1735 0.0491638 8.80553 6.41716 8.80553 14.2435C8.80553 17.0487 9.64957 19.7514 11.161 22.0493C8.2182 22.1376 5.46434 23.3143 3.37199 25.4049C1.19727 27.5775 0 30.471 0 33.5471V37.3914C0 38.2991 0.735255 39.0342 1.64296 39.0342Z" fill="black"/>
<path d="M1.643 46C2.06398 46 2.48293 45.8398 2.8053 45.5194L20.1865 28.1382C21.1209 28.3272 22.0614 28.4545 22.9999 28.4545C24.5319 28.4545 25.8606 28.208 27.2262 27.8199C28.9184 27.284 30.4668 26.4317 31.8632 25.3166H34.4836C39.022 25.3166 42.7142 29.0089 42.7142 33.5472V44.3081C42.7142 45.2158 43.4493 45.951 44.357 45.951C45.2647 45.951 45.9999 45.2158 45.9999 44.3081V33.5472C45.9999 27.3228 41.0323 22.2486 34.8552 22.0493C35.5884 20.9383 36.1695 19.7308 36.5638 18.4535C36.9828 17.0858 37.1943 15.6689 37.1943 14.2437C37.1943 13.3196 37.071 12.379 36.8862 11.4365L45.5195 2.80317C46.1603 2.16243 46.1603 1.1213 45.5195 0.480557C44.8788 -0.160186 43.8377 -0.160186 43.1969 0.480557L0.48251 43.195C-0.158232 43.8357 -0.158232 44.8768 0.48251 45.5176C0.802871 45.84 1.222 46 1.643 46ZM30.2146 22.4374C28.7155 23.725 27.0377 24.6142 25.0766 24.9571C24.4687 25.0865 23.8259 25.1379 23.177 25.1481L33.8969 14.4283C33.8804 15.4653 33.7285 16.4962 33.4245 17.4881C32.8372 19.3877 31.724 21.1025 30.2146 22.4374Z" fill="black"/>
</svg>
